<svg width="16" height="14" viewBox="0 0 16 14" fill="none" xmlns="http://www.w3.org/2000/svg">
<path d="M10.3085 7.84375C10.3085 7.64453 10.2773 7.46875 10.2148 7.31641C10.1562 7.16016 10.0507 7.01953 9.89835 6.89453C9.74991 6.76953 9.54288 6.65039 9.27725 6.53711C9.01553 6.42383 8.6835 6.30859 8.28116 6.19141C7.85928 6.06641 7.47842 5.92773 7.13858 5.77539C6.79874 5.61914 6.50772 5.44141 6.26553 5.24219C6.02335 5.04297 5.8378 4.81445 5.70889 4.55664C5.57999 4.29883 5.51553 4.00391 5.51553 3.67188C5.51553 3.33984 5.58389 3.0332 5.72061 2.75195C5.85733 2.4707 6.05264 2.22656 6.30655 2.01953C6.56436 1.80859 6.871 1.64453 7.22647 1.52734C7.58194 1.41016 7.97842 1.35156 8.41592 1.35156C9.05655 1.35156 9.59952 1.47461 10.0448 1.7207C10.494 1.96289 10.8358 2.28125 11.0702 2.67578C11.3046 3.06641 11.4218 3.48438 11.4218 3.92969H10.2968C10.2968 3.60937 10.2284 3.32617 10.0917 3.08008C9.95499 2.83008 9.74796 2.63477 9.47061 2.49414C9.19327 2.34961 8.84171 2.27734 8.41592 2.27734C8.01358 2.27734 7.68155 2.33789 7.41983 2.45898C7.15811 2.58008 6.9628 2.74414 6.83389 2.95117C6.70889 3.1582 6.64639 3.39453 6.64639 3.66016C6.64639 3.83984 6.6835 4.00391 6.75772 4.15234C6.83585 4.29688 6.95499 4.43164 7.11514 4.55664C7.27921 4.68164 7.48624 4.79688 7.73624 4.90234C7.99014 5.00781 8.29288 5.10938 8.64444 5.20703C9.12881 5.34375 9.54678 5.49609 9.89835 5.66406C10.2499 5.83203 10.539 6.02148 10.7655 6.23242C10.996 6.43945 11.1659 6.67578 11.2753 6.94141C11.3886 7.20312 11.4452 7.5 11.4452 7.83203C11.4452 8.17969 11.3749 8.49414 11.2343 8.77539C11.0937 9.05664 10.8925 9.29688 10.6308 9.49609C10.369 9.69531 10.0546 9.84961 9.68741 9.95898C9.32413 10.0645 8.91788 10.1172 8.46866 10.1172C8.07413 10.1172 7.68546 10.0625 7.30264 9.95312C6.92374 9.84375 6.57803 9.67969 6.26553 9.46094C5.95694 9.24219 5.70889 8.97266 5.52139 8.65234C5.3378 8.32812 5.246 7.95312 5.246 7.52734H6.371C6.371 7.82031 6.42764 8.07227 6.54092 8.2832C6.65421 8.49023 6.8085 8.66211 7.00381 8.79883C7.20303 8.93555 7.42764 9.03711 7.67764 9.10352C7.93155 9.16602 8.19522 9.19727 8.46866 9.19727C8.86319 9.19727 9.19717 9.14258 9.47061 9.0332C9.74405 8.92383 9.95108 8.76758 10.0917 8.56445C10.2362 8.36133 10.3085 8.12109 10.3085 7.84375Z" fill="black"/>
<path d="M10.2148 7.31641L10.0274 7.38666L10.0297 7.39232L10.2148 7.31641ZM9.89835 6.89453L9.76951 7.04753L9.77148 7.04915L9.89835 6.89453ZM9.27725 6.53711L9.19781 6.72066L9.19879 6.72108L9.27725 6.53711ZM8.28116 6.19141L8.22434 6.38317L8.22523 6.38343L8.28116 6.19141ZM7.13858 5.77539L7.05503 5.95711L7.05677 5.95789L7.13858 5.77539ZM6.30655 2.01953L6.43294 2.17454L6.4332 2.17432L6.30655 2.01953ZM10.0448 1.7207L9.94809 1.89576L9.94992 1.89675L10.0448 1.7207ZM11.0702 2.67578L10.8983 2.77793L10.8987 2.77868L11.0702 2.67578ZM11.4218 3.92969V4.12969H11.6218V3.92969H11.4218ZM10.2968 3.92969H10.0968V4.12969H10.2968V3.92969ZM10.0917 3.08008L9.91623 3.17604L9.91687 3.17721L10.0917 3.08008ZM9.47061 2.49414L9.37818 2.67151L9.38017 2.67252L9.47061 2.49414ZM6.83389 2.95117L6.6641 2.84545L6.66268 2.8478L6.83389 2.95117ZM6.75772 4.15234L6.57874 4.24183L6.58178 4.24745L6.75772 4.15234ZM7.11514 4.55664L6.99208 4.71431L6.99393 4.71573L7.11514 4.55664ZM7.73624 4.90234L7.6585 5.08662L7.65952 5.08704L7.73624 4.90234ZM8.64444 5.20703L8.69877 5.01455L8.69797 5.01433L8.64444 5.20703ZM10.7655 6.23242L10.6292 6.37882L10.6319 6.38121L10.7655 6.23242ZM11.2753 6.94141L11.0903 7.01757L11.0918 7.02085L11.2753 6.94141ZM9.68741 9.95898L9.74317 10.1511L9.7445 10.1507L9.68741 9.95898ZM7.30264 9.95312L7.24718 10.1453L7.2477 10.1454L7.30264 9.95312ZM6.26553 9.46094L6.14987 9.6241L6.15084 9.62478L6.26553 9.46094ZM5.52139 8.65234L5.34734 8.7509L5.34879 8.75338L5.52139 8.65234ZM5.246 7.52734V7.32734H5.046V7.52734H5.246ZM6.371 7.52734H6.571V7.32734H6.371V7.52734ZM6.54092 8.2832L6.36472 8.37783L6.36547 8.37921L6.54092 8.2832ZM7.00381 8.79883L6.88912 8.96268L6.89065 8.96373L7.00381 8.79883ZM7.67764 9.10352L7.62629 9.29684L7.62984 9.29772L7.67764 9.10352ZM10.0917 8.56445L9.92873 8.44849L9.92727 8.45061L10.0917 8.56445ZM10.5085 7.84375C10.5085 7.62382 10.474 7.42141 10.3998 7.24049L10.0297 7.39232C10.0805 7.51609 10.1085 7.66524 10.1085 7.84375H10.5085ZM10.402 7.24618C10.329 7.05146 10.1998 6.88318 10.0252 6.73992L9.77148 7.04915C9.90157 7.15588 9.98332 7.26886 10.0275 7.38663L10.402 7.24618ZM10.0272 6.74155C9.85812 6.59919 9.63158 6.47079 9.35571 6.35314L9.19879 6.72108C9.45417 6.82999 9.6417 6.93987 9.76952 7.04751L10.0272 6.74155ZM9.3567 6.35356C9.08468 6.23583 8.74409 6.11793 8.33709 5.99939L8.22523 6.38343C8.62291 6.49926 8.94638 6.61183 9.19781 6.72065L9.3567 6.35356ZM8.33798 5.99965C7.92315 5.87673 7.55082 5.74101 7.22039 5.59289L7.05677 5.95789C7.40603 6.11446 7.79542 6.25608 8.22434 6.38317L8.33798 5.99965ZM7.22213 5.59368C6.895 5.44327 6.61925 5.27417 6.39259 5.08773L6.13848 5.39665C6.3962 5.60864 6.70248 5.79501 7.05503 5.9571L7.22213 5.59368ZM6.39259 5.08773C6.17012 4.90473 6.00308 4.69781 5.88778 4.4672L5.53001 4.64608C5.67251 4.9311 5.87658 5.18121 6.13848 5.39665L6.39259 5.08773ZM5.88778 4.4672C5.77473 4.2411 5.71553 3.97758 5.71553 3.67188H5.31553C5.31553 4.03023 5.38525 4.35656 5.53001 4.64608L5.88778 4.4672ZM5.71553 3.67188C5.71553 3.36822 5.77782 3.09172 5.90049 2.83939L5.54074 2.66451C5.38996 2.97468 5.31553 3.31146 5.31553 3.67188H5.71553ZM5.90049 2.83939C6.02389 2.58553 6.20046 2.36409 6.43294 2.17453L6.18016 1.86453C5.90483 2.08903 5.69077 2.35588 5.54074 2.66451L5.90049 2.83939ZM6.4332 2.17432C6.6698 1.98074 6.95408 1.82773 7.28909 1.71729L7.16385 1.3374C6.78793 1.46133 6.45892 1.63645 6.1799 1.86474L6.4332 2.17432ZM7.28909 1.71729C7.62127 1.60778 7.99619 1.55156 8.41592 1.55156V1.15156C7.96066 1.15156 7.54261 1.21253 7.16385 1.3374L7.28909 1.71729ZM8.41592 1.55156C9.03132 1.55156 9.53912 1.66974 9.94809 1.89575L10.1416 1.54565C9.65992 1.27948 9.08178 1.15156 8.41592 1.15156V1.55156ZM9.94992 1.89675C10.3709 2.12372 10.6844 2.41796 10.8983 2.77793L11.2422 2.57363C10.9873 2.14454 10.6172 1.80206 10.1397 1.54466L9.94992 1.89675ZM10.8987 2.77868C11.1149 3.13897 11.2218 3.52149 11.2218 3.92969H11.6218C11.6218 3.44726 11.4943 2.99384 11.2417 2.57288L10.8987 2.77868ZM11.4218 3.72969H10.2968V4.12969H11.4218V3.72969ZM10.4968 3.92969C10.4968 3.58013 10.4219 3.26265 10.2665 2.98295L9.91687 3.17721C10.0349 3.3897 10.0968 3.63862 10.0968 3.92969H10.4968ZM10.2672 2.98412C10.1093 2.69545 9.87097 2.4729 9.56106 2.31576L9.38017 2.67252C9.62494 2.79663 9.80066 2.96471 9.91623 3.17604L10.2672 2.98412ZM9.56304 2.31678C9.24873 2.15299 8.86282 2.07734 8.41592 2.07734V2.47734C8.8206 2.47734 9.1378 2.54623 9.37818 2.6715L9.56304 2.31678ZM8.41592 2.07734C7.99531 2.07734 7.63214 2.14038 7.33585 2.27747L7.50381 2.6405C7.73096 2.5354 8.03186 2.47734 8.41592 2.47734V2.07734ZM7.33585 2.27747C7.04532 2.41189 6.81714 2.59969 6.66411 2.84546L7.00367 3.05688C7.10846 2.88859 7.2709 2.74826 7.50381 2.6405L7.33585 2.27747ZM6.66268 2.8478C6.51702 3.08904 6.44639 3.36179 6.44639 3.66016H6.84639C6.84639 3.42727 6.90076 3.22736 7.00511 3.05455L6.66268 2.8478ZM6.44639 3.66016C6.44639 3.86827 6.48961 4.06333 6.57884 4.24179L6.93661 4.0629C6.8774 3.94449 6.84639 3.81141 6.84639 3.66016H6.44639ZM6.58178 4.24745C6.67574 4.42128 6.81518 4.57623 6.99209 4.7143L7.2382 4.39898C7.09479 4.28705 6.99595 4.17247 6.93366 4.05724L6.58178 4.24745ZM6.99393 4.71573C7.17481 4.85353 7.39757 4.97654 7.6585 5.08662L7.81398 4.71807C7.5749 4.61721 7.3836 4.50975 7.23635 4.39755L6.99393 4.71573ZM7.65952 5.08704C7.92296 5.19648 8.23384 5.30055 8.59091 5.39973L8.69797 5.01433C8.35191 4.9182 8.05732 4.81915 7.81296 4.71764L7.65952 5.08704ZM8.59011 5.39951C9.06652 5.53398 9.47329 5.68264 9.81213 5.84452L9.98457 5.4836C9.62027 5.30955 9.19111 5.15352 8.69877 5.01455L8.59011 5.39951ZM9.81213 5.84452C10.1499 6.0059 10.4208 6.18474 10.6292 6.3788L10.9018 6.08604C10.6571 5.85823 10.3499 5.65817 9.98457 5.4836L9.81213 5.84452ZM10.6319 6.38121C10.8418 6.56978 10.9933 6.78182 11.0904 7.01756L11.4602 6.86526C11.3386 6.56974 11.1502 6.30912 10.8992 6.08364L10.6319 6.38121ZM11.0918 7.02085C11.1925 7.25371 11.2452 7.52288 11.2452 7.83203H11.6452C11.6452 7.47712 11.5846 7.15254 11.4588 6.86196L11.0918 7.02085ZM11.2452 7.83203C11.2452 8.15196 11.1807 8.4353 11.0554 8.68595L11.4132 8.86483C11.5691 8.55298 11.6452 8.20741 11.6452 7.83203H11.2452ZM11.0554 8.68595C10.9291 8.93859 10.7482 9.15537 10.5096 9.33695L10.7519 9.65523C11.0368 9.43838 11.2582 9.17469 11.4132 8.86483L11.0554 8.68595ZM10.5096 9.33695C10.27 9.51936 9.97811 9.66371 9.63031 9.76731L9.7445 10.1507C10.1311 10.0355 10.4681 9.87127 10.7519 9.65523L10.5096 9.33695ZM9.63165 9.76692C9.2895 9.86625 8.90243 9.91719 8.46866 9.91719V10.3172C8.93332 10.3172 9.35875 10.2627 9.74317 10.1511L9.63165 9.76692ZM8.46866 9.91719C8.09288 9.91719 7.7227 9.86514 7.35759 9.76082L7.2477 10.1454C7.64821 10.2599 8.05537 10.3172 8.46866 10.3172V9.91719ZM7.35811 9.76097C6.99964 9.6575 6.67407 9.50278 6.38023 9.29709L6.15084 9.62478C6.482 9.85659 6.84783 10.03 7.24718 10.1453L7.35811 9.76097ZM6.38119 9.29777C6.09532 9.09513 5.86686 8.84662 5.694 8.55131L5.34879 8.75338C5.55092 9.09869 5.81856 9.38925 6.14987 9.6241L6.38119 9.29777ZM5.69543 8.55379C5.53116 8.2637 5.446 7.92359 5.446 7.52734H5.046C5.046 7.98266 5.14444 8.39255 5.34736 8.75089L5.69543 8.55379ZM5.246 7.72734H6.371V7.32734H5.246V7.72734ZM6.171 7.52734C6.171 7.84603 6.2327 8.13198 6.36473 8.37783L6.71712 8.18858C6.62259 8.01255 6.571 7.79459 6.571 7.52734H6.171ZM6.36547 8.37921C6.49367 8.61351 6.66888 8.8085 6.88912 8.96267L7.11851 8.63498C6.94813 8.51572 6.81474 8.36696 6.71638 8.1872L6.36547 8.37921ZM6.89065 8.96373C7.10999 9.11426 7.35578 9.22496 7.6263 9.29681L7.72899 8.91022C7.4995 8.84926 7.29608 8.75683 7.11698 8.63393L6.89065 8.96373ZM7.62984 9.29772C7.90009 9.36424 8.17985 9.39727 8.46866 9.39727V8.99727C8.21059 8.99727 7.96301 8.96779 7.72545 8.90931L7.62984 9.29772ZM8.46866 9.39727C8.88049 9.39727 9.24129 9.34034 9.54489 9.2189L9.39633 8.84751C9.15306 8.94482 8.84589 8.99727 8.46866 8.99727V9.39727ZM9.54489 9.2189C9.84767 9.09779 10.0892 8.91947 10.2561 8.6783L9.92727 8.45061C9.81299 8.61568 9.64043 8.74987 9.39633 8.84751L9.54489 9.2189ZM10.2547 8.6804C10.426 8.43964 10.5085 8.15777 10.5085 7.84375H10.1085C10.1085 8.08442 10.0465 8.28302 9.92875 8.4485L10.2547 8.6804Z" fill="black"/>
<mask id="path-3-outside-1_2_39" maskUnits="userSpaceOnUse" x="0" y="1" width="9" height="13" fill="black">
<rect fill="white" y="1" width="9" height="13"/>
<path fill-rule="evenodd" clip-rule="evenodd" d="M7.28877 9.66406C7.24713 10.0233 7.15282 10.3324 7.00586 10.5913C6.80078 10.9526 6.5127 11.2212 6.1416 11.397C5.77539 11.5728 5.3457 11.6606 4.85254 11.6606C4.36426 11.6606 3.93457 11.5728 3.56348 11.397C3.19727 11.2212 2.91162 10.9526 2.70654 10.5913C2.50146 10.23 2.39893 9.771 2.39893 9.21436V2H1V9.21436C1 10.0151 1.16846 10.6816 1.50537 11.2139C1.84717 11.7461 2.30859 12.1465 2.88965 12.415C3.47559 12.6787 4.12988 12.8105 4.85254 12.8105C5.54102 12.8105 6.17822 12.6787 6.76416 12.415C7.35498 12.1465 7.82861 11.7461 8.18506 11.2139C8.47254 10.7846 8.64409 10.268 8.69971 9.66406H7.28877Z"/>
</mask>
<path fill-rule="evenodd" clip-rule="evenodd" d="M7.28877 9.66406C7.24713 10.0233 7.15282 10.3324 7.00586 10.5913C6.80078 10.9526 6.5127 11.2212 6.1416 11.397C5.77539 11.5728 5.3457 11.6606 4.85254 11.6606C4.36426 11.6606 3.93457 11.5728 3.56348 11.397C3.19727 11.2212 2.91162 10.9526 2.70654 10.5913C2.50146 10.23 2.39893 9.771 2.39893 9.21436V2H1V9.21436C1 10.0151 1.16846 10.6816 1.50537 11.2139C1.84717 11.7461 2.30859 12.1465 2.88965 12.415C3.47559 12.6787 4.12988 12.8105 4.85254 12.8105C5.54102 12.8105 6.17822 12.6787 6.76416 12.415C7.35498 12.1465 7.82861 11.7461 8.18506 11.2139C8.47254 10.7846 8.64409 10.268 8.69971 9.66406H7.28877Z" fill="black"/>
<path d="M7.00586 10.5913L6.83192 10.4926L6.83192 10.4926L7.00586 10.5913ZM7.28877 9.66406V9.46406H7.11062L7.0901 9.64103L7.28877 9.66406ZM6.1416 11.397L6.05598 11.2162L6.05506 11.2167L6.1416 11.397ZM3.56348 11.397L3.47693 11.5773L3.47786 11.5777L3.56348 11.397ZM2.39893 2H2.59893V1.8H2.39893V2ZM1 2V1.8H0.8V2H1ZM1.50537 11.2139L1.33638 11.3208L1.33709 11.3219L1.50537 11.2139ZM2.88965 12.415L2.80574 12.5966L2.80758 12.5974L2.88965 12.415ZM6.76416 12.415L6.84623 12.5974L6.84692 12.5971L6.76416 12.415ZM8.18506 11.2139L8.01888 11.1026L8.01888 11.1026L8.18506 11.2139ZM8.69971 9.66406L8.89887 9.6824L8.91898 9.46406H8.69971V9.66406ZM7.1798 10.69C7.34251 10.4033 7.44335 10.0674 7.48744 9.68709L7.0901 9.64103C7.0509 9.97921 6.96313 10.2614 6.83192 10.4926L7.1798 10.69ZM6.22722 11.5777C6.63595 11.3841 6.95467 11.0867 7.1798 10.69L6.83192 10.4926C6.64689 10.8186 6.38944 11.0583 6.05598 11.2162L6.22722 11.5777ZM4.85254 11.8606C5.36936 11.8606 5.82977 11.7685 6.22815 11.5773L6.05506 11.2167C5.72101 11.377 5.32205 11.4606 4.85254 11.4606V11.8606ZM3.47786 11.5777C3.88031 11.7684 4.34018 11.8606 4.85254 11.8606V11.4606C4.38833 11.4606 3.98884 11.3772 3.64909 11.2162L3.47786 11.5777ZM2.53261 10.69C2.75733 11.086 3.07307 11.3834 3.47693 11.5773L3.65002 11.2167C3.32146 11.059 3.06592 10.8193 2.88048 10.4926L2.53261 10.69ZM2.19893 9.21436C2.19893 9.79427 2.30561 10.2901 2.53261 10.69L2.88048 10.4926C2.69732 10.1699 2.59893 9.74772 2.59893 9.21436H2.19893ZM2.19893 2V9.21436H2.59893V2H2.19893ZM1 2.2H2.39893V1.8H1V2.2ZM1.2 9.21436V2H0.8V9.21436H1.2ZM1.67436 11.1069C1.36253 10.6143 1.2 9.98744 1.2 9.21436H0.8C0.8 10.0428 0.974379 10.749 1.33638 11.3208L1.67436 11.1069ZM2.97356 12.2335C2.42661 11.9807 1.99463 11.6056 1.67366 11.1058L1.33709 11.3219C1.69971 11.8866 2.19058 12.3123 2.80574 12.5966L2.97356 12.2335ZM4.85254 12.6105C4.15464 12.6105 3.52881 12.4833 2.97172 12.2327L2.80758 12.5974C3.42236 12.8741 4.10512 13.0105 4.85254 13.0105V12.6105ZM6.68209 12.2327C6.12376 12.4839 5.51478 12.6105 4.85254 12.6105V13.0105C5.56726 13.0105 6.23268 12.8735 6.84623 12.5974L6.68209 12.2327ZM8.01888 11.1026C7.68341 11.6035 7.23885 11.9796 6.6814 12.233L6.84692 12.5971C7.47111 12.3134 7.97382 11.8887 8.35123 11.3252L8.01888 11.1026ZM8.50056 9.64572C8.44746 10.2222 8.28479 10.7055 8.01888 11.1026L8.35123 11.3252C8.66029 10.8637 8.84072 10.3138 8.89887 9.6824L8.50056 9.64572ZM8.69971 9.46406H7.28877V9.86406H8.69971V9.46406Z" fill="black" mask="url(#path-3-outside-1_2_39)"/>
</svg>
