<svg xmlns="http://www.w3.org/2000/svg" width="224" height="58" fill="#000" xmlns:v="https://vecta.io/nano"><path d="M1.728 18.98c.756.756 1.512 1.296 1.8 1.296.396 0 .756-.288.756-.648 0-.216-.108-.288-.396-.396-.36-.072-.36-.108-.324-.612.036-.684.468-1.728 1.26-3.024.972-1.656 1.836-2.772 3.564-4.5 1.62-1.62 2.772-2.556 4.068-3.312.792-.432 2.268-1.08 2.376-.972.18.144-1.872 3.636-4.5 7.632-4.104 6.3-5.544 8.892-6.48 11.7-.324.972-.432 1.512-.468 2.376-.108 1.404.036 1.836.756 2.628.612.612 1.044.9 1.476.9.144 0 .432.18.684.432 1.152 1.224 2.196.972 4.464-1.08 1.62-1.476 5.184-5.328 7.38-7.992l.36-.468-.36.972c-1.296 3.456-1.512 5.796-.756 7.272.504 1.044 1.008 1.476 3.096 2.952.468.288.756.324.972.072.108-.144.108-.216-.036-.432-.216-.324-.396-1.836-.36-3.276 0-.9.072-1.332.396-2.268 1.404-4.428 3.312-8.1 8.964-17.46 2.196-3.672 2.52-4.248 2.664-4.716.108-.432.036-.72-.18-.72-.072 0-.18-.144-.216-.36-.036-.18-.108-.324-.18-.288s-.144 0-.18-.108c-.036-.072-.144-.144-.252-.108-.108.072-.144 0-.144-.18s-.108-.252-.252-.252c-.18 0-.252-.072-.216-.18.036-.396-.036-.432-.252-.216-.216.18-.216.18-.072-.252.108-.36.108-.432-.108-.576-.144-.108-.324-.18-.432-.144s-.216.036-.252-.036c-.072-.252-.54.18-.828.72-.504 1.152-2.196 3.708-3.6 5.544l-3.276 4.5c-4.392 6.156-7.02 9.396-9.972 12.348-1.8 1.8-4.536 4.068-4.968 4.068-.072 0-.036-.288.036-.684.54-2.304 2.232-5.508 5.724-10.908 4.212-6.516 5.328-8.748 5.472-10.764.108-1.188-.144-1.728-1.296-2.916a16.42 16.42 0 0 1-1.188-1.26c-.648-.792-1.62-1.044-3.024-.72-3.096.72-8.064 5.22-11.016 10.008-1.764 2.844-2.016 5.076-.684 6.408zm22.068 2.304a59.27 59.27 0 0 0-1.548 3.168c-.252.648-.756 1.908-1.044 2.844-.324.9-.576 1.548-.576 1.44 0-.36.936-3.024 1.512-4.284.648-1.476 2.124-4.428 2.484-5.004.396-.612.288-.36-.828 1.836zm1.296-2.52c-.072.108-.144.216-.18.216s0-.108.072-.216c.072-.144.144-.252.18-.252s0 .108-.072.252zm1.368-2.448c-.144.288-.468.864-.72 1.296-.432.792-.684 1.116-.324.396s1.224-2.196 1.296-2.196c.036 0-.072.216-.252.504zm4.104-10.62c.108-.144.252-.216.288-.216 0 0-.072.072-.18.216s-.216.252-.252.252.036-.108.144-.252zm-.468-.144c.216-.36.36-.432.18-.108-.072.144-.18.288-.252.324s-.036-.072.072-.216zm2.088 1.044c.216-.216-.144.396-2.124 3.672l-2.592 4.356c-.36.576-.648 1.08-.684 1.08-.144 0 5.112-8.856 5.4-9.108zm-2.556 1.908c.072 0-.144.396-.576 1.152-.216.288-1.224 1.98-2.232 3.672-3.528 6.084-5.292 9.468-6.444 12.708-.612 1.584-.792 2.016-.612 1.368.504-2.196 2.376-6.3 4.896-10.692 1.512-2.664 4.86-8.208 4.968-8.208zm-.936-.72c.144-.18.288-.288.288-.252s-.144.216-.288.432c-.18.18-.288.288-.288.252s.108-.216.288-.432zm-1.152 3.132c0 .036-.36.684-.864 1.512-2.952 4.788-5.4 9.432-6.66 12.78a66.92 66.92 0 0 0-.828 2.484c-.288 1.152-.324 1.188-.252.54.108-1.44 1.296-4.5 3.096-8.064 1.836-3.636 5.292-9.468 5.508-9.252zm-3.312 4.428c.144-.108.108-.036-.036.216a84.14 84.14 0 0 0-2.088 3.78 101.95 101.95 0 0 0-1.656 3.456c-.432.972-1.044 2.556-1.368 3.492s-.576 1.584-.576 1.44c0-.432.864-2.88 1.548-4.464 1.152-2.628 3.672-7.452 4.176-7.92zm-3.24 2.124c.144-.216.252-.36.288-.36s-.036.144-.18.36c-.144.18-.288.36-.324.36s.072-.18.216-.36zm-.396.576c.18-.144.18-.144.036.036s-.252.252-.252.144c0 0 .108-.108.216-.18zm-.36.468c.18-.144.216-.144.072.036-.18.18-.252.252-.252.144 0 0 .072-.108.18-.18zm-.828 1.584c.432-.576.828-1.116.9-1.152.216-.216-.288.54-.684 1.044-.792 1.008-.972 1.116-.216.108zM18 21.896c.18-.144.216-.108.036.072-.144.18-.216.252-.216.144 0-.036.072-.108.18-.216zm-.576.72c.18-.144.18-.144.036.036-.144.216-.252.252-.252.18 0-.036.108-.108.216-.216zM4.752 28.808c0-.432.36-1.728.72-2.592.36-.828.396-.756.108.144-.144.36-.396 1.152-.54 1.728-.18.648-.288.936-.288.72zm2.412.396l-.18.648.072-.576c.072-.504.288-1.152.288-.828 0 .072-.108.432-.18.756zm-.18-2.628c0-.072.072-.216.108-.288.072-.108.108-.144.108-.072a.48.48 0 0 1-.108.288c-.036.108-.108.144-.108.072zm.432 1.656c-.036.036-.072 0-.072-.144s.036-.144.072-.072.036.18 0 .216zm-.432-2.304c-.144.36-.432 1.188-.648 1.872-.252.792-.396 1.116-.396.9 0-.576.864-2.988 1.62-4.536.396-.756 1.152-2.16 1.692-3.024.972-1.584 1.44-2.34 3.996-6.264 1.116-1.728 2.628-4.212 3.06-5.004.108-.18.18-.288.18-.252.036.288-1.512 2.952-3.024 5.292l-3.348 5.22c-1.152 1.8-2.664 4.608-3.132 5.796zm6.048-9.792c-.18.18-.18.18-.036-.036.072-.144.18-.252.216-.216s-.036.144-.18.252zm.684-1.008c-.108.108-.18.216-.216.216-.108 0-.036-.108.144-.252.216-.144.216-.144.072.036zM17.748 9.8c-.144.468-.828 1.8-1.548 3.06-.36.576-.72 1.116-.792 1.152-.036.036.036-.18.216-.468.18-.252.756-1.296 1.26-2.268s.9-1.62.864-1.476zm-.972-2.268c-.144.684-.648 1.764-1.404 3.096-.792 1.368-1.188 1.98-3.528 5.58-3.636 5.508-5.148 8.28-5.94 10.692l-.468 1.8-.216 1.044.036-.864c.108-1.584.972-3.708 2.88-7.056.612-1.08 1.188-2.088 1.332-2.232.18-.324 3.492-5.472 4.176-6.588.216-.36.684-1.08 1.008-1.584.324-.54.936-1.692 1.404-2.592.432-.936.792-1.512.72-1.296zm-.576.036c-.216.936-1.512 3.24-3.564 6.408-.648 1.044-1.26 1.944-1.332 2.016s-.036-.036.108-.252c2.556-4.068 3.6-5.796 4.356-7.38.288-.612.468-.936.432-.792zm-9.144 2.484c.396-.36.396-.36-.072.18-.864.972-1.836 2.196-2.52 3.276-.36.576-.936 1.548-1.26 2.232-.324.648-.54 1.044-.504.9.108-.504.936-2.124 1.476-3.024.648-1.008 2.268-2.988 2.88-3.564zm-2.232 1.872c.216-.144.216-.144.072.036-.18.18-.252.252-.252.18 0-.036.072-.144.18-.216zm-.648 1.044c-.252.36-.684 1.116-.972 1.656-.252.54-.612 1.332-.756 1.764s-.288.648-.288.504c0-.648.972-2.628 1.98-4.032.576-.792.576-.72.036.108zm-1.62 2.016a9.86 9.86 0 0 0-.396 1.008c-.108.324-.216.504-.216.432-.036-.216.432-1.368.648-1.62.144-.18.144-.144-.036.18zm35.677.36c-.684-1.008-2.304-1.44-3.6-1.008-1.656.54-3.456 2.484-4.032 4.356-.54 1.836.036 3.744 1.656 5.364 1.224 1.26 1.368 1.44 1.296 2.124-.144 1.368-1.476 3.024-3.132 3.852-.792.396-1.008.468-1.8.468-.468 0-1.008.036-1.152.108-.396.108-.468.576-.108 1.044.396.54 2.34 2.412 2.7 2.556.144.072.684.108 1.188.072.792 0 1.008-.072 2.124-.648 1.008-.468 1.404-.756 2.016-1.404 1.44-1.44 2.124-3.348 1.728-4.824-.18-.684-.972-1.836-1.98-2.916-1.044-1.044-1.26-1.548-1.152-2.376.144-1.224 1.404-2.916 2.628-3.564 1.152-.612 1.152-.612 1.152.216 0 .612.036.72.324 1.044.18.18.324.396.324.468 0 .216.36.252.648.072.432-.252.9-1.116.972-1.8.072-.72-.18-1.368-.936-2.16-.288-.288-.684-.792-.864-1.044zm-1.872 14.4s0 .108-.072.288c-.144.324-.468.864-.468.72s.468-1.008.54-1.008zm-4.32-10.764c0-.18.972-1.548 1.152-1.692.072-.036-.144.36-.468.864-.72 1.08-.684 1.044-.684.828zm.288.54c.108-.468.54-1.188 1.152-1.836.612-.72.756-.648.18.036-.216.288-.648.9-.9 1.332-.36.576-.468.72-.432.468zm3.024 9.684c0 .072-.18.36-.36.684-.216.288-.504.612-.648.72-.216.108-.108-.072.324-.612.72-.972.684-.936.684-.792zm-.252-1.26c.18 0-.072.684-.468 1.296-.288.468-.828 1.044-.828.9l.54-.828c.288-.432.54-.9.576-1.08.036-.144.108-.288.18-.288zm-.468.072c0 .108-.144.432-.288.72-.288.504-.432.612-.396.432 0-.216.684-1.368.684-1.152zm-.54-7.704c-.36.612-.396.648-.396.504s.576-1.008.648-1.008c.036 0-.072.252-.252.504zm-.108-1.548c.108-.144.252-.252.288-.252s-.036.108-.18.252c-.108.144-.216.252-.252.252s.036-.108.144-.252zm.54-.972c-.36.36-.864 1.008-1.116 1.368-.54.828-.648.864-.216.072.36-.72 1.08-1.548 1.62-1.908.252-.18.18-.072-.288.468zm7.026 11.772c.36.756 1.188 1.62 1.512 1.62.144 0 .504.252.828.54.9.828 1.476.684 2.844-.72.648-.72 2.52-3.096 3.348-4.284l.576-.864.072.9c.18 1.62.864 2.916 1.836 3.384.288.144.54.324.576.432.18.468 1.404.648 1.944.288 1.404-.936 3.348-3.564 6.948-9.468.9-1.512 1.08-2.124.252-.972-.252.36-.504.648-.504.612 0-.072.216-.36.432-.684.252-.324.396-.648.36-.684s-.396.432-.792.972c-2.232 3.06-3.348 4.5-4.572 5.76-1.188 1.224-2.772 2.556-2.88 2.412-.108-.072.18-1.332.54-2.52.18-.648.756-2.16 1.224-3.384 1.044-2.628 1.44-4.032 1.44-4.788 0-.504-.036-.612-.396-.936-.252-.216-.468-.36-.54-.324-.036.036-.108 0-.144-.108s-.144-.18-.252-.144-.18 0-.18-.108c0-.18-.036-.18-.252.036-.252.216-.252.216-.108-.036.18-.396.144-.612-.108-.684-.468-.144-.828.036-1.188.648-.36.54-.576.756-.576.468 0-.072-.108-.144-.252-.18s-.612-.396-1.008-.756c-.576-.576-.828-.72-1.26-.792-1.008-.144-2.412.324-3.6 1.188-2.988 2.196-6.732 9.072-6.48 11.88.036.36.216.936.36 1.296zm19.44-7.308c.072.036.144-.072.144-.18.036-.108.072-.252.108-.288.072-.036.072.036.036.18-.036.36-.252.576-.36.396-.036-.072-.036-.108.072-.108zm-.504 1.008c.18-.144.18-.144.036.072-.18.18-.252.252-.252.144 0-.036.072-.108.216-.216zm-.504.36c.036-.072.288-.036.288.072 0 0-.072.036-.18.036s-.144-.036-.108-.108zm-1.152 1.62a.48.48 0 0 1 .288-.108c.072 0 .144-.108.18-.18.036-.108 0-.144-.108-.072s-.108.036-.072 0c.072-.072.144-.108.216-.108s.18-.072.216-.18 0-.144-.144-.072c-.108.108-.108.072 0-.072s.216-.18.288-.144c.108.072-.216.684-.468.9-.216.18-.576.252-.396.036zm-.252.468c-.072.072-.108.036-.036 0 .036-.072.144-.108.252-.144.144 0 .144.036.036.216a.67.67 0 0 1-.252.288c-.108.072-.108.036 0-.072.072-.108.144-.216.144-.252 0-.072-.072-.072-.144-.036zm-.504.54c.108-.144.252-.252.288-.252s-.036.108-.18.252c-.108.108-.216.216-.252.216s.036-.108.144-.216zm-.54.684c.18-.144.18-.144.036.036-.144.216-.252.252-.252.18 0-.036.072-.144.216-.216zm-12.42 1.188c-.072.216-.144.612-.252.864l-.144.504.072-.54c.036-.288.144-.684.216-.9l.18-.324-.072.396zm4.572-2.088c-.18.18-.252.252-.252.144 0 0 .072-.108.18-.18.18-.144.216-.144.072.036zm.324-.468c-.144.18-.252.252-.252.144 0 0 .108-.108.216-.18.18-.18.18-.144.036.036zm6.732-6.12c.36-.72-.108.684-.684 2.088-.36.864-.936 2.376-1.296 3.348-.648 1.872-.792 2.124-.396.72.216-.72 2.052-5.472 2.376-6.156zm-.9-.504c.072 0-.252.792-.9 2.268-.288.648-.72 1.656-.936 2.196-.54 1.404-.576 1.476-.576 1.404-.036-.432 2.196-5.868 2.412-5.868zm-1.62 2.016c.18-.216.072.144-.396 1.332-.36.9-.828 2.232-1.008 2.952-.252.936-.324 1.116-.288.684.18-1.404 1.116-4.284 1.692-4.968zm-1.08 1.62c-.072.072-.288.684-.504 1.332-.216.684-.36 1.008-.324.72.108-.72.504-1.908.72-2.052.18-.144.18-.144.108 0zm-1.476-3.348c.432-.288.864-.576.972-.612.36-.144.288.324-.324 1.548-1.008 1.98-4.608 6.768-6.12 8.136-.324.288-.612.54-.684.54-.144 0 .576-1.944 1.26-3.384 1.296-2.664 3.204-5.112 4.896-6.228zm-3.888.864l.468-.504-.504.684c-1.26 1.728-2.124 3.168-2.736 4.68-.252.54-.612 1.512-.828 2.16s-.396 1.08-.396.936c-.036-.54.72-2.592 1.404-3.96.828-1.584 1.872-3.204 2.592-3.996zm-1.368.828c.036 0-.072.252-.288.54-.504.756-1.584 2.808-2.016 3.888-.216.504-.54 1.512-.72 2.232-.252 1.008-.324 1.188-.324.828 0-1.296 1.152-4.14 2.664-6.48.324-.54.648-1.008.684-1.008zm-3.78 6.84c.144-.684.54-1.908.792-2.34.144-.252.18-.324.144-.18-.036.108-.252.792-.468 1.512-.432 1.332-.612 1.728-.468 1.008zm36.952-7.056c-.612.9-2.664 4.104-2.736 4.32-.18.396.108.072.72-.936.36-.612 1.116-1.728 1.692-2.556 1.008-1.476 1.296-2.16.324-.828zm11.808.756l-.504.468.396-.468c.612-.756.288-.648-.432.18-.36.432-1.08 1.224-1.62 1.764-.504.54-1.224 1.404-1.584 1.908-1.26 1.656-3.276 4.068-4.284 5.004-1.044 1.008-1.98 1.836-2.16 1.836-.144 0 .036-.972.432-2.088.18-.612 1.008-2.52 1.8-4.32 1.62-3.564 2.124-4.932 2.34-6.228.18-1.296.036-1.692-.972-2.7-.432-.432-.828-.864-.828-.936 0-.288-.504-.612-1.008-.612-.432 0-.576.072-1.08.54-.828.756-1.44 1.62-3.096 4.284-3.996 6.444-5.616 8.892-5.364 8.028.144-.396.936-2.16 2.16-4.752 1.296-2.736 1.692-3.78 1.764-4.788.072-1.044-.216-1.656-1.188-2.232-.252-.144-.576-.468-.72-.72-.324-.504-.684-.648-1.224-.54-.864.216-3.06 3.168-5.832 7.92-1.512 2.52-2.988 4.824-3.384 5.184-.288.252-.288.252-.036-.54.432-1.512 1.98-4.752 3.06-6.444.72-1.152 1.584-2.988 1.584-3.492 0-.252-.072-.432-.108-.432-.072 0-.144-.108-.18-.252-.072-.144-.144-.216-.252-.18s-.18 0-.18-.072-.072-.072-.18.036c-.18.144-.18.144-.108-.108.072-.216.036-.252-.18-.252-.144 0-.216-.072-.216-.216 0-.36-.468-.72-.864-.72-1.26 0-2.772 1.908-4.824 6.192-1.404 2.916-2.088 5.184-1.944 6.48.108 1.224 1.116 2.808 1.836 2.952.18.036.432.252.612.504.216.288.468.468.648.54.756.144 1.188-.396 3.672-4.356 1.656-2.628 3.924-5.94 4.068-5.94.036 0-.108.504-.324 1.188-1.116 3.204-1.368 5.436-.792 6.768.252.54.792 1.224 1.008 1.224.108 0 .288.18.468.396.648.864 1.296.612 2.484-.9.864-1.116 2.304-3.24 3.42-5.076.792-1.296 2.376-3.6 2.484-3.6.036 0-.288.648-.648 1.44-1.476 3.06-2.052 6.3-1.404 8.244.288.936.972 1.8 1.548 1.908.216.072.54.288.756.504.504.54 1.08.54 1.836 0 1.224-.864 2.988-2.988 5.472-6.552.468-.612 1.008-1.404 1.224-1.728.252-.324.648-.972.9-1.404.288-.468.828-1.332 1.26-1.908.432-.612.792-1.152.792-1.26 0-.072-.216.072-.504.324zm-22.608-2.988c.216-.36.324-.54.288-.396-.072.324-.648 1.332-.648 1.152 0-.072.18-.396.36-.756zM66.731 20.6c-.108.18-.216.324-.252.324s.036-.144.108-.324c.108-.216.216-.36.252-.36s-.036.144-.108.36zm1.008-1.728c-.072.144-.216.36-.324.468l-.18.252.108-.252a11.81 11.81 0 0 1 .324-.468l.18-.216-.108.216zm.324-.54c-.072.144-.144.252-.18.252s0-.108.072-.252c.072-.108.144-.216.18-.216s0 .108-.072.216zm-5.652 7.416c.576-1.656 2.556-5.688 3.24-6.516.108-.144.036.072-.144.396-.612 1.08-1.872 3.564-2.196 4.392-.18.396-.54 1.296-.792 1.98-.54 1.512-.612 1.296-.108-.252zm1.008-.648c-.252.648-.576 1.62-.72 2.196-.144.54-.252.864-.288.72 0-.756.72-2.988 1.584-4.824.936-2.052 2.988-5.436 3.456-5.796.18-.144.18-.108-.036.18-1.764 2.736-3.168 5.436-3.996 7.524zm.108 1.044c.432-1.476 1.8-4.248 3.24-6.66.972-1.656 1.26-2.052 1.368-1.944 0 .036-.288.576-.684 1.224-1.476 2.376-2.88 5.004-3.564 6.732-.324.828-.504 1.152-.36.648zm.864 1.44c-.036.18-.072.216-.072.036-.036-.36.576-1.872 1.44-3.6.432-.9.828-1.656.864-1.62s-.252.648-.612 1.368-.864 1.8-1.116 2.448a40.32 40.32 0 0 0-.504 1.368zm.864 2.124c-.144.18-.252.252-.252.144 0-.036.108-.108.216-.216.18-.144.18-.144.036.072zm.36-.504c-.144.216-.252.288-.252.18 0-.036.108-.108.216-.216.18-.144.18-.144.036.036zm.72-1.404c-.18.216-.252.252-.252.18 0-.036.072-.144.18-.216.216-.144.216-.144.072.036zm.324-.504c-.072.144-.144.252-.18.252s0-.108.072-.252c.072-.108.144-.216.18-.216s0 .108-.072.216zm.576-.936c-.072.144-.144.252-.18.252s0-.108.072-.252.144-.216.18-.216 0 .072-.072.216zm.9-.972c-.036.036-.108.108-.144.108-.072 0-.18.036-.252.072-.144.108-.144.072 0-.144.072-.144.18-.18.18-.108.036.036.108.072.18.036.108-.072.108-.036.036.036zm14.184 1.44c-.036.108-.108.144-.108.072s.072-.216.108-.288c.072-.108.144-.144.144-.072s-.072.18-.144.288zm1.98-4.536c.036 0-.072.324-.18.648-.252.612-1.692 3.6-1.62 3.348.036-.216 1.764-4.032 1.8-3.996zm-8.964 4.896c.216-.18.216-.144.072.036-.18.18-.252.252-.252.144 0 0 .072-.108.18-.18zm-.54.72c.324-.432.36-.468.288-.144-.036.036-.036.072-.036.072l-.252.252-.288.216.288-.396zm1.224-7.128c.18-.432.36-.756.396-.756.072.108-.612 1.728-1.548 3.636l-1.26 2.736c-.216.468-.396.864-.432.9-.216.252.576-1.62 1.692-3.996.468-.936.972-2.088 1.152-2.52zm-.684-1.224c.036.036-.432 1.152-1.008 2.448l-1.116 2.448c-.144.144 0-.252.756-1.944l1.08-2.412c.144-.324.288-.54.288-.54zm-.828-.828c.036.036-.288.864-.72 1.836-.432.936-1.044 2.412-1.368 3.204-.324.828-.612 1.512-.648 1.512-.216.252.576-1.836 1.476-3.96.972-2.232 1.188-2.664 1.26-2.592zm-3.276 1.476c.18-.144.18-.144.036.072-.144.18-.252.252-.252.144 0-.036.108-.108.216-.216zm-.468.576c.108-.072.036.108-.144.36-.18.288-.36.504-.396.504-.072 0 .36-.72.54-.864zm-.72 1.08c.18-.144.18-.144.036.036-.144.216-.252.288-.252.18 0-.036.108-.108.216-.216zm-1.548 2.484c-.036 0-.036-.108.036-.216.072-.144.18-.252.216-.252 0 0 0 .108-.072.252-.072.108-.18.216-.18.216zm.396-.108c-.072.144-.144.252-.18.252s0-.108.072-.252c.072-.108.144-.216.18-.216s0 .108-.072.216zm.36-.576c-.144.288-.252.288-.144.036.072-.18.036-.216-.144-.072-.144.144-.18.144-.108 0 .036-.108.144-.18.288-.18.18 0 .18.072.108.216zm.9-1.368c-.324.468-.54.684-.504.54.072-.288.072-.288-.108-.072-.108.144-.144.288-.108.396a.36.36 0 0 1 .036.144c-.288-.108-.288-.18-.036-.612.324-.468.432-.576.324-.288-.144.396.108.144.576-.54.54-.828 2.196-2.916 2.304-2.916.036 0-.072.18-.252.36-.72.864-1.692 2.232-2.232 2.988zm1.908 3.816c-.324.936-.54 1.512-.504 1.26.216-1.332 1.476-4.536 3.384-8.676.144-.288.252-.432.288-.324.036.072-.54 1.476-1.26 3.096s-1.584 3.708-1.908 4.644zm.9-1.296c.072-.144.108-.216.144-.18.036.072 0 .144-.072.216-.108.144-.108.108-.072-.036zm1.476 4.248c-.072.108-.396.468-.72.828l-.576.648.648-.828c.648-.828.9-1.08.648-.648zm.036-.54c-.18.18-.252.252-.252.144 0 0 .072-.108.18-.18.18-.144.216-.144.072.036zm.324 0c-.072.108-.18.216-.18.216-.108 0-.036-.108.144-.252s.18-.144.036.036zm.864-1.26c-.288.54-.792 1.116-.684.828l.072-.216c.036 0 .072-.036.18-.144.108-.144.324-.396.432-.54.18-.288.18-.288 0 .072zm1.26-1.944c-.684 1.152-1.116 1.728-.972 1.332.072-.216.036-.216-.144-.036-.216.144-.216.144-.072-.108.144-.288.396-.468.288-.216-.144.36.036.18.432-.396.216-.324.36-.612.324-.648s-.18.108-.324.36c-.144.216-.288.396-.324.396s0-.108.108-.252.54-.864.972-1.584c.468-.684 1.296-1.98 1.872-2.844.54-.864.972-1.62.936-1.692s-.036-.108.036-.072.396-.252.72-.684c.288-.396.612-.792.72-.792.072-.036-.18.324-.576.792-.396.504-.684.972-.684 1.044s.144-.072.36-.324.612-.684.864-.936c.432-.468.432-.468-.072.18-1.116 1.368-2.988 4.104-4.464 6.48zm2.304 3.852c-.108.504-.216.936-.252.936-.216.216.288-1.98.72-3.276.216-.648.936-2.304 1.584-3.708l1.548-3.42c.468-1.116.648-1.404.36-.54-.324.972-1.152 2.88-1.8 4.176-1.08 2.124-1.8 4.14-2.16 5.832zm.36.648c-.216 1.26-.36 1.512-.252.432.18-1.692.864-3.816 2.088-6.336 1.08-2.268 2.052-4.428 2.196-4.932.108-.216.18-.396.216-.36.18.18-.792 2.52-2.304 5.616-.972 2.016-1.692 4.104-1.944 5.58zm.36.576c-.036.072-.072.036-.072-.144 0-.144.036-.216.072-.144a.4.4 0 0 1 0 .288zm.36-1.44c-.18.54-.324.936-.324.828 0-.288.54-2.088.936-3.132s2.16-4.68 2.196-4.608c.072.072-.504 1.404-.936 2.304-.216.432-.648 1.404-1.008 2.196-.324.792-.72 1.872-.864 2.412zm.576 1.512c.216-.864.864-2.7.936-2.628.036 0-.036.252-.144.504s-.36 1.044-.576 1.8c-.396 1.404-.54 1.584-.216.324zm3.348.18c-.072.108-.18.18-.18.18-.108 0-.036-.072.144-.216.18-.18.18-.144.036.036zm.756-.864c-.108.144-.252.252-.252.252-.036 0 .036-.108.144-.252s.252-.252.252-.252c.036 0-.036.108-.144.252zm.468-.576c-.108.108-.216.216-.252.216s.036-.108.144-.216c.108-.144.252-.252.288-.252 0 0-.036.108-.18.252zm1.008-1.296c-.144.216-.216.288-.216.18 0-.036.072-.108.18-.216.18-.144.216-.144.036.036zm.36-.468c-.144.216-.252.288-.252.18 0-.036.108-.108.216-.216.18-.144.18-.144.036.036zm.144-.252c-.036 0 .072-.144.216-.36.144-.18.252-.36.288-.36s-.036.18-.18.36c-.144.216-.288.36-.324.36zm.684-.432l-.288.252.216-.252c.216-.252.216-.324.072-.396-.108-.072-.144-.108-.036-.108.072 0 .18.036.216.108s-.036.252-.18.396zm1.044-1.44c-.108.216-.468.54-.468.396 0-.036-.072 0-.18.072-.108.108-.072-.036.108-.252.324-.432.756-.612.54-.216zm.468-.648c-.144.144-.288.252-.396.252-.144 0-.144-.036-.036-.18.072-.072.144-.108.18-.108.036.036.144 0 .252-.072.144-.108.144-.072 0 .108zm.468-.648c-.108.144-.252.288-.288.288a.39.39 0 0 0-.252.108c-.108.036-.108-.036.036-.216.216-.36.288-.396.216-.108-.036.144 0 .108.18-.072l.288-.324-.18.324zm.324-.648c0 .18-.036.216-.108.036-.072-.036-.036-.108 0-.144.072-.036.108 0 .108.108zm.468-.612c0 .216-.036.216-.108.072-.036-.072-.036-.144.036-.18.036-.036.072.036.072.108zm.206 6.804c.36.756 1.188 1.62 1.512 1.62.144 0 .504.252.828.54.9.828 1.476.684 2.844-.72.648-.72 2.52-3.096 3.348-4.284l.576-.864.072.9c.18 1.62.864 2.916 1.836 3.384.288.144.54.324.576.432.18.468 1.404.648 1.944.288 1.404-.936 3.348-3.564 6.948-9.468.9-1.512 1.08-2.124.252-.972-.252.36-.504.648-.504.612 0-.072.216-.36.432-.684.252-.324.396-.648.36-.684s-.396.432-.792.972c-2.232 3.06-3.348 4.5-4.572 5.76-1.188 1.224-2.772 2.556-2.88 2.412-.108-.072.18-1.332.54-2.52.18-.648.756-2.16 1.224-3.384 1.044-2.628 1.44-4.032 1.44-4.788 0-.504-.036-.612-.396-.936-.252-.216-.468-.36-.54-.324-.036.036-.108 0-.144-.108s-.144-.18-.252-.144-.18 0-.18-.108c0-.18-.036-.18-.252.036-.252.216-.252.216-.108-.036.18-.396.144-.612-.108-.684-.468-.144-.828.036-1.188.648-.36.54-.576.756-.576.468 0-.072-.108-.144-.252-.18s-.612-.396-1.008-.756c-.576-.576-.828-.72-1.26-.792-1.008-.144-2.412.324-3.6 1.188-2.988 2.196-6.732 9.072-6.48 11.88.036.36.216.936.36 1.296zm19.44-7.308c.072.036.144-.072.144-.18.036-.108.072-.252.108-.288.072-.036.072.036.036.18-.036.36-.252.576-.36.396-.036-.072-.036-.108.072-.108zm-.504 1.008c.18-.144.18-.144.036.072-.18.18-.252.252-.252.144 0-.036.072-.108.216-.216zm-.504.36c.036-.072.288-.036.288.072 0 0-.072.036-.18.036s-.144-.036-.108-.108zm-1.152 1.62a.48.48 0 0 1 .288-.108c.072 0 .144-.108.18-.18.036-.108 0-.144-.108-.072s-.108.036-.072 0c.072-.072.144-.108.216-.108s.18-.072.216-.18 0-.144-.144-.072c-.108.108-.108.072 0-.072s.216-.18.288-.144c.108.072-.216.684-.468.9-.216.18-.576.252-.396.036zm-.252.468c-.072.072-.108.036-.036 0 .036-.072.144-.108.252-.144.144 0 .144.036.036.216a.67.67 0 0 1-.252.288c-.108.072-.108.036 0-.072.072-.108.144-.216.144-.252 0-.072-.072-.072-.144-.036zm-.504.54c.108-.144.252-.252.288-.252s-.036.108-.18.252c-.108.108-.216.216-.252.216s.036-.108.144-.216zm-.54.684c.18-.144.18-.144.036.036-.144.216-.252.252-.252.18 0-.036.072-.144.216-.216zm-12.42 1.188c-.072.216-.144.612-.252.864l-.144.504.072-.54c.036-.288.144-.684.216-.9l.18-.324-.072.396zm4.572-2.088c-.18.18-.252.252-.252.144 0 0 .072-.108.18-.18.18-.144.216-.144.072.036zm.324-.468c-.144.18-.252.252-.252.144 0 0 .108-.108.216-.18.18-.18.18-.144.036.036zm6.732-6.12c.36-.72-.108.684-.684 2.088-.36.864-.936 2.376-1.296 3.348-.648 1.872-.792 2.124-.396.72.216-.72 2.052-5.472 2.376-6.156zm-.9-.504c.072 0-.252.792-.9 2.268-.288.648-.72 1.656-.936 2.196-.54 1.404-.576 1.476-.576 1.404-.036-.432 2.196-5.868 2.412-5.868zm-1.62 2.016c.18-.216.072.144-.396 1.332-.36.9-.828 2.232-1.008 2.952-.252.936-.324 1.116-.288.684.18-1.404 1.116-4.284 1.692-4.968zm-1.08 1.62c-.072.072-.288.684-.504 1.332-.216.684-.36 1.008-.324.72.108-.72.504-1.908.72-2.052.18-.144.18-.144.108 0zm-1.476-3.348c.432-.288.864-.576.972-.612.36-.144.288.324-.324 1.548-1.008 1.98-4.608 6.768-6.12 8.136-.324.288-.612.54-.684.54-.144 0 .576-1.944 1.26-3.384 1.296-2.664 3.204-5.112 4.896-6.228zm-3.888.864l.468-.504-.504.684c-1.26 1.728-2.124 3.168-2.736 4.68-.252.54-.612 1.512-.828 2.16s-.396 1.08-.396.936c-.036-.54.72-2.592 1.404-3.96.828-1.584 1.872-3.204 2.592-3.996zm-1.368.828c.036 0-.072.252-.288.54-.504.756-1.584 2.808-2.016 3.888-.216.504-.54 1.512-.72 2.232-.252 1.008-.324 1.188-.324.828 0-1.296 1.152-4.14 2.664-6.48.324-.54.648-1.008.684-1.008zm-3.78 6.84c.144-.684.54-1.908.792-2.34.144-.252.18-.324.144-.18-.036.108-.252.792-.468 1.512-.432 1.332-.612 1.728-.468 1.008zm31.885 7.056c1.26 1.224 1.62 1.476 2.484 1.656.684.108.864.108 1.692-.036 2.52-.396 5.976-2.304 8.136-4.428 1.584-1.584 2.304-2.88 2.448-4.392.072-1.008-.216-1.656-1.224-2.628-.396-.396-.792-.864-.9-1.08-.576-1.08-1.944-1.62-5.076-2.088-3.456-.504-5.292-1.044-5.436-1.548-.18-.756.684-2.772 1.872-4.284 1.368-1.728 3.852-3.96 6.012-5.436 4.608-3.096 10.512-5.4 13.428-5.256l.756.072-.396.756a56.06 56.06 0 0 1-2.808 4.536c-.864 1.152-1.908 2.412-3.708 4.464-3.168 3.528-3.492 4.14-2.7 5.04.504.504.792.54 1.728.144 1.944-.792 5.508-3.924 7.956-6.984 1.836-2.304 3.168-4.968 3.312-6.732a3.9 3.9 0 0 0-.792-2.592c-.18-.252-.396-.648-.468-.9-.504-1.908-2.448-2.592-5.832-2.088-4.464.648-10.8 3.672-15.228 7.164-1.296 1.044-4.032 3.78-4.788 4.824-1.152 1.512-1.908 3.384-1.908 4.644 0 .648.396 1.8.864 2.592.144.288.576.828.9 1.188.36.36.936.972 1.26 1.368.72.828 1.98 1.656 3.096 2.016.396.108 1.692.396 2.88.576 2.916.504 3.348.612 3.348.72 0 .324-1.044 1.728-1.908 2.556-1.728 1.656-4.212 3.096-6.372 3.744-1.188.324-1.764.36-2.52.108-1.62-.504-1.908-.504-1.908-.072s.504 1.08 1.8 2.376zm20.016-20.772c.54-.612 1.476-1.836 2.088-2.664a48.48 48.48 0 0 1 1.368-1.836c.396-.468-1.116 1.8-1.872 2.844-.396.468-1.116 1.332-1.656 1.872l-.936.972 1.008-1.188zm.072 1.476c-.936.936-2.052 2.016-2.484 2.34-.432.36.18-.252 1.296-1.368 1.116-1.08 2.556-2.592 3.168-3.312s1.116-1.296 1.152-1.296-.288.432-.684.972-1.512 1.728-2.448 2.664zm4.716-3.924l-.216.396c-.108.18-.576.792-1.008 1.332s-.9 1.08-1.044 1.188c-.144.144.18-.324.72-.972l1.26-1.62.288-.324zm-.432-2.412c-.612 1.26-2.268 3.456-4.032 5.364-.54.576-1.44 1.476-2.016 1.98-.9.828-.828.756.648-.828 2.124-2.232 3.096-3.42 4.32-5.148 1.188-1.728 1.296-1.908 1.08-1.368zm-21.168 5.508c-.108.144-.252.252-.288.252s.036-.108.18-.252c.108-.108.216-.216.252-.216s-.036.108-.144.216zm1.836-3.564c.036 0 .144-.108.288-.18.216-.18.216-.18.072.036-.108.108-.216.18-.288.18s-.108 0-.072-.036zm-4.716 5.004c0-.252 1.872-2.952 2.052-2.952.036 0-.252.396-.576.864-.36.504-.792 1.188-1.008 1.548-.36.612-.468.756-.468.54zm.576-.072c.468-1.008 1.584-2.412 2.916-3.708.612-.612.9-.864.612-.54-1.26 1.368-1.62 1.764-2.268 2.628-.36.504-.864 1.296-1.116 1.8-.54 1.008-.648.864-.144-.18zm.972-.072c-.684 1.008-.756 1.044-.216.072.648-1.188 1.296-1.98 2.7-3.42 1.224-1.224 3.744-3.348 3.996-3.348.072 0-.396.396-1.008.864-1.944 1.476-4.32 3.996-5.472 5.832zm.216 1.836c0-.18.684-1.332.828-1.44.072-.036.036.108-.108.324-.108.216-.324.576-.468.828-.144.216-.252.36-.252.288zm11.268 11.808c.18-.324.324-.54.36-.468 0 .072-.108.324-.288.612-.396.612-.432.576-.072-.144zm-2.088-1.08l.612-1.08c.36-.648.324-.324-.036.396-.144.216-.36.576-.54.756l-.288.36.252-.432zm-.144.864c.288-.324.756-1.008 1.044-1.512.432-.756.504-.828.432-.504-.072.432-.432 1.044-1.08 1.872-.252.252-.54.54-.648.612-.18.108-.072-.108.252-.468zm.036.936a11.09 11.09 0 0 0 1.152-1.404c.216-.324.432-.576.432-.54.144.108-.576 1.152-1.332 1.908-.504.468-.936.864-.972.864s.288-.396.72-.828zm10.519-.792c.36.756 1.188 1.62 1.512 1.62.144 0 .504.252.828.54.9.828 1.476.684 2.844-.72.648-.72 2.52-3.096 3.348-4.284l.576-.864.072.9c.18 1.62.864 2.916 1.836 3.384.288.144.54.324.576.432.18.468 1.404.648 1.944.288 1.404-.936 3.348-3.564 6.948-9.468.9-1.512 1.08-2.124.252-.972-.252.36-.504.648-.504.612 0-.072.216-.36.432-.684.252-.324.396-.648.36-.684s-.396.432-.792.972c-2.232 3.06-3.348 4.5-4.572 5.76-1.188 1.224-2.772 2.556-2.88 2.412-.108-.072.18-1.332.54-2.52.18-.648.756-2.16 1.224-3.384 1.044-2.628 1.44-4.032 1.44-4.788 0-.504-.036-.612-.396-.936-.252-.216-.468-.36-.54-.324-.036.036-.108 0-.144-.108s-.144-.18-.252-.144-.18 0-.18-.108c0-.18-.036-.18-.252.036-.252.216-.252.216-.108-.036.18-.396.144-.612-.108-.684-.468-.144-.828.036-1.188.648-.36.54-.576.756-.576.468 0-.072-.108-.144-.252-.18s-.612-.396-1.008-.756c-.576-.576-.828-.72-1.26-.792-1.008-.144-2.412.324-3.6 1.188-2.988 2.196-6.732 9.072-6.48 11.88.036.36.216.936.36 1.296zm19.44-7.308c.072.036.144-.072.144-.18.036-.108.072-.252.108-.288.072-.036.072.036.036.18-.036.36-.252.576-.36.396-.036-.072-.036-.108.072-.108zm-.504 1.008c.18-.144.18-.144.036.072-.18.18-.252.252-.252.144 0-.036.072-.108.216-.216zm-.504.36c.036-.072.288-.036.288.072 0 0-.072.036-.18.036s-.144-.036-.108-.108zm-1.152 1.62a.48.48 0 0 1 .288-.108c.072 0 .144-.108.18-.18.036-.108 0-.144-.108-.072s-.108.036-.072 0c.072-.072.144-.108.216-.108s.18-.072.216-.18 0-.144-.144-.072c-.108.108-.108.072 0-.072s.216-.18.288-.144c.108.072-.216.684-.468.9-.216.18-.576.252-.396.036zm-.252.468c-.072.072-.108.036-.036 0 .036-.072.144-.108.252-.144.144 0 .144.036.036.216a.67.67 0 0 1-.252.288c-.108.072-.108.036 0-.072.072-.108.144-.216.144-.252 0-.072-.072-.072-.144-.036zm-.504.54c.108-.144.252-.252.288-.252s-.036.108-.18.252c-.108.108-.216.216-.252.216s.036-.108.144-.216zm-.54.684c.18-.144.18-.144.036.036-.144.216-.252.252-.252.18 0-.036.072-.144.216-.216zm-12.42 1.188c-.072.216-.144.612-.252.864l-.144.504.072-.54c.036-.288.144-.684.216-.9l.18-.324-.072.396zm4.572-2.088c-.18.18-.252.252-.252.144 0 0 .072-.108.18-.18.18-.144.216-.144.072.036zm.324-.468c-.144.18-.252.252-.252.144 0 0 .108-.108.216-.18.18-.18.18-.144.036.036zm6.732-6.12c.36-.72-.108.684-.684 2.088-.36.864-.936 2.376-1.296 3.348-.648 1.872-.792 2.124-.396.72.216-.72 2.052-5.472 2.376-6.156zm-.9-.504c.072 0-.252.792-.9 2.268-.288.648-.72 1.656-.936 2.196-.54 1.404-.576 1.476-.576 1.404-.036-.432 2.196-5.868 2.412-5.868zm-1.62 2.016c.18-.216.072.144-.396 1.332-.36.9-.828 2.232-1.008 2.952-.252.936-.324 1.116-.288.684.18-1.404 1.116-4.284 1.692-4.968zm-1.08 1.62c-.072.072-.288.684-.504 1.332-.216.684-.36 1.008-.324.72.108-.72.504-1.908.72-2.052.18-.144.18-.144.108 0zm-1.476-3.348c.432-.288.864-.576.972-.612.36-.144.288.324-.324 1.548-1.008 1.98-4.608 6.768-6.12 8.136-.324.288-.612.54-.684.54-.144 0 .576-1.944 1.26-3.384 1.296-2.664 3.204-5.112 4.896-6.228zm-3.888.864l.468-.504-.504.684c-1.26 1.728-2.124 3.168-2.736 4.68-.252.54-.612 1.512-.828 2.16s-.396 1.08-.396.936c-.036-.54.72-2.592 1.404-3.96.828-1.584 1.872-3.204 2.592-3.996zm-1.368.828c.036 0-.072.252-.288.54-.504.756-1.584 2.808-2.016 3.888-.216.504-.54 1.512-.72 2.232-.252 1.008-.324 1.188-.324.828 0-1.296 1.152-4.14 2.664-6.48.324-.54.648-1.008.684-1.008zm-3.78 6.84c.144-.684.54-1.908.792-2.34.144-.252.18-.324.144-.18-.036.108-.252.792-.468 1.512-.432 1.332-.612 1.728-.468 1.008zm21.904 5.652c.504 0 .648-.072 1.296-.54.828-.612 2.448-2.376 3.744-4.104l.9-1.152.108.792c.252 2.16 1.044 3.6 2.376 4.248.36.144.684.324.72.396s.252.216.432.288c.576.252 1.332.216 1.944-.072 1.44-.648 4.14-4.068 7.632-9.648.936-1.476 1.224-2.16 1.26-2.808.036-.432 0-.54-.18-.576-.324-.072-1.26 1.008-2.412 2.844-2.484 3.96-3.744 5.688-5.184 7.128-.972.972-1.836 1.548-2.52 1.728-.288.036-.324.036-.432-.252-.144-.54-.072-2.628.144-3.744.648-3.384 2.484-7.848 6.624-16.092l2.592-5.364.324-.792-.252-.324c-.108-.18-.324-.288-.468-.288s-.252-.072-.252-.144c0-.108-.072-.18-.108-.18-.072 0-.216-.144-.324-.36-.144-.252-.252-.324-.54-.324-.324 0-.504.108-1.044.684-1.404 1.476-4.428 6.48-6.732 11.088l-.612 1.26-.54-.36c-.288-.18-.72-.504-.936-.72-.648-.576-1.08-.684-2.052-.612-1.62.108-3.42 1.152-4.896 2.736-1.836 1.98-3.492 5.292-4.104 8.028-.288 1.296-.288 3.528 0 4.428.216.792 1.008 1.692 1.548 1.8a3.58 3.58 0 0 1 .864.54c.432.396.54.468 1.08.468zm19.692-11.808c.072-.108.144-.216.18-.216s0 .108-.072.216c-.072.144-.144.252-.18.252s0-.108.072-.252zm-20.052 7.416c0-.36 1.008-3.492 1.116-3.384.036.036-.216.828-.54 1.764-.288.936-.54 1.656-.576 1.62zm.9-5.076c.036-.108.108-.18.144-.144s0 .144-.072.216c-.108.108-.144.108-.072-.072zm7.128 1.8c-.036.108-.108.54-.18.936l-.18.792.072-.756c.036-.432.108-.828.144-.936.108-.18.144-.18.144-.036zm1.476 3.276c-.036.036-.072-.036-.072-.144.036-.144.036-.18.072-.072.036.072.036.18 0 .216zm.684-3.168c-.108.36-.288 1.08-.396 1.656-.108.54-.216.864-.216.72-.036-.396.396-2.16.612-2.772.252-.648.252-.432 0 .396zm.648-4.392a.72.72 0 0 1-.108.288c-.072.072-.108.108-.108.036a.72.72 0 0 1 .108-.288c.072-.072.108-.108.108-.036zm1.656-3.852c-.036.108-.108.144-.108.072s.072-.216.108-.288c.072-.108.108-.144.108-.072s-.036.18-.108.288zm3.96-6.12c-.252.504-.324.432-.108-.072.108-.216.216-.396.252-.36s-.036.216-.144.432zm.54-1.08c-.144.288-.288.504-.324.504s.072-.216.18-.504c.144-.252.288-.468.324-.468s-.072.216-.18.468zm1.404-4.716c.072 0-.108.36-.36.828-1.656 2.664-5.364 9.828-6.516 12.564-.648 1.476-.792 1.728-.792 1.476 0-.288 1.188-2.952 2.412-5.436 2.016-4.032 5.04-9.432 5.256-9.432zm-3.816 4.68c.54-1.008 1.116-1.944 1.116-1.8 0 .036-.144.288-.288.54-.144.216-.432.684-.576 1.008-.18.324-.396.72-.504.828-.108.144 0-.144.252-.576zm-2.736 5.112c.144-.396 2.088-4.068 2.196-4.176.072-.072-.36.828-.972 2.016-.972 1.908-1.44 2.7-1.224 2.16zm-.216.432c.036-.108.108-.18.144-.144s0 .144-.072.216c-.108.108-.144.108-.072-.072zm1.044-1.224c1.512-2.988 5.112-9.216 5.328-9.216.072 0-.108.288-.864 1.548-1.8 2.952-4.752 8.568-5.94 11.232-.684 1.548-.684 1.62-.684 1.332 0-.216 1.26-3.132 2.16-4.896zm-3.888 11.808c.108-.756.648-2.736.936-3.528.144-.396.324-.828.36-.972.036-.108.144-.288.252-.396.108-.072.072.108-.108.648-.18.432-.432 1.116-.576 1.512-.108.396-.396 1.296-.576 1.98s-.324 1.044-.288.756zm-.18-1.08a39.1 39.1 0 0 0-.396 2.124c-.144 1.116-.18 1.152-.18.504 0-.828.288-2.628.54-3.24.252-.648.288-.36.036.612zm-1.476-6.912c.864-.54 1.08-.54 1.224-.036.216.54.18.648-.396 2.16-.432 1.152-.648 1.512-1.152 2.052-.36.396-1.044 1.188-1.512 1.8-.504.576-1.404 1.656-2.016 2.376s-1.476 1.656-1.908 2.052c-.72.72-.756.756-.756.468 0-.468.864-3.024 1.44-4.284 1.44-3.024 3.384-5.58 5.076-6.588zm-9.036 8.892c.072-.792.756-2.772 1.332-3.888.252-.504.504-.936.504-.936.036 0-.108.396-.36.864-.216.504-.612 1.512-.864 2.268-.216.756-.504 1.584-.576 1.8-.108.396-.108.396-.036-.108zm.468 1.008c-.144.684-.18.792-.18.468-.036-.648.396-2.628.792-3.708.396-1.044.9-2.088 1.548-3.204.576-.972 1.08-1.548.576-.684-.9 1.548-1.692 3.348-2.124 4.716-.252.792-.54 1.872-.612 2.412zm1.116-2.556c.612-1.944 2.16-4.788 3.276-6.012l.36-.396-.324.468c-.9 1.224-2.124 3.42-2.736 4.896l-.72 1.872c-.432 1.26-.36.684.144-.828zm33.501-4.68c-.18-.18-.252-.144-1.188.864a52.95 52.95 0 0 0-2.124 2.412c-2.412 2.808-3.924 4.392-4.86 5.076-.936.612-1.8 1.044-2.376 1.116l-.468.072v-.576c0-1.512.756-3.564 3.024-8.172 1.512-3.096 1.8-3.888 1.404-3.888a.17.17 0 0 1-.18-.18c0-.144-.072-.18-.252-.144-.144.036-.18.036-.144-.072.036-.072 0-.072-.108-.036-.144.072-.216.036-.18-.144.036-.108-.036-.18-.144-.144-.144 0-.252-.108-.36-.324-.648-1.584-2.592.216-4.644 4.356-1.332 2.628-1.8 4.392-1.692 6.264.108 1.548.864 3.06 1.836 3.636.252.144.576.396.756.54.18.18.504.36.756.468.576.216 1.08.144 1.872-.252 1.764-.828 5.508-5.076 8.532-9.576.684-1.044.72-1.116.54-1.296zm-10.548 5.04c-.072.108-.108.108-.108.072 0-.072.036-.216.108-.324.072-.072.108-.108.108-.036s-.036.18-.108.288zm.504-1.152c-.216.396-.36.72-.36.648-.036-.108.612-1.512.648-1.476s-.108.396-.288.828zm.612-1.404c-.072.216-.18.252-.18.072a.32.32 0 0 1 .144-.18c.036-.036.072.036.036.108zm.72-3.168c-.108.216-.18.252-.18.072 0-.072.036-.144.108-.18s.108 0 .072.108zm-1.836.18c.144-.252.288-.468.288-.468.036 0-.036.216-.18.468-.108.252-.252.468-.288.468s.036-.216.18-.468zm-2.448 5.832c-.036-.468.576-2.088 1.332-3.672.432-.864.792-1.584.828-1.584.072 0-.252.72-.792 1.836-.252.54-.684 1.548-.936 2.304s-.432 1.26-.432 1.116zm.216 1.26c0-.504.36-2.088.756-3.096.756-1.908 2.628-5.4 3.384-6.228l.252-.288-.216.36c-1.26 2.052-2.592 4.68-3.168 6.156-.18.504-.504 1.44-.684 2.124-.144.684-.324 1.116-.324.972zm.936-1.152c0 .072-.036.216-.108.324-.216.288 0-.576.432-1.764.504-1.404 2.304-4.968 3.096-6.192.612-.9.936-1.26.468-.468-1.548 2.592-3.888 7.416-3.888 8.1zm.468 1.944c0-.252.612-2.16.648-2.088.036.036-.108.54-.288 1.152s-.324 1.044-.36.936zm6.984-1.944c-.144.18-.252.252-.252.144 0-.036.072-.108.216-.216.18-.144.18-.144.036.072zm.504-.288c-.108.144-.216.252-.252.252s.036-.108.144-.252c.108-.108.252-.216.252-.216.036 0-.036.108-.144.216zm.072-.432c-.144.18-.252.252-.252.144 0 0 .108-.108.216-.18.18-.144.18-.144.036.036zm.468-.576c-.144.18-.252.252-.252.144 0-.036.108-.108.216-.216.18-.144.18-.144.036.072zm.468-.252c-.144.216-.252.252-.252.18 0-.036.108-.144.216-.216.18-.144.18-.144.036.036zm.54-.756c-.108-.036-.252.036-.288.144s0 .108.108.036c.144-.072.144-.036 0 .108-.072.108-.18.18-.216.144s-.144 0-.252.108c-.108.072 0-.108.216-.36.324-.468.612-.684.432-.396-.036.036 0 .144.072.18s.072.036-.072.036zm.684-.792c-.108.144-.216.216-.252.18s-.144 0-.252.072-.072 0 .072-.144c.144-.18.36-.324.432-.324.18 0 .144.036 0 .216zm.36-.504c-.036.036-.144.072-.252.108-.144 0-.144-.036-.036-.144.072-.108.18-.144.252-.108s.072.108.036.144zm.36-.612c0 .108-.108.216-.216.216-.216.036-.216.036 0-.18.252-.288.252-.288.216-.036zm.576-.576c-.036.036-.108.072-.144.108-.036 0-.144.036-.252.072-.144.108-.144.108-.036-.036.072-.072.252-.18.324-.18.108-.036.18 0 .108.036zm.324-.396c0 .036-.108.036-.18.036-.108 0-.144-.036-.108-.108s.288-.036.288.072zm-7.02-7.344c.18.072.324.216.396.396.072.144.216.324.324.324a1.62 1.62 0 0 0 .288.072c.108.036.504-.468.864-1.044.432-.648 1.296-1.476 2.124-1.98.36-.252.648-.504.648-.576 0-.108-.18-.36-.432-.576-.432-.396-.504-.396-.972-.324-1.224.18-3.492 1.44-3.816 2.088-.108.216-.216.468-.216.54 0 .288.504.972.792 1.08zm1.188-1.188c.108-.108.036.036-.144.324-.18.252-.396.504-.432.504-.144 0 .288-.612.576-.828zm-.72.216c.18-.144.18-.144.072.108-.144.288-.252.324-.252.144 0-.036.072-.144.18-.252zm22.687 13.068c1.836-1.476 5.868-4.32 6.516-4.572.252-.108.288-.468.036-.468-.036 0-.144-.108-.18-.216-.144-.468-.684-.288-2.808.792-2.844 1.44-6.552 3.96-9.54 6.48-.54.468-1.008.828-1.008.792 0-.324 1.692-3.564 3.528-6.588 1.656-2.808 2.124-3.636 2.124-3.888 0-.108-.144-.324-.288-.468-.18-.144-.396-.468-.468-.72-.144-.288-.288-.432-.54-.468-.432-.108-.9.144-1.728.972-.288.324-.612.612-.648.612s-.144-.144-.216-.36c-.216-.468-.936-1.152-1.476-1.404-.252-.108-.756-.396-1.116-.648-.54-.36-.72-.432-1.26-.432-1.62 0-3.456 1.368-5.364 3.888-1.8 2.448-3.312 5.832-3.636 8.208-.144 1.08-.036 2.268.324 2.988.36.684 1.188 1.296 1.692 1.296.288 0 .504.108.648.252.288.324.792.576 1.116.576.18 0 .468-.108.72-.288.252-.144.468-.288.504-.288s-.072.288-.18.684c-1.08 3.096-1.152 6.66-.216 8.568.324.648 1.044 1.44 1.368 1.512.18.036.468.288.684.504.18.216.468.504.684.576 1.26.54 2.772-.396 4.284-2.664 1.404-2.124 1.872-3.96 1.296-5.04a2.46 2.46 0 0 0-.792-.936c-.288-.18-.72-.504-.936-.72-.216-.18-.54-.396-.72-.468-.144-.108-.288-.18-.324-.216-.072-.072 1.044-1.368 2.556-2.916 1.548-1.548 3.708-3.564 5.364-4.932zm-17.64 2.484c-.036.036-.072-.036-.072-.144 0-.144.036-.18.072-.072.036.072.036.18 0 .216zm1.008-.036c-.036.468-.072.864-.108.864-.072.108 0-.972.072-1.332.072-.216.072-.036.036.468zm.684-1.152c-.072.324-.18 1.044-.216 1.62-.072.936-.108 1.008-.18.612-.108-.504-.036-1.224.252-2.232.216-.828.324-.828.144 0zm.756-.504c-.144.648-.324 1.512-.396 1.98-.108.864-.252 1.188-.252.612 0-.828.72-3.96.9-3.816a25.33 25.33 0 0 1-.252 1.224zm.432-1.476c-.072.108-.144.144-.144.072s.072-.216.144-.288c.036-.108.108-.144.108-.072s-.072.216-.108.288zm12.564-7.38c.036.036-.216.432-.576.864-.684.936-.792 1.08-.792.936 0-.108 1.296-1.836 1.368-1.8zm-.648.144c.396-.396.36-.288-.252.468-.432.504-.792.972-.864.972-.216.108.612-.972 1.116-1.44zm-.72.36c.144-.144.072 0-.18.324-.252.288-.504.54-.504.54-.108 0 .432-.648.684-.864zm-2.232 4.752a124.84 124.84 0 0 0-2.556 4.608c-.36.756-.684 1.368-.72 1.404-.324.36 1.584-3.384 2.412-4.824.36-.54.72-1.08.828-1.188.144-.144.18-.144.036 0zm-8.136 5.724c-.036-.792 1.116-3.744 2.052-5.4 1.512-2.52 4.248-5.616 4.644-5.184.036.036.216.468.396.936l.324.828-.792 1.152c-1.26 1.764-1.656 2.304-2.916 3.816-1.62 1.98-3.708 4.176-3.708 3.852zm1.656 7.776c-.036-.252.396-2.052.468-2.052s.108.036.108.072c0 .18-.576 2.124-.576 1.98zm.252-2.736c-.288.936-.396 1.224-.396.936 0-.54 1.944-5.688 2.448-6.48.324-.504.288-.18-.072.54a51.82 51.82 0 0 0-1.98 5.004zm.756-.9c-.18.18-.036-.216.72-2.124.72-1.836 1.728-3.96 2.124-4.428.144-.144-.072.36-.468 1.152-.396.828-1.044 2.34-1.476 3.384s-.828 1.944-.9 2.016zm2.124-3.672c0 .072-.072.252-.144.432-.108.144-.18.216-.18.18 0-.072.072-.252.18-.432.072-.144.144-.252.144-.18zm1.728 11.124c-.792 1.08-.828 1.008-.072-.108.36-.54.756-1.224.864-1.512.144-.252.252-.468.288-.432.108.108-.468 1.152-1.08 2.052zm.612-3.024c.072-.252.144-.36.144-.252s-.072.324-.144.54c-.216.432-.216.252 0-.288zm-.36.9c.036-.108.108-.18.144-.144s0 .108-.072.216c-.108.108-.144.072-.072-.072zm.54-.612c.18-.54.324-.828.324-.72 0 .396-.396 1.476-.828 2.232-.18.36-.396.684-.468.72-.036.036.072-.252.288-.612.18-.396.504-1.116.684-1.62zm-.972-1.26c0 .684-1.044 2.628-1.98 3.708-.36.36-.72.72-.864.792-.252.144-.252.108-.144-.9.072-.972.576-3.42.72-3.564.036-.036.288-.072.54-.072.288 0 .792-.072 1.116-.108.576-.108.612-.108.612.144zm-.468-7.02c.216-.504 1.692-3.492 2.304-4.536.72-1.26 2.628-4.356 2.808-4.536.144-.108-.18.432-1.008 1.8a51.25 51.25 0 0 0-3.096 5.544c-.936 1.872-1.296 2.484-1.008 1.728zm1.944.648c-.324.36-.396.432-.396.324l.36-.36.396-.36-.36.396z"/><path d="M29.259 54.096c-.832 0-1.632-.133-2.4-.4-.757-.277-1.344-.629-1.76-1.056l.464-.912c.395.384.923.709 1.584.976.672.256 1.376.384 2.112.384.704 0 1.275-.085 1.712-.256.448-.181.773-.421.976-.72a1.67 1.67 0 0 0 .32-.992c0-.437-.128-.789-.384-1.056-.245-.267-.571-.475-.976-.624a9.99 9.99 0 0 0-1.344-.416l-1.472-.368c-.491-.139-.944-.32-1.36-.544-.405-.224-.736-.517-.992-.88-.245-.373-.368-.859-.368-1.456a2.8 2.8 0 0 1 .432-1.52c.299-.469.752-.843 1.36-1.12.608-.288 1.387-.432 2.336-.432.629 0 1.253.091 1.872.272.619.171 1.152.411 1.6.72l-.4.944c-.48-.32-.992-.555-1.536-.704-.533-.149-1.051-.224-1.552-.224-.672 0-1.227.091-1.664.272s-.763.427-.976.736a1.78 1.78 0 0 0-.304 1.024c0 .437.123.789.368 1.056.256.267.587.475.992.624.416.149.869.283 1.36.4l1.456.384c.491.139.939.32 1.344.544.416.213.747.501.992.864.256.363.384.837.384 1.424a2.78 2.78 0 0 1-.448 1.52c-.299.459-.757.832-1.376 1.12-.608.277-1.392.416-2.352.416zm11.38-.016c-.811 0-1.541-.181-2.192-.544-.64-.373-1.147-.88-1.52-1.52-.373-.651-.56-1.392-.56-2.224 0-.843.187-1.584.56-2.224s.88-1.141 1.52-1.504 1.371-.544 2.192-.544c.832 0 1.568.181 2.208.544.651.363 1.157.864 1.52 1.504.373.64.56 1.381.56 2.224 0 .832-.187 1.573-.56 2.224a4 4 0 0 1-1.52 1.52c-.651.363-1.387.544-2.208.544zm0-1.008c.608 0 1.147-.133 1.616-.4a2.94 2.94 0 0 0 1.104-1.152c.277-.501.416-1.077.416-1.728 0-.661-.139-1.237-.416-1.728a2.83 2.83 0 0 0-1.104-1.136c-.469-.277-1.003-.416-1.6-.416s-1.131.139-1.6.416a2.94 2.94 0 0 0-1.12 1.136c-.277.491-.416 1.067-.416 1.728 0 .651.139 1.227.416 1.728.277.491.651.875 1.12 1.152.469.267.997.4 1.584.4zm8.239.928v-9.456c0-.747.219-1.349.656-1.808s1.067-.688 1.888-.688c.32 0 .629.043.928.128s.549.219.752.4l-.384.848c-.16-.139-.347-.24-.56-.304-.213-.075-.443-.112-.688-.112-.48 0-.848.133-1.104.4s-.384.661-.384 1.184v1.28l.032.528V54h-1.136zm-1.504-7.456V45.6h5.2v.944h-5.2zm10.83 7.536c-.789 0-1.397-.213-1.824-.64s-.64-1.029-.64-1.808v-7.888h1.136v7.824c0 .491.123.869.368 1.136.256.267.619.4 1.088.4.501 0 .917-.144 1.248-.432l.4.816c-.224.203-.496.352-.816.448a3.22 3.22 0 0 1-.96.144zm-3.968-7.536V45.6h5.2v.944h-5.2zM65.044 54l-3.168-8.4h1.088l2.88 7.792h-.496l2.96-7.792h.976l2.928 7.792h-.496l2.928-7.792h1.04L72.5 54h-1.072l-2.816-7.328h.336L66.116 54h-1.072zm18.804 0v-1.856l-.048-.304v-3.104c0-.715-.203-1.264-.608-1.648-.395-.384-.987-.576-1.776-.576a4.44 4.44 0 0 0-1.552.272c-.491.181-.907.421-1.248.72l-.512-.848c.427-.363.939-.64 1.536-.832.597-.203 1.227-.304 1.888-.304 1.088 0 1.925.272 2.512.816.597.533.896 1.349.896 2.448V54h-1.088zm-2.896.08c-.629 0-1.179-.101-1.648-.304-.459-.213-.811-.501-1.056-.864-.245-.373-.368-.8-.368-1.28a2.33 2.33 0 0 1 .304-1.184c.213-.363.555-.651 1.024-.864.48-.224 1.12-.336 1.92-.336h2.896v.848H81.16c-.811 0-1.376.144-1.696.432-.309.288-.464.645-.464 1.072a1.38 1.38 0 0 0 .56 1.152c.373.288.896.432 1.568.432.64 0 1.189-.144 1.648-.432.469-.299.811-.725 1.024-1.28l.256.784c-.213.555-.587.997-1.12 1.328-.523.331-1.184.496-1.984.496zm8.51-.08v-8.4h1.088v2.288l-.112-.4c.235-.64.629-1.125 1.184-1.456.555-.341 1.243-.512 2.064-.512v1.104h-.128c-.043-.011-.085-.016-.128-.016-.885 0-1.579.272-2.08.816-.501.533-.752 1.296-.752 2.288V54h-1.136zm11.227.08c-.875 0-1.643-.181-2.304-.544-.661-.373-1.179-.88-1.552-1.52-.373-.651-.56-1.392-.56-2.224s.176-1.568.528-2.208c.363-.64.853-1.141 1.472-1.504.629-.373 1.333-.56 2.112-.56.789 0 1.488.181 2.096.544.618.352 1.104.853 1.456 1.504.352.64.528 1.381.528 2.224 0 .053-.006.112-.016.176v.176h-7.312v-.848h6.704l-.448.336a3.22 3.22 0 0 0-.4-1.616c-.256-.48-.608-.853-1.056-1.12s-.966-.4-1.552-.4a3.03 3.03 0 0 0-1.552.4 2.78 2.78 0 0 0-1.072 1.12c-.256.48-.384 1.029-.384 1.648v.176c0 .64.139 1.205.416 1.696.288.48.683.859 1.184 1.136.512.267 1.093.4 1.744.4.512 0 .986-.091 1.424-.272a2.96 2.96 0 0 0 1.152-.832l.64.736a3.6 3.6 0 0 1-1.408 1.024c-.555.235-1.168.352-1.84.352zm14.451-6.272h5.92v1.008h-5.92v-1.008zm.128 5.168h6.736V54h-7.92V42.8h7.68v1.024h-6.496v9.152zm15.007-7.456c.683 0 1.28.133 1.792.4.523.256.928.651 1.216 1.184.299.533.448 1.205.448 2.016V54h-1.136v-4.768c0-.885-.224-1.552-.672-2-.437-.459-1.056-.688-1.856-.688-.597 0-1.12.123-1.568.368-.437.235-.778.581-1.024 1.04-.234.448-.352.992-.352 1.632V54h-1.136v-8.4h1.088v2.304l-.176-.432c.267-.608.694-1.083 1.28-1.424.587-.352 1.286-.528 2.096-.528zm11.549 11.664c-.768 0-1.504-.112-2.208-.336s-1.275-.544-1.712-.96l.576-.864c.395.352.88.629 1.456.832a5.39 5.39 0 0 0 1.856.32c1.067 0 1.851-.251 2.352-.752.501-.491.752-1.259.752-2.304v-2.096l.16-1.44-.112-1.44V45.6h1.088v7.376c0 1.451-.357 2.512-1.072 3.184-.704.683-1.749 1.024-3.136 1.024zm-.208-3.504c-.8 0-1.52-.171-2.16-.512-.64-.352-1.147-.837-1.52-1.456-.363-.619-.544-1.328-.544-2.128s.181-1.504.544-2.112c.373-.619.88-1.099 1.52-1.44s1.36-.512 2.16-.512c.747 0 1.419.155 2.016.464s1.072.768 1.424 1.376.528 1.349.528 2.224-.176 1.616-.528 2.224-.827 1.072-1.424 1.392-1.269.48-2.016.48zm.112-1.008c.619 0 1.168-.128 1.648-.384.48-.267.859-.629 1.136-1.088.277-.469.416-1.008.416-1.616s-.139-1.141-.416-1.6a2.89 2.89 0 0 0-1.136-1.072c-.48-.267-1.029-.4-1.648-.4-.608 0-1.157.133-1.648.4a2.89 2.89 0 0 0-1.136 1.072c-.267.459-.4.992-.4 1.6s.133 1.147.4 1.616c.277.459.656.821 1.136 1.088.491.256 1.04.384 1.648.384zM150.633 54v-8.4h1.136V54h-1.136zm.576-10.256c-.235 0-.432-.08-.592-.24s-.24-.352-.24-.576.08-.411.24-.56c.16-.16.357-.24.592-.24s.432.075.592.224.24.336.24.56c0 .235-.08.432-.24.592-.149.16-.347.24-.592.24zm9.449 1.776c.683 0 1.28.133 1.792.4.523.256.928.651 1.216 1.184.299.533.448 1.205.448 2.016V54h-1.136v-4.768c0-.885-.224-1.552-.672-2-.437-.459-1.056-.688-1.856-.688-.597 0-1.12.123-1.568.368a2.47 2.47 0 0 0-1.024 1.04c-.235.448-.352.992-.352 1.632V54h-1.136v-8.4h1.088v2.304l-.176-.432c.267-.608.693-1.083 1.28-1.424.587-.352 1.285-.528 2.096-.528zm11.532 8.56c-.874 0-1.642-.181-2.304-.544-.661-.373-1.178-.88-1.552-1.52-.373-.651-.56-1.392-.56-2.224s.176-1.568.528-2.208c.363-.64.854-1.141 1.472-1.504.63-.373 1.334-.56 2.112-.56.79 0 1.488.181 2.096.544a3.73 3.73 0 0 1 1.456 1.504c.352.64.528 1.381.528 2.224a1.04 1.04 0 0 1-.016.176v.176h-7.312v-.848h6.704l-.448.336c0-.608-.133-1.147-.4-1.616-.256-.48-.608-.853-1.056-1.12s-.965-.4-1.552-.4a3.03 3.03 0 0 0-1.552.4c-.458.267-.816.64-1.072 1.12s-.384 1.029-.384 1.648v.176c0 .64.139 1.205.416 1.696a3.11 3.11 0 0 0 1.184 1.136c.512.267 1.094.4 1.744.4a3.68 3.68 0 0 0 1.424-.272 2.96 2.96 0 0 0 1.152-.832l.64.736c-.373.448-.842.789-1.408 1.024-.554.235-1.168.352-1.84.352zm11.097 0c-.875 0-1.643-.181-2.304-.544-.662-.373-1.179-.88-1.552-1.52-.374-.651-.56-1.392-.56-2.224s.176-1.568.528-2.208a3.98 3.98 0 0 1 1.472-1.504c.629-.373 1.333-.56 2.112-.56.789 0 1.488.181 2.096.544.618.352 1.104.853 1.456 1.504.352.64.528 1.381.528 2.224 0 .053-.006.112-.016.176v.176h-7.312v-.848h6.704l-.448.336a3.22 3.22 0 0 0-.4-1.616c-.256-.48-.608-.853-1.056-1.12s-.966-.4-1.552-.4c-.576 0-1.094.133-1.552.4a2.78 2.78 0 0 0-1.072 1.12c-.256.48-.384 1.029-.384 1.648v.176c0 .64.138 1.205.416 1.696.288.48.682.859 1.184 1.136.512.267 1.093.4 1.744.4.512 0 .986-.091 1.424-.272a2.96 2.96 0 0 0 1.152-.832l.64.736a3.6 3.6 0 0 1-1.408 1.024c-.555.235-1.168.352-1.84.352zm7.528-.08v-8.4h1.088v2.288l-.112-.4c.235-.64.629-1.125 1.184-1.456.555-.341 1.243-.512 2.064-.512v1.104h-.128c-.043-.011-.085-.016-.128-.016-.885 0-1.579.272-2.08.816-.501.533-.752 1.296-.752 2.288V54h-1.136z"/><path d="M26.859 53.696l-.017.047h.001l.016-.047zm-1.76-1.056l-.045-.023-.016.032.025.026.036-.035zm.464-.912l.035-.036-.049-.047-.031.061.045.023zm1.584.976l-.019.046h.001l.018-.047zm3.824.128l.018.047h0l-.019-.046zm.976-.72l-.041-.029-.001.001.041.028zm-.064-2.048l-.037.034.001.001.036-.035zm-.976-.624l-.018.047h.001l.017-.047zm-2.816-.784l-.014.048h.001l.013-.048zm-1.36-.544l-.024.044h0l.024-.044zm-.992-.88l-.042.028.001.001.041-.029zm.064-2.976l-.042-.027h0l.042.027zm1.36-1.12l.021.045h.001l-.021-.045zm4.208-.16l-.014.048h.001l.013-.048zm1.6.72l.046.02.016-.038-.033-.023-.028.041zm-.4.944l-.028.042.05.033.023-.056-.046-.02zm-1.536-.704l-.014.048h0l.013-.048zm-3.216.048l-.019-.046h0l.019.046zm-.976.736l-.041-.028h0l.041.028zm.064 2.08l-.037.034.001.001.036-.035zm.992.624l-.017.047h0l.017-.047zm1.36.4l-.012.049h0l.012-.049zm1.456.384l-.014.048h0l.014-.048zm1.344.544l-.024.044.001.001.023-.044zm.992.864l-.041.028v.001l.041-.029zm-.064 2.944l.042.027h0l-.042-.027zm-1.376 1.12l.021.045h0l-.021-.045zm-2.352.366c-.827 0-1.621-.132-2.384-.397l-.033.094c.773.269 1.579.403 2.416.403v-.1zm-2.383-.397c-.753-.276-1.332-.624-1.741-1.044l-.072.07c.423.434 1.017.789 1.779 1.068l.034-.094zm-1.733-.986l.464-.912-.089-.045-.464.912.089.045zm.385-.899c.4.39.934.718 1.6.987l.037-.093c-.657-.265-1.179-.587-1.568-.965l-.07.072zm1.601.987c.678.258 1.388.387 2.13.387v-.1a5.83 5.83 0 0 1-2.094-.381l-.036.093zm2.13.387c.707 0 1.285-.086 1.73-.259l-.036-.093c-.429.168-.993.253-1.694.253v.1zm1.731-.26c.454-.184.789-.429.999-.738l-.083-.056c-.195.288-.511.523-.953.702l.037.093zm.998-.737a1.72 1.72 0 0 0 .329-1.021h-.1c0 .352-.103.673-.311.963l.081.058zm.329-1.021c0-.448-.131-.813-.398-1.091l-.072.069c.245.256.37.594.37 1.021h.1zm-.397-1.09c-.252-.273-.584-.485-.996-.637l-.035.094c.399.147.717.351.956.611l.074-.068zm-.995-.637c-.408-.161-.858-.3-1.351-.418l-.023.097c.489.117.934.255 1.337.414l.037-.093zm-1.351-.418l-1.471-.368-.025.097 1.473.368.023-.097zm-1.47-.367c-.488-.138-.937-.318-1.35-.54l-.047.088a6.75 6.75 0 0 0 1.37.548l.027-.096zm-1.349-.54a2.88 2.88 0 0 1-.975-.865l-.082.058c.261.369.597.667 1.009.895l.048-.088zm-.974-.864c-.238-.363-.36-.838-.36-1.428h-.1c0 .604.124 1.1.376 1.483l.084-.055zm-.36-1.428a2.75 2.75 0 0 1 .424-1.493l-.085-.053a2.85 2.85 0 0 0-.44 1.547h.1zm.424-1.493c.292-.46.737-.827 1.338-1.101l-.042-.091c-.615.281-1.077.66-1.381 1.139l.084.054zm1.339-1.102c.599-.284 1.37-.427 2.315-.427v-.1c-.954 0-1.741.145-2.357.437l.043.09zm2.315-.427c.624 0 1.244.09 1.858.27l.028-.096c-.623-.183-1.252-.274-1.886-.274v.1zm1.859.27c.614.169 1.142.407 1.585.713l.057-.082c-.453-.313-.992-.555-1.615-.727l-.027.096zm1.567.652l-.4.944.092.039.4-.944-.092-.039zm-.326.922c-.484-.323-1.001-.56-1.55-.711l-.027.096c.539.148 1.046.38 1.521.697l.056-.083zm-1.55-.71c-.537-.151-1.059-.226-1.565-.226v.1c.496 0 1.009.074 1.538.222l.027-.096zm-1.565-.226c-.676 0-1.238.091-1.683.276l.038.092c.429-.178.977-.268 1.645-.268v-.1zm-1.683.276c-.444.184-.778.435-.998.754l.082.057c.207-.3.523-.54.954-.718l-.038-.092zm-.998.754a1.83 1.83 0 0 0-.313 1.052h.1a1.73 1.73 0 0 1 .295-.996l-.083-.056zm-.313 1.052c0 .447.126.812.381 1.09l.074-.068c-.235-.256-.355-.595-.355-1.022h-.1zm.382 1.091c.262.273.6.485 1.011.636l.035-.094a2.54 2.54 0 0 1-.973-.612l-.072.069zm1.011.636c.418.15.873.284 1.365.401l.023-.097c-.489-.117-.941-.25-1.355-.398l-.034.094zm1.365.401l1.454.383.028-.096-1.458-.385-.023.097zm1.454.384c.487.138.932.318 1.333.54l.048-.088c-.409-.226-.861-.409-1.355-.548l-.027.096zm1.335.54a2.56 2.56 0 0 1 .973.847l.083-.056c-.25-.37-.588-.664-1.011-.88l-.046.089zm.974.848c.248.352.375.816.375 1.395h.1c0-.594-.13-1.079-.393-1.453l-.082.058zm.375 1.395a2.73 2.73 0 0 1-.44 1.493l.084.054a2.83 2.83 0 0 0 .456-1.547h-.1zm-.44 1.493c-.293.449-.743.817-1.355 1.102l.042.091c.625-.291 1.092-.67 1.397-1.138l-.084-.055zm-1.355 1.102c-.599.273-1.375.411-2.331.411v.1c.964 0 1.756-.139 2.373-.421l-.042-.091zm6.857-.099l-.025.043.001.001.024-.044zm-1.52-1.52l-.043.025h0l.043-.025zm0-4.448l-.043-.025h0l.043.025zm1.52-1.504l.025.044h0l-.025-.044zm4.4 0l-.025.044h0l.024-.044zm1.52 1.504l-.044.025h0l.043-.025zm0 4.448l-.043-.025h0l.044.025zm-1.52 1.52l.024.044h.001l-.025-.043zm-.592-.864l.025.044h.001l-.026-.043zm1.104-1.152l-.044-.024h0l.044.024zm0-3.456l-.044.024v.001l.044-.025zm-1.104-1.136l-.025.043h.001l.025-.044zm-3.2 0l.025.044v-.001l-.025-.043zm-1.12 1.136l.044.025h0l-.044-.025zm0 3.456l-.044.024h0l.044-.025zm1.12 1.152l-.025.043h.001l.025-.044zm1.584 1.358c-.803 0-1.525-.18-2.168-.538l-.049.087c.659.367 1.398.55 2.216.55v-.1zm-2.167-.537c-.633-.369-1.133-.869-1.502-1.502l-.086.05c.378.647.891 1.16 1.538 1.538l.05-.086zm-1.502-1.502c-.369-.642-.553-1.375-.553-2.199h-.1c0 .84.189 1.59.567 2.249l.087-.05zm-.553-2.199c0-.835.185-1.568.553-2.199l-.086-.05c-.378.649-.567 1.399-.567 2.249h.1zm.553-2.199c.369-.632.869-1.127 1.502-1.486l-.049-.087c-.648.367-1.161.875-1.539 1.522l.086.05zm1.502-1.486c.632-.358 1.354-.538 2.167-.538v-.1c-.829 0-1.568.183-2.217.55l.049.087zm2.167-.538c.825 0 1.552.18 2.183.538l.049-.087c-.648-.367-1.393-.55-2.233-.55v.1zm2.184.538c.643.358 1.143.853 1.501 1.485l.087-.049a3.94 3.94 0 0 0-1.539-1.523l-.049.087zm1.501 1.486c.368.631.553 1.364.553 2.199h.1c0-.85-.188-1.601-.567-2.249l-.086.05zm.553 2.199c0 .824-.185 1.557-.553 2.199l.087.05c.378-.659.567-1.409.567-2.249h-.1zm-.553 2.199a3.95 3.95 0 0 1-1.501 1.501l.05.087a4.05 4.05 0 0 0 1.539-1.539l-.087-.049zm-1.501 1.501c-.642.358-1.37.538-2.184.538v.1c.829 0 1.574-.183 2.232-.55l-.049-.087zm-2.184-.37c.616 0 1.163-.135 1.641-.407l-.049-.087c-.461.262-.991.393-1.591.393v.1zm1.642-.407a2.99 2.99 0 0 0 1.123-1.171l-.088-.048c-.262.483-.624.86-1.085 1.133l.051.086zm1.122-1.171c.282-.51.422-1.094.422-1.752h-.1c0 .643-.137 1.211-.41 1.704l.088.048zm.422-1.752c0-.669-.14-1.253-.422-1.753l-.087.049c.272.482.41 1.049.41 1.703h.1zm-.422-1.752a2.88 2.88 0 0 0-1.123-1.156l-.049.087a2.78 2.78 0 0 1 1.085 1.116l.088-.048zm-1.123-1.155c-.478-.282-1.02-.423-1.626-.423v.1c.589 0 1.114.137 1.575.409l.051-.086zm-1.626-.423c-.605 0-1.148.141-1.625.423l.051.086c.461-.272.985-.409 1.575-.409v-.1zm-1.625.422a2.99 2.99 0 0 0-1.139 1.155l.087.049a2.89 2.89 0 0 1 1.101-1.117l-.049-.087zm-1.139 1.155c-.282.499-.422 1.084-.422 1.753h.1c0-.654.137-1.221.41-1.703l-.087-.049zm-.422 1.753c0 .658.14 1.242.422 1.752l.088-.048c-.273-.493-.41-1.06-.41-1.704h-.1zm.422 1.753c.282.498.661.889 1.138 1.17l.051-.086c-.462-.273-.829-.65-1.102-1.134l-.087.049zm1.139 1.171c.477.271 1.014.407 1.609.407v-.1a3.1 3.1 0 0 1-1.559-.393l-.049.087zM48.878 54h-.05v.05h.05V54zm.656-11.264l-.036-.034h0l.036.034zm3.568-.16l.045.021.015-.033-.027-.025-.033.037zm-.384.848l-.033.038.051.044.028-.061-.045-.021zm-.56-.304l-.017.047.002.001.014-.048zm-1.792.288l-.036-.035h0l.036.035zm-.384 2.464h-.05v.003l.05-.003zm.032.528h.05v-.003l-.05.003zm0 7.6v.05h.05V54h-.05zm-2.64-7.456h-.05v.05h.05v-.05zm0-.944v-.05h-.05v.05h.05zm5.2 0h.05v-.05h-.05v.05zm0 .944v.05h.05v-.05h-.05zM48.928 54v-9.456h-.1V54h.1zm0-9.456c0-.736.215-1.326.642-1.773l-.072-.069c-.448.47-.67 1.085-.67 1.842h.1zm.642-1.773c.425-.446 1.04-.672 1.852-.672v-.1c-.831 0-1.475.232-1.924.704l.072.069zm1.852-.672a3.31 3.31 0 0 1 .914.126l.028-.096c-.303-.087-.617-.13-.942-.13v.1zm.914.126c.293.084.536.214.732.389l.067-.075c-.209-.187-.467-.324-.772-.411l-.028.096zm.72.331l-.384.848.091.041.384-.848-.091-.041zm-.306.831c-.166-.144-.359-.248-.578-.314l-.029.096c.207.062.387.16.542.294l.066-.076zm-.576-.313c-.219-.077-.454-.115-.705-.115v.1c.24 0 .464.036.672.109l.033-.094zm-.705-.115c-.489 0-.872.136-1.14.415l.072.069c.244-.254.597-.385 1.068-.385v-.1zm-1.14.415c-.268.279-.398.688-.398 1.219h.1c0-.515.126-.895.37-1.149l-.072-.069zm-.398 1.219v1.28h.1v-1.28h-.1zm0 1.283l.032.528.1-.006-.032-.528-.1.006zm.032.525V54h.1v-7.6h-.1zm.05 7.55h-1.136v.1h1.136v-.1zm-2.59-7.406V45.6h-.1v.944h.1zm-.05-.894h5.2v-.1h-5.2v.1zm5.15-.05v.944h.1V45.6h-.1zm.05.894h-5.2v.1h5.2v-.1zm3.806 6.946l-.035.035h0l.035-.035zm-.64-9.696v-.05h-.05v.05h.05zm1.136 0h.05v-.05h-.05v.05zm.368 8.96l-.037.034.001.001.036-.035zm2.336-.032l.045-.022-.029-.058-.049.043.033.038zm.4.816l.033.037.028-.025-.017-.034-.045.022zm-.816.448l-.014-.048h-.001l.015.048zm-4.928-7.392h-.05v.05h.05v-.05zm0-.944v-.05h-.05v.05h.05zm5.2 0h.05v-.05h-.05v.05zm0 .944v.05h.05v-.05h-.05zm-1.232 7.486c-.78 0-1.374-.211-1.789-.625l-.071.071c.439.439 1.061.655 1.859.655v-.1zm-1.789-.625c-.415-.415-.625-1.003-.625-1.773h-.1c0 .788.216 1.405.655 1.843l.071-.071zm-.625-1.773v-7.888h-.1v7.888h.1zm-.05-7.838h1.136v-.1H55.74v.1zm1.086-.05v7.824h.1v-7.824h-.1zm0 7.824c0 .499.125.891.381 1.17l.074-.068c-.234-.255-.355-.619-.355-1.102h-.1zm.382 1.171c.268.279.645.415 1.124.415v-.1c-.46 0-.808-.13-1.052-.385l-.072.069zm1.124.415c.512 0 .94-.147 1.281-.444l-.066-.075c-.32.279-.724.42-1.215.42v.1zm1.203-.46l.4.816.09-.044-.4-.816-.09.044zm.411.757c-.218.197-.483.343-.797.437l.029.096c.326-.098.605-.251.835-.459l-.067-.074zm-.797.437a3.17 3.17 0 0 1-.945.142v.1a3.27 3.27 0 0 0 .975-.146l-.03-.096zm-4.863-7.344V45.6h-.1v.944h.1zm-.05-.894h5.2v-.1h-5.2v.1zm5.15-.05v.944h.1V45.6h-.1zm.05.894h-5.2v.1h5.2v-.1zM65.044 54l-.047.018.012.032h.035V54zm-3.168-8.4v-.05h-.072l.026.068.047-.018zm1.088 0l.047-.017-.012-.033h-.035v.05zm2.88 7.792v.05h.072l-.025-.067-.047.017zm-.496 0l-.047-.018-.026.068h.073v-.05zm2.96-7.792v-.05h-.034l-.012.032.047.018zm.976 0l.047-.018-.012-.032h-.035v.05zm2.928 7.792v.05h.072l-.025-.068-.047.018zm-.496 0l-.047-.018-.025.068h.072v-.05zm2.928-7.792v-.05h-.035l-.012.032.047.018zm1.04 0l.047.018.026-.068h-.072v.05zM72.5 54v.05h.035l.012-.032L72.5 54zm-1.072 0l-.047.018.012.032h.034V54zm-2.816-7.328v-.05h-.073l.026.068.047-.018zm.336 0l.047.018.026-.068h-.073v.05zM66.116 54v.05h.034l.012-.032-.047-.018zm-1.025-.018l-3.168-8.4-.094.035 3.168 8.4.094-.035zm-3.215-8.332h1.088v-.1h-1.088v.1zm1.041-.033l2.88 7.792.094-.035-2.88-7.792-.094.035zm2.927 7.725h-.496v.1h.496v-.1zm-.449.068l2.96-7.792-.094-.036-2.96 7.792.093.036zm2.913-7.76h.976v-.1h-.976v.1zm.929-.032l2.928 7.792.094-.035-2.928-7.792-.094.035zm2.975 7.724h-.496v.1h.496v-.1zm-.449.068l2.928-7.792-.094-.035-2.928 7.792.094.035zm2.881-7.76h1.04v-.1h-1.04v.1zm.993-.068l-3.184 8.4.093.035 3.184-8.4-.093-.035zM72.5 53.95h-1.072v.1H72.5v-.1zm-1.025.032l-2.816-7.328-.093.036 2.816 7.328.093-.036zm-2.863-7.26h.336v-.1h-.336v.1zm.289-.068l-2.832 7.328.093.036 2.832-7.328-.093-.036zm-2.785 7.296h-1.072v.1h1.072v-.1zm17.733.05h-.05v.05h.05V54zm0-1.856h.051l-.001-.008-.049.008zm-.048-.304h-.051l.001.008.049-.008zm-.608-4.752l-.035.036h.001l.034-.036zm-3.328-.304l-.017-.047h0l.017.047zm-1.248.72l-.043.026.031.051.045-.039-.033-.038zm-.512-.848l-.032-.038-.032.028.022.036.043-.026zm1.536-.832l.015.048h.001l-.016-.047zm4.4.512l-.034.037h.001l.033-.037zM84.936 54v.05h.05V54h-.05zm-5.632-.224l-.021.045.001.001.02-.046zm-1.056-.864l-.042.028h0l.041-.028zm-.064-2.464l-.043-.025h0l.043.025zm1.024-.864l.021.045h.001l-.021-.045zm4.816-.336h.05v-.05h-.05v.05zm0 .848v.05h.05v-.05h-.05zm-4.56.432l-.033-.037h-.001l.034.037zm.096 2.224l.031-.04h0l-.031.04zm3.216 0l.027.042h0l-.027-.042zm1.024-1.28l.048-.016-.044-.134-.051.131.047.018zm.256.784l.047.018.006-.017-.006-.017-.048.016zm-1.12 1.328l-.026-.043h0l.027.042zm.962.416v-1.856h-.1V54h.1zm-.001-1.864l-.048-.304-.099.016.048.304.099-.016zm-.047-.296v-3.104h-.1v3.104h.1zm0-3.104c0-.724-.206-1.288-.624-1.684l-.069.073c.393.372.592.907.592 1.612h.1zm-.623-1.684c-.407-.396-1.014-.59-1.811-.59v.1c.782 0 1.359.19 1.741.562l.07-.072zm-1.811-.59a4.49 4.49 0 0 0-1.569.275l.035.094a4.39 4.39 0 0 1 1.535-.269v-.1zm-1.569.275c-.495.183-.917.426-1.264.729l.066.075c.336-.294.747-.531 1.232-.711l-.035-.094zm-1.188.741l-.512-.848-.086.052.512.848.086-.052zm-.522-.784c.421-.358.927-.632 1.519-.822l-.031-.095c-.603.194-1.121.474-1.553.841l.065.076zm1.52-.823c.592-.201 1.216-.301 1.872-.301v-.1c-.666 0-1.301.102-1.904.307l.032.095zm1.872-.301c1.08 0 1.903.27 2.478.803l.068-.073c-.599-.555-1.45-.829-2.546-.829v.1zm2.479.803c.583.521.879 1.321.879 2.411h.1c0-1.107-.301-1.939-.913-2.485l-.067.075zm.879 2.411V54h.1v-5.216h-.1zm.05 5.166h-1.088v.1h1.088v-.1zm-3.984.08c-.624 0-1.166-.101-1.628-.3l-.04.092c.477.206 1.033.308 1.668.308v-.1zm-1.627-.299c-.452-.21-.796-.493-1.036-.847l-.083.056c.251.371.611.665 1.076.881l.042-.091zm-1.035-.846c-.24-.364-.36-.782-.36-1.253h-.1c0 .489.125.925.376 1.308l.084-.055zm-.36-1.253a2.28 2.28 0 0 1 .297-1.159l-.087-.05a2.38 2.38 0 0 0-.311 1.209h.1zm.297-1.159c.207-.352.54-.634 1.002-.844l-.041-.091c-.477.217-.827.511-1.046.884l.086.051zm1.002-.844c.471-.22 1.103-.331 1.899-.331v-.1c-.804 0-1.452.112-1.941.341l.042.091zm1.899-.331h2.896v-.1h-2.896v.1zm2.846-.05v.848h.1v-.848h-.1zm.05.798H81.16v.1h2.864v-.1zm-2.864 0c-.813 0-1.395.144-1.729.445l.067.074c.305-.275.855-.419 1.663-.419v-.1zm-1.73.445c-.32.298-.48.668-.48 1.109h.1c0-.413.149-.757.448-1.035l-.068-.073zm-.48 1.109a1.43 1.43 0 0 0 .579 1.192l.061-.079a1.33 1.33 0 0 1-.541-1.112h-.1zm.579 1.192c.385.297.92.442 1.599.442v-.1c-.665 0-1.176-.143-1.537-.422l-.061.079zm1.599.442c.648 0 1.207-.146 1.675-.44l-.053-.085c-.449.282-.989.424-1.621.424v.1zm1.675-.44c.479-.305.827-.74 1.044-1.304l-.093-.036c-.21.545-.544.963-1.004 1.256l.054.084zm.95-1.307l.256.784.095-.031-.256-.784-.095.031zm.257.751c-.209.544-.575.978-1.1 1.303l.053.085c.542-.336.923-.787 1.14-1.353l-.093-.036zm-1.1 1.304c-.513.324-1.164.488-1.957.488v.1c.807 0 1.478-.167 2.011-.504l-.053-.085zm6.552.458h-.05v.05h.05V54zm0-8.4v-.05h-.05v.05h.05zm1.088 0h.05v-.05h-.05v.05zm0 2.288l-.048.014.098-.014h-.05zm-.112-.4l-.047-.017-.006.015.004.016.048-.014zm1.184-1.456l.026.043h.001l-.026-.043zm2.064-.512h.05v-.05h-.05v.05zm0 1.104v.05h.05v-.05h-.05zm-.128 0l-.013.05h.013v-.05zm-2.208.8l.036.034h0l-.037-.034zM90.598 54v.05h.05V54h-.05zm-1.086 0v-8.4h-.1V54h.1zm-.05-8.35h1.088v-.1h-1.088v.1zm1.038-.05v2.288h.1V45.6h-.1zm.098 2.274l-.112-.4-.096.027.112.4.096-.027zm-.113-.369c.231-.63.618-1.106 1.163-1.43l-.051-.086c-.565.337-.967.832-1.205 1.482l.094.034zm1.163-1.431c.545-.335 1.223-.505 2.038-.505v-.1c-.828 0-1.526.172-2.09.519l.052.085zm1.988-.555v1.104h.1V45.52h-.1zm.05 1.054h-.02-.02-.02-.02-.02-.02l-.007.1h.02.02.02.02.02.02l.007-.1zm-.116.002c-.047-.012-.093-.017-.14-.017v.1c.038 0 .077.005.116.014l.024-.097zm-.14-.017c-.896 0-1.604.276-2.117.832l.074.068c.49-.532 1.169-.8 2.043-.8v-.1zm-2.116.832c-.513.545-.766 1.322-.766 2.322h.1c0-.984.248-1.733.738-2.254l-.073-.068zm-.766 2.322V54h.1v-4.288h-.1zm.05 4.238h-1.136v.1h1.136v-.1zm7.787-.414l-.025.044h.001l.024-.044zm-1.552-1.52l-.043.025h0l.043-.025zm-.032-4.432l-.044-.025v.001l.044.024zm1.472-1.504l.025.043h0l-.026-.043zm4.208-.016l-.026.043.001.001.025-.044zm1.456 1.504l-.044.024h0l.044-.024zm.512 2.4l-.05-.008v.008h.05zm0 .176v.05h.05v-.05h-.05zm-7.312 0h-.05v.05h.05v-.05zm0-.848v-.05h-.05v.05h.05zm6.704 0l.03.04.12-.09h-.15v.05zm-.448.336h-.05v.1l.08-.06-.03-.04zm-.4-1.616l-.045.023.001.001.044-.025zm-1.056-1.12l.025-.043h0l-.025.043zm-3.104 0l-.025-.043h0l.025.043zm-1.072 1.12l.044.023h0l-.044-.023zm.032 3.52l-.044.025.001.001.043-.026zm1.184 1.136l-.024.044h.001l.023-.044zm3.168.128l-.019-.046h-.001l.02.046zm1.152-.832l.037-.033-.038-.044-.037.044.038.033zm.64.736l.038.032.027-.033-.028-.032-.037.033zm-1.408 1.024l-.02-.046h0l.02.046zm-1.84.302c-.868 0-1.627-.18-2.28-.538l-.048.088c.67.367 1.446.55 2.328.55v-.1zm-2.28-.538c-.654-.369-1.165-.87-1.533-1.502l-.086.05c.378.648.902 1.161 1.571 1.538l.049-.087zm-1.533-1.501c-.368-.642-.553-1.375-.553-2.199h-.1c0 .84.189 1.59.567 2.249l.087-.05zm-.553-2.199c0-.825.174-1.552.522-2.184l-.088-.048c-.356.648-.534 1.393-.534 2.232h.1zm.522-2.183c.358-.633.843-1.127 1.454-1.486l-.05-.086c-.626.367-1.123.875-1.49 1.522l.087.049zm1.454-1.486a4.01 4.01 0 0 1 2.087-.553v-.1a4.11 4.11 0 0 0-2.138.567l.051.086zm2.087-.553c.781 0 1.471.179 2.07.537l.051-.086c-.616-.368-1.324-.551-2.121-.551v.1zm2.071.538c.61.347 1.089.841 1.437 1.484l.088-.048a3.79 3.79 0 0 0-1.476-1.524l-.049.087zm1.437 1.485c.347.631.522 1.364.522 2.2h.1c0-.85-.178-1.6-.535-2.248l-.087.048zm.522 2.2a.96.96 0 0 1-.016.168l.099.016a1.13 1.13 0 0 0 .017-.184h-.1zm-.016.176v.02.02.02.02.02.02.02.02l.1.015v-.02-.02-.02-.02-.02-.02-.02-.02l-.1-.015zm.05.126h-7.312v.1h7.312v-.1zm-7.262.05v-.848h-.1v.848h.1zm-.05-.798h6.704v-.1h-6.704v.1zm6.674-.09l-.448.336.06.08.448-.336-.06-.08zm-.368.376c0-.615-.136-1.163-.407-1.641l-.087.049c.262.461.394.991.394 1.591h.1zm-.406-1.639c-.26-.488-.619-.868-1.075-1.139l-.051.086c.44.262.786.628 1.037 1.1l.089-.047zm-1.075-1.139c-.457-.272-.983-.407-1.577-.407v.1c.578 0 1.087.132 1.526.393l.051-.086zm-1.577-.407a3.08 3.08 0 0 0-1.578.407l.05.086c.45-.262.959-.393 1.527-.393v-.1zm-1.578.407a2.83 2.83 0 0 0-1.091 1.14l.088.047a2.73 2.73 0 0 1 1.053-1.1l-.05-.086zm-1.091 1.14c-.26.488-.39 1.046-.39 1.672h.1c0-.612.126-1.153.378-1.625l-.088-.047zm-.39 1.672v.176h.1v-.176h-.1zm0 .176c0 .647.14 1.221.422 1.721l.087-.049c-.273-.482-.41-1.039-.41-1.671h-.1zm.423 1.722c.293.488.694.873 1.203 1.154l.048-.088c-.494-.273-.882-.646-1.165-1.118l-.086.051zm1.204 1.155c.52.271 1.109.406 1.767.406v-.1c-.644 0-1.217-.132-1.721-.394l-.046.089zm1.767.406c.518 0 .999-.092 1.443-.276l-.039-.092c-.43.179-.898.268-1.404.268v.1zm1.442-.276c.456-.184.846-.466 1.172-.846l-.076-.065c-.315.367-.693.64-1.133.818l.037.093zm1.096-.846l.64.736.075-.066-.64-.736-.075.066zm.639.671c-.368.442-.83.778-1.389 1.01l.039.092c.572-.238 1.048-.584 1.427-1.038l-.077-.064zm-1.389 1.01c-.548.232-1.154.348-1.82.348v.1c.677 0 1.298-.118 1.859-.356l-.039-.092zm12.631-5.874v-.05h-.05v.05h.05zm5.92 0h.05v-.05h-.05v.05zm0 1.008v.05h.05v-.05h-.05zm-5.92 0h-.05v.05h.05v-.05zm.128 4.16h-.05v.05h.05v-.05zm6.736 0h.05v-.05h-.05v.05zm0 1.024v.05h.05V54h-.05zm-7.92 0h-.05v.05h.05V54zm0-11.2v-.05h-.05v.05h.05zm7.68 0h.05v-.05h-.05v.05zm0 1.024v.05h.05v-.05h-.05zm-6.496 0v-.05h-.05v.05h.05zm-.128 4.034h5.92v-.1h-5.92v.1zm5.87-.05v1.008h.1v-1.008h-.1zm.05.958h-5.92v.1h5.92v-.1zm-5.87.05v-1.008h-.1v1.008h.1zm.078 4.21h6.736v-.1h-6.736v.1zm6.686-.05V54h.1v-1.024h-.1zm.05.974h-7.92v.1h7.92v-.1zm-7.87.05V42.8h-.1V54h.1zm-.05-11.15h7.68v-.1h-7.68v.1zm7.63-.05v1.024h.1V42.8h-.1zm.05.974h-6.496v.1h6.496v-.1zm-6.546.05v9.152h.1v-9.152h-.1zm16.849 2.096l-.023.044.001.001.022-.045zm1.216 1.184l-.044.024h.001l.043-.024zm.448 6.896v.05h.05V54h-.05zm-1.136 0h-.05v.05h.05V54zm-.672-6.768l-.036.035h.001l.035-.035zm-3.424-.32l.024.044h0l-.024-.044zm-1.024 1.04l-.044-.024h0l.044.023zM127.123 54v.05h.05V54h-.05zm-1.136 0h-.05v.05h.05V54zm0-8.4v-.05h-.05v.05h.05zm1.088 0h.05v-.05h-.05v.05zm0 2.304l-.046.019.096-.019h-.05zm-.176-.432l-.045-.02-.009.019.008.02.046-.019zm1.28-1.424l.026.043h0l-.026-.043zm2.096-.478c.677 0 1.266.132 1.769.394l.047-.089c-.521-.271-1.126-.406-1.816-.406v.1zm1.77.395c.513.251.911.638 1.194 1.163l.088-.048a2.76 2.76 0 0 0-1.238-1.205l-.044.09zm1.195 1.163c.293.524.441 1.187.441 1.992h.1c0-.816-.15-1.498-.454-2.04l-.087.049zm.441 1.992V54h.1v-4.88h-.1zm.05 4.83h-1.136v.1h1.136v-.1zm-1.086.05v-4.768h-.1V54h.1zm0-4.768c0-.893-.226-1.575-.686-2.035l-.071.071c.435.435.657 1.087.657 1.965h.1zm-.685-2.035c-.449-.471-1.083-.703-1.893-.703v.1c.791 0 1.395.226 1.82.672l.073-.069zm-1.893-.703c-.604 0-1.135.124-1.592.374l.048.088c.44-.241.954-.362 1.544-.362v-.1zm-1.591.374a2.52 2.52 0 0 0-1.045 1.061l.089.047c.24-.45.575-.79 1.003-1.02l-.047-.088zm-1.045 1.061c-.239.457-.358 1.009-.358 1.655h.1c0-.634.117-1.17.347-1.609l-.089-.046zm-.358 1.655V54h.1v-4.416h-.1zm.05 4.366h-1.136v.1h1.136v-.1zm-1.086.05v-8.4h-.1V54h.1zm-.05-8.35h1.088v-.1h-1.088v.1zm1.038-.05v2.304h.1V45.6h-.1zm.097 2.285l-.176-.432-.093.038.176.432.093-.038zm-.177-.393c.263-.598.682-1.065 1.26-1.401l-.051-.086c-.595.346-1.029.829-1.3 1.447l.091.04zm1.26-1.401c.578-.347 1.267-.521 2.07-.521v-.1c-.818 0-1.526.178-2.121.535l.051.086zm11.411 10.757l.015-.048h0l-.015.048zm-1.712-.96l-.042-.028-.023.035.03.029.035-.036zm.576-.864l.033-.037-.043-.038-.032.048.042.028zm1.456.832l.017-.047h0l-.017.047zm4.208-.432l-.035-.036h0l.035.035zm.752-4.4l-.05-.006v.006h.05zm.16-1.44l.051.006-.001-.009-.05.004zm-.112-1.44h-.05v.004l.05-.004zm0-2.544v-.05h-.05v.05h.05zm1.088 0h.05v-.05h-.05v.05zm-1.072 10.56l-.034-.036h-.001l.035.036zm-5.504-2.992l-.024.044h0l.024-.044zm-1.52-1.456l-.043.025v.001l.043-.026zm0-4.24l-.043-.026h0l.043.026zm1.52-1.44l.023.044h0l-.023-.044zm4.176-.048l.023-.044h0l-.023.044zm1.424 1.376l.043-.025h0l-.043.025zm0 4.448l.043.025h0l-.043-.025zm-1.424 1.392l.024.044h0l-.024-.044zm-.256-.912l.023.044h.001l-.024-.044zm1.136-1.088l.043.026v-.001l-.043-.025zm-1.136-4.288l-.024.044h0l.024-.044zm-3.296 0l.023.044h.001l-.024-.044zm-1.136 1.072l-.043-.026v.001l.043.025zm0 3.216l-.044.025.001.001.043-.026zm1.136 1.088l-.024.044h.001l.023-.044zm1.744 4.846c-.763 0-1.494-.111-2.193-.334l-.03.095c.709.226 1.45.338 2.223.338v-.1zm-2.193-.334c-.698-.222-1.262-.539-1.693-.949l-.069.072c.444.422 1.022.746 1.732.971l.03-.095zm-1.685-.885l.576-.864-.084-.055-.576.864.084.055zm.501-.854c.4.357.891.637 1.472.842l.034-.094c-.571-.201-1.051-.475-1.44-.822l-.066.075zm1.472.842c.592.215 1.217.323 1.873.323v-.1a5.34 5.34 0 0 1-1.839-.317l-.034.094zm1.873.323c1.073 0 1.873-.252 2.387-.767l-.07-.071c-.489.488-1.257.737-2.317.737v.1zm2.387-.766c.515-.504.767-1.288.767-2.34h-.1c0 1.038-.249 1.791-.737 2.268l.07.071zm.767-2.34v-2.096h-.1v2.096h.1zm0-2.09l.16-1.44-.1-.011-.16 1.44.1.011zm.16-1.449l-.112-1.44-.1.008.112 1.44.1-.008zm-.112-1.436V45.6h-.1v2.544h.1zm-.05-2.494h1.088v-.1h-1.088v.1zm1.038-.05v7.376h.1V45.6h-.1zm0 7.376c0 1.444-.356 2.489-1.056 3.148l.068.073c.729-.685 1.088-1.763 1.088-3.22h-.1zm-1.057 3.148c-.691.671-1.722 1.01-3.101 1.01v.1c1.394 0 2.454-.343 3.171-1.038l-.07-.072zm-3.309-2.494c-.793 0-1.504-.169-2.137-.506l-.047.088c.648.346 1.377.518 2.184.518v-.1zm-2.136-.506c-.632-.348-1.133-.827-1.501-1.438l-.086.052c.378.626.891 1.118 1.539 1.474l.048-.088zm-1.501-1.437c-.358-.61-.537-1.311-.537-2.103h-.1c0 .808.183 1.526.551 2.153l.086-.051zm-.537-2.103c0-.792.179-1.487.537-2.086l-.086-.051c-.368.617-.551 1.33-.551 2.138h.1zm.537-2.086c.368-.611.868-1.085 1.5-1.422l-.047-.088a3.92 3.92 0 0 0-1.539 1.458l.086.052zm1.5-1.422c.633-.337 1.344-.506 2.137-.506v-.1c-.807 0-1.536.172-2.184.518l.047.088zm2.137-.506c.739 0 1.403.153 1.993.458l.046-.089c-.605-.313-1.285-.47-2.039-.47v.1zm1.993.458a3.42 3.42 0 0 1 1.404 1.357l.086-.05a3.51 3.51 0 0 0-1.444-1.395l-.046.089zm1.404 1.357c.346.599.521 1.331.521 2.199h.1c0-.881-.177-1.632-.535-2.249l-.086.05zm.521 2.199c0 .868-.175 1.6-.521 2.199l.086.05c.358-.617.535-1.368.535-2.249h-.1zm-.521 2.199c-.348.6-.816 1.058-1.405 1.373l.048.088c.605-.325 1.087-.795 1.443-1.411l-.086-.05zm-1.405 1.373c-.589.316-1.253.474-1.992.474v.1c.754 0 1.434-.162 2.04-.486l-.048-.088zm-1.88-.434c.626 0 1.183-.13 1.671-.39l-.047-.088c-.471.252-1.012.378-1.624.378v.1zm1.672-.39c.488-.271.873-.639 1.155-1.106l-.086-.052c-.273.451-.645.808-1.117 1.07l.048.087zm1.155-1.106c.282-.478.423-1.026.423-1.641h-.1c0 .6-.137 1.13-.409 1.591l.086.051zm.423-1.641c0-.616-.141-1.158-.423-1.626l-.086.052c.272.45.409.974.409 1.574h.1zm-.423-1.626c-.282-.467-.668-.83-1.156-1.09l-.047.088c.473.252.845.603 1.117 1.054l.086-.052zm-1.155-1.09c-.488-.271-1.046-.406-1.672-.406v.1c.611 0 1.152.132 1.624.394l.048-.087zm-1.672-.406c-.616 0-1.173.135-1.672.406l.048.088c.483-.262 1.024-.394 1.624-.394v-.1zm-1.672.406c-.487.26-.873.624-1.155 1.09l.086.052c.272-.451.644-.802 1.116-1.054l-.047-.088zm-1.155 1.091c-.272.467-.407 1.01-.407 1.625h.1c0-.601.132-1.125.393-1.575l-.086-.05zm-.407 1.625c0 .615.135 1.163.406 1.641l.087-.049c-.261-.461-.393-.991-.393-1.591h-.1zm.407 1.642c.282.466.667.835 1.155 1.106l.048-.087c-.472-.263-.845-.619-1.117-1.07l-.086.052zm1.156 1.106c.498.26 1.056.39 1.671.39v-.1c-.601 0-1.142-.126-1.625-.378l-.046.089zM150.633 54h-.05v.05h.05V54zm0-8.4v-.05h-.05v.05h.05zm1.136 0h.05v-.05h-.05v.05zm0 8.4v.05h.05V54h-.05zm-1.152-11.632l.034.037.001-.001-.035-.035zm1.184 1.136l-.035-.035-.001.001.036.034zM150.683 54v-8.4h-.1V54h.1zm-.05-8.35h1.136v-.1h-1.136v.1zm1.086-.05V54h.1v-8.4h-.1zm.05 8.35h-1.136v.1h1.136v-.1zm-.56-10.256c-.222 0-.406-.075-.557-.225l-.07.071c.169.17.38.255.627.255v-.1zm-.557-.225c-.15-.151-.225-.33-.225-.541h-.1c0 .237.085.442.255.611l.07-.071zm-.225-.541c0-.21.075-.384.224-.523l-.068-.073c-.17.159-.256.359-.256.597h.1zm.225-.525c.151-.15.335-.225.557-.225v-.1c-.247 0-.458.085-.627.255l.07.071zm.557-.225c.223 0 .408.071.558.211l.068-.073c-.17-.159-.38-.237-.626-.237v.1zm.558.211c.15.14.224.313.224.523h.1a.78.78 0 0 0-.256-.597l-.068.073zm.224.523c0 .222-.075.406-.225.557l.07.071c.17-.17.255-.38.255-.627h-.1zm-.226.558c-.139.149-.323.224-.556.224v.1c.257 0 .469-.084.629-.256l-.073-.068zm10.685 2.45l-.023.044.001.001.022-.045zm1.216 1.184l-.044.024h0l.044-.024zm.448 6.896v.05h.05V54h-.05zm-1.136 0h-.05v.05h.05V54zm-.672-6.768l-.036.035h.001l.035-.035zm-3.424-.32l.024.044h0l-.024-.044zm-1.024 1.04l-.044-.024h0l.044.023zM157.506 54v.05h.05V54h-.05zm-1.136 0h-.05v.05h.05V54zm0-8.4v-.05h-.05v.05h.05zm1.088 0h.05v-.05h-.05v.05zm0 2.304l-.046.019.096-.019h-.05zm-.176-.432l-.046-.02-.008.019.008.02.046-.019zm1.28-1.424l.025.043h.001l-.026-.043zm2.096-.478c.676 0 1.265.132 1.769.394l.046-.089c-.52-.271-1.126-.406-1.815-.406v.1zm1.77.395c.513.251.911.638 1.194 1.163l.088-.048a2.77 2.77 0 0 0-1.238-1.205l-.044.09zm1.194 1.163c.294.524.442 1.187.442 1.992h.1c0-.816-.15-1.498-.454-2.04l-.088.049zm.442 1.992V54h.1v-4.88h-.1zm.05 4.83h-1.136v.1h1.136v-.1zm-1.086.05v-4.768h-.1V54h.1zm0-4.768c0-.893-.226-1.575-.687-2.035l-.07.071c.435.435.657 1.087.657 1.965h.1zm-.686-2.035c-.449-.471-1.082-.703-1.892-.703v.1c.79 0 1.394.226 1.82.672l.072-.069zm-1.892-.703c-.604 0-1.136.124-1.592.374l.048.088c.439-.241.954-.362 1.544-.362v-.1zm-1.592.374c-.446.24-.794.594-1.044 1.061l.088.047c.241-.45.575-.79 1.004-1.02l-.048-.088zm-1.044 1.061c-.24.457-.358 1.009-.358 1.655h.1c0-.634.116-1.17.346-1.609l-.088-.046zm-.358 1.655V54h.1v-4.416h-.1zm.05 4.366h-1.136v.1h1.136v-.1zm-1.086.05v-8.4h-.1V54h.1zm-.05-8.35h1.088v-.1h-1.088v.1zm1.038-.05v2.304h.1V45.6h-.1zm.096 2.285l-.176-.432-.092.038.176.432.092-.038zm-.176-.393a2.96 2.96 0 0 1 1.259-1.401l-.05-.086a3.06 3.06 0 0 0-1.301 1.447l.092.04zm1.26-1.401c.577-.347 1.267-.521 2.07-.521v-.1c-.818 0-1.526.178-2.122.535l.052.086zm11.298 7.445l-.024.044h0l.024-.044zm-1.552-1.52l-.043.025h0l.043-.025zm-.032-4.432l-.043-.025v.001l.043.024zm1.472-1.504l.026.043h0l-.026-.043zm4.208-.016l-.025.043.001.001.024-.044zm1.456 1.504l-.044.024h.001l.043-.024zm.512 2.4l-.05-.008v.008h.05zm0 .176v.05h.05v-.05h-.05zm-7.312 0h-.05v.05h.05v-.05zm0-.848v-.05h-.05v.05h.05zm6.704 0l.03.04.12-.09h-.15v.05zm-.448.336h-.05v.1l.08-.06-.03-.04zm-.4-1.616l-.044.023.001.001.043-.025zm-1.056-1.12l.026-.043h0l-.026.043zm-3.104 0l-.025-.043h0l.025.043zm-1.072 1.12l.045.023h0l-.045-.023zm.032 3.52l-.043.025.001.001.042-.026zm1.184 1.136l-.024.044h.001l.023-.044zm3.168.128l-.018-.046h-.001l.019.046zm1.152-.832l.038-.033-.038-.044-.038.044.038.033zm.64.736l.039.032.027-.033-.028-.032-.038.033zm-1.408 1.024l-.019-.046h0l.019.046zm-1.84.302c-.867 0-1.627-.18-2.28-.538l-.048.088c.67.367 1.447.55 2.328.55v-.1zm-2.279-.538c-.654-.369-1.165-.87-1.533-1.502l-.087.05c.378.648.902 1.161 1.571 1.538l.049-.087zm-1.533-1.501c-.369-.642-.554-1.375-.554-2.199h-.1c0 .84.189 1.59.567 2.249l.087-.05zm-.554-2.199c0-.825.175-1.552.522-2.184l-.087-.048c-.357.648-.535 1.393-.535 2.232h.1zm.522-2.183c.358-.633.843-1.127 1.454-1.486l-.051-.086a4.04 4.04 0 0 0-1.49 1.522l.087.049zm1.454-1.486c.621-.368 1.316-.553 2.086-.553v-.1c-.787 0-1.5.189-2.137.567l.051.086zm2.086-.553c.782 0 1.471.179 2.071.537l.051-.086c-.617-.368-1.324-.551-2.122-.551v.1zm2.072.538c.61.347 1.089.841 1.436 1.484l.088-.048a3.78 3.78 0 0 0-1.475-1.524l-.049.087zm1.437 1.485c.347.631.521 1.364.521 2.2h.1c0-.85-.177-1.6-.534-2.248l-.087.048zm.521 2.2a1.06 1.06 0 0 1-.015.168l.099.016c.011-.066.016-.128.016-.184h-.1zm-.016.176v.02.02.02.02.02.02.02.02l.1.015v-.02-.02-.02-.02-.02-.02-.02-.02l-.1-.015zm.05.126h-7.312v.1h7.312v-.1zm-7.262.05v-.848h-.1v.848h.1zm-.05-.798h6.704v-.1h-6.704v.1zm6.674-.09l-.448.336.06.08.448-.336-.06-.08zm-.368.376c0-.615-.135-1.163-.406-1.641l-.087.049c.262.461.393.991.393 1.591h.1zm-.405-1.639c-.261-.488-.619-.868-1.075-1.139l-.051.086c.44.262.785.628 1.037 1.1l.089-.047zm-1.075-1.139c-.457-.272-.983-.407-1.578-.407v.1c.579 0 1.088.132 1.527.393l.051-.086zm-1.578-.407a3.08 3.08 0 0 0-1.577.407l.051.086c.45-.262.958-.393 1.526-.393v-.1zm-1.577.407c-.467.271-.83.652-1.091 1.14l.089.047c.251-.472.602-.838 1.053-1.1l-.051-.086zm-1.091 1.14c-.26.488-.39 1.046-.39 1.672h.1c0-.612.127-1.153.379-1.625l-.089-.047zm-.39 1.672v.176h.1v-.176h-.1zm0 .176c0 .647.141 1.221.423 1.721l.087-.049c-.273-.482-.41-1.039-.41-1.671h-.1zm.424 1.722a3.15 3.15 0 0 0 1.202 1.154l.049-.088c-.494-.273-.882-.646-1.166-1.118l-.085.051zm1.203 1.155c.52.271 1.11.406 1.767.406v-.1c-.643 0-1.216-.132-1.72-.394l-.047.089zm1.767.406c.518 0 1-.092 1.444-.276l-.039-.092a3.63 3.63 0 0 1-1.405.268v.1zm1.443-.276c.456-.184.846-.466 1.171-.846l-.076-.065c-.314.367-.692.64-1.132.818l.037.093zm1.096-.846l.64.736.075-.066-.64-.736-.075.066zm.639.671c-.368.442-.83.778-1.389 1.01l.039.092c.572-.238 1.048-.584 1.427-1.038l-.077-.064zm-1.389 1.01c-.548.232-1.154.348-1.821.348v.1c.678 0 1.298-.118 1.86-.356l-.039-.092zm6.972-.146l-.025.044h.001l.024-.044zm-1.552-1.52l-.044.025h.001l.043-.025zm-.032-4.432l-.044-.025v.001l.044.024zm1.472-1.504l.025.043h0l-.025-.043zm4.208-.016l-.026.043.001.001.025-.044zm1.456 1.504l-.044.024h0l.044-.024zm.512 2.4l-.05-.008v.008h.05zm0 .176v.05h.05v-.05h-.05zm-7.312 0h-.05v.05h.05v-.05zm0-.848v-.05h-.05v.05h.05zm6.704 0l.03.04.12-.09h-.15v.05zm-.448.336h-.05v.1l.08-.06-.03-.04zm-.4-1.616l-.044.023v.001l.044-.025zm-1.056-1.12l.025-.043h0l-.025.043zm-3.104 0l-.025-.043h0l.025.043zm-1.072 1.12l.044.023h0l-.044-.023zm.032 3.52l-.044.025.001.001.043-.026zm1.184 1.136l-.025.044h.002l.023-.044zm3.168.128l-.019-.046h0l.019.046zm1.152-.832l.037-.033-.038-.044-.037.044.038.033zm.64.736l.038.032.027-.033-.028-.032-.037.033zm-1.408 1.024l-.019-.046h-.001l.02.046zm-1.84.302c-.868 0-1.627-.18-2.28-.538l-.048.088c.669.367 1.446.55 2.328.55v-.1zm-2.28-.538c-.654-.369-1.164-.87-1.533-1.502l-.086.05c.377.648.901 1.161 1.57 1.538l.049-.087zm-1.533-1.501c-.368-.642-.553-1.375-.553-2.199h-.1c0 .84.188 1.59.566 2.249l.087-.05zm-.553-2.199c0-.825.174-1.552.522-2.184l-.088-.048c-.357.648-.534 1.393-.534 2.232h.1zm.521-2.183a3.94 3.94 0 0 1 1.454-1.486l-.051-.086a4.04 4.04 0 0 0-1.49 1.522l.087.049zm1.454-1.486a4.01 4.01 0 0 1 2.087-.553v-.1c-.787 0-1.5.189-2.138.567l.051.086zm2.087-.553c.781 0 1.471.179 2.07.537l.051-.086c-.616-.368-1.324-.551-2.121-.551v.1zm2.071.538c.61.347 1.089.841 1.437 1.484l.088-.048c-.357-.658-.848-1.167-1.476-1.524l-.049.087zm1.437 1.485c.347.631.522 1.364.522 2.2h.1c0-.85-.178-1.6-.534-2.248l-.088.048zm.522 2.2a.96.96 0 0 1-.016.168l.099.016a1.13 1.13 0 0 0 .017-.184h-.1zm-.016.176v.02.02.02.02.02.02.02.02l.1.015v-.02-.02-.02-.02-.02-.02-.02-.02l-.1-.015zm.05.126h-7.312v.1h7.312v-.1zm-7.262.05v-.848h-.1v.848h.1zm-.05-.798h6.704v-.1h-6.704v.1zm6.674-.09l-.448.336.06.08.448-.336-.06-.08zm-.368.376c0-.615-.135-1.163-.407-1.641l-.087.049c.262.461.394.991.394 1.591h.1zm-.406-1.639c-.26-.488-.619-.868-1.075-1.139l-.051.086c.44.262.786.628 1.038 1.1l.088-.047zm-1.075-1.139c-.456-.272-.983-.407-1.577-.407v.1c.579 0 1.087.132 1.526.393l.051-.086zm-1.577-.407a3.08 3.08 0 0 0-1.577.407l.05.086a2.98 2.98 0 0 1 1.527-.393v-.1zm-1.577.407c-.467.271-.831.652-1.091 1.14l.088.047a2.73 2.73 0 0 1 1.053-1.1l-.05-.086zm-1.091 1.14c-.261.488-.39 1.046-.39 1.672h.1c0-.612.126-1.153.378-1.625l-.088-.047zm-.39 1.672v.176h.1v-.176h-.1zm0 .176c0 .647.14 1.221.422 1.721l.087-.049c-.272-.482-.409-1.039-.409-1.671h-.1zm.423 1.722c.292.488.694.873 1.202 1.154l.049-.088c-.494-.273-.882-.646-1.165-1.118l-.086.051zm1.204 1.155c.52.271 1.109.406 1.767.406v-.1c-.644 0-1.217-.132-1.721-.394l-.046.089zm1.767.406c.518 0 .999-.092 1.443-.276l-.038-.092c-.431.179-.899.268-1.405.268v.1zm1.442-.276a3.01 3.01 0 0 0 1.172-.846l-.076-.065c-.315.367-.693.64-1.133.818l.037.093zm1.096-.846l.64.736.075-.066-.64-.736-.075.066zm.639.671a3.54 3.54 0 0 1-1.388 1.01l.038.092c.572-.238 1.048-.584 1.427-1.038l-.077-.064zm-1.389 1.01c-.548.232-1.154.348-1.82.348v.1c.678 0 1.298-.118 1.859-.356l-.039-.092zm5.708.318h-.05v.05h.05V54zm0-8.4v-.05h-.05v.05h.05zm1.088 0h.05v-.05h-.05v.05zm0 2.288l-.048.014.098-.014h-.05zm-.112-.4l-.047-.017-.006.015.005.016.048-.014zm1.184-1.456l.026.043h0l-.026-.043zm2.064-.512h.05v-.05h-.05v.05zm0 1.104v.05h.05v-.05h-.05zm-.128 0l-.013.05h.013v-.05zm-2.208.8l.036.034h.001l-.037-.034zM191.951 54v.05h.05V54h-.05zm-1.086 0v-8.4h-.1V54h.1zm-.05-8.35h1.088v-.1h-1.088v.1zm1.038-.05v2.288h.1V45.6h-.1zm.098 2.274l-.112-.4-.096.027.112.4.096-.027zm-.113-.369c.231-.63.618-1.106 1.163-1.43l-.052-.086c-.565.337-.967.832-1.205 1.482l.094.034zm1.163-1.431c.545-.335 1.223-.505 2.038-.505v-.1c-.828 0-1.526.172-2.09.519l.052.085zm1.988-.555v1.104h.1V45.52h-.1zm.05 1.054h-.021-.02-.021-.02-.021-.02l-.005.1h.02.021.02.021.02.021l.005-.1zm-.116.002c-.046-.012-.093-.017-.14-.017v.1a.48.48 0 0 1 .116.014l.024-.097zm-.14-.017c-.896 0-1.604.276-2.117.832l.074.068c.49-.532 1.169-.8 2.043-.8v-.1zm-2.116.832c-.513.545-.766 1.322-.766 2.322h.1c0-.984.248-1.733.738-2.254l-.072-.068zm-.766 2.322V54h.1v-4.288h-.1zm.05 4.238h-1.136v.1h1.136v-.1z"/></svg>