<svg width="224" height="58" viewBox="0 0 224 58" fill="none" xmlns="http://www.w3.org/2000/svg">
<path d="M1.728 18.98C2.484 19.736 3.24 20.276 3.528 20.276C3.924 20.276 4.284 19.988 4.284 19.628C4.284 19.412 4.176 19.34 3.888 19.232C3.528 19.16 3.528 19.124 3.564 18.62C3.6 17.936 4.032 16.892 4.824 15.596C5.796 13.94 6.66 12.824 8.388 11.096C10.008 9.476 11.16 8.54 12.456 7.784C13.248 7.352 14.724 6.704 14.832 6.812C15.012 6.956 12.96 10.448 10.332 14.444C6.228 20.744 4.788 23.336 3.852 26.144C3.528 27.116 3.42 27.656 3.384 28.52C3.276 29.924 3.42 30.356 4.14 31.148C4.752 31.76 5.184 32.048 5.616 32.048C5.76 32.048 6.048 32.228 6.3 32.48C7.452 33.704 8.496 33.452 10.764 31.4C12.384 29.924 15.948 26.072 18.144 23.408L18.504 22.94L18.144 23.912C16.848 27.368 16.632 29.708 17.388 31.184C17.892 32.228 18.396 32.66 20.484 34.136C20.952 34.424 21.24 34.46 21.456 34.208C21.564 34.064 21.564 33.992 21.42 33.776C21.204 33.452 21.024 31.94 21.06 30.5C21.06 29.6 21.132 29.168 21.456 28.232C22.86 23.804 24.768 20.132 30.42 10.772C32.616 7.1 32.94 6.524 33.084 6.056C33.192 5.624 33.12 5.336 32.904 5.336C32.832 5.336 32.724 5.192 32.688 4.976C32.652 4.796 32.58 4.652 32.508 4.688C32.436 4.724 32.364 4.688 32.328 4.58C32.292 4.508 32.184 4.436 32.076 4.472C31.968 4.544 31.932 4.472 31.932 4.292C31.932 4.112 31.824 4.04 31.68 4.04C31.5 4.04 31.428 3.968 31.464 3.86C31.5 3.464 31.428 3.428 31.212 3.644C30.996 3.824 30.996 3.824 31.14 3.392C31.248 3.032 31.248 2.96 31.032 2.816C30.888 2.708 30.708 2.636 30.6 2.672C30.492 2.708 30.384 2.708 30.348 2.636C30.276 2.384 29.808 2.816 29.52 3.356C29.016 4.508 27.324 7.064 25.92 8.9C25.164 9.908 23.688 11.924 22.644 13.4C18.252 19.556 15.624 22.796 12.672 25.748C10.872 27.548 8.136 29.816 7.704 29.816C7.632 29.816 7.668 29.528 7.74 29.132C8.28 26.828 9.972 23.624 13.464 18.224C17.676 11.708 18.792 9.476 18.936 7.46C19.044 6.272 18.792 5.732 17.64 4.544C17.172 4.112 16.668 3.536 16.452 3.284C15.804 2.492 14.832 2.24 13.428 2.564C10.332 3.284 5.364 7.784 2.412 12.572C0.648 15.416 0.396 17.648 1.728 18.98ZM23.796 21.284C23.22 22.364 22.536 23.804 22.248 24.452C21.996 25.1 21.492 26.36 21.204 27.296C20.88 28.196 20.628 28.844 20.628 28.736C20.628 28.376 21.564 25.712 22.14 24.452C22.788 22.976 24.264 20.024 24.624 19.448C25.02 18.836 24.912 19.088 23.796 21.284ZM25.092 18.764C25.02 18.872 24.948 18.98 24.912 18.98C24.876 18.98 24.912 18.872 24.984 18.764C25.056 18.62 25.128 18.512 25.164 18.512C25.2 18.512 25.164 18.62 25.092 18.764ZM26.46 16.316C26.316 16.604 25.992 17.18 25.74 17.612C25.308 18.404 25.056 18.728 25.416 18.008C25.776 17.288 26.64 15.812 26.712 15.812C26.748 15.812 26.64 16.028 26.46 16.316ZM30.564 5.696C30.672 5.552 30.816 5.48 30.852 5.48C30.852 5.48 30.78 5.552 30.672 5.696C30.564 5.84 30.456 5.948 30.42 5.948C30.384 5.948 30.456 5.84 30.564 5.696ZM30.096 5.552C30.312 5.192 30.456 5.12 30.276 5.444C30.204 5.588 30.096 5.732 30.024 5.768C29.952 5.804 29.988 5.696 30.096 5.552ZM32.184 6.596C32.4 6.38 32.04 6.992 30.06 10.268C28.98 12.068 27.828 14.012 27.468 14.624C27.108 15.2 26.82 15.704 26.784 15.704C26.64 15.704 31.896 6.848 32.184 6.596ZM29.628 8.504C29.7 8.504 29.484 8.9 29.052 9.656C28.836 9.944 27.828 11.636 26.82 13.328C23.292 19.412 21.528 22.796 20.376 26.036C19.764 27.62 19.584 28.052 19.764 27.404C20.268 25.208 22.14 21.104 24.66 16.712C26.172 14.048 29.52 8.504 29.628 8.504ZM28.692 7.784C28.836 7.604 28.98 7.496 28.98 7.532C28.98 7.568 28.836 7.748 28.692 7.964C28.512 8.144 28.404 8.252 28.404 8.216C28.404 8.18 28.512 8 28.692 7.784ZM27.54 10.916C27.54 10.952 27.18 11.6 26.676 12.428C23.724 17.216 21.276 21.86 20.016 25.208C19.764 25.892 19.404 27.008 19.188 27.692C18.9 28.844 18.864 28.88 18.936 28.232C19.044 26.792 20.232 23.732 22.032 20.168C23.868 16.532 27.324 10.7 27.54 10.916ZM24.228 15.344C24.372 15.236 24.336 15.308 24.192 15.56C23.256 17.18 22.896 17.828 22.104 19.34C21.636 20.276 20.88 21.824 20.448 22.796C20.016 23.768 19.404 25.352 19.08 26.288C18.756 27.224 18.504 27.872 18.504 27.728C18.504 27.296 19.368 24.848 20.052 23.264C21.204 20.636 23.724 15.812 24.228 15.344ZM20.988 17.468C21.132 17.252 21.24 17.108 21.276 17.108C21.312 17.108 21.24 17.252 21.096 17.468C20.952 17.648 20.808 17.828 20.772 17.828C20.736 17.828 20.844 17.648 20.988 17.468ZM20.592 18.044C20.772 17.9 20.772 17.9 20.628 18.08C20.484 18.26 20.376 18.332 20.376 18.224C20.376 18.224 20.484 18.116 20.592 18.044ZM20.232 18.512C20.412 18.368 20.448 18.368 20.304 18.548C20.124 18.728 20.052 18.8 20.052 18.692C20.052 18.692 20.124 18.584 20.232 18.512ZM19.404 20.096C19.836 19.52 20.232 18.98 20.304 18.944C20.52 18.728 20.016 19.484 19.62 19.988C18.828 20.996 18.648 21.104 19.404 20.096ZM18 21.896C18.18 21.752 18.216 21.788 18.036 21.968C17.892 22.148 17.82 22.22 17.82 22.112C17.82 22.076 17.892 22.004 18 21.896ZM17.424 22.616C17.604 22.472 17.604 22.472 17.46 22.652C17.316 22.868 17.208 22.904 17.208 22.832C17.208 22.796 17.316 22.724 17.424 22.616ZM4.752 28.808C4.752 28.376 5.112 27.08 5.472 26.216C5.832 25.388 5.868 25.46 5.58 26.36C5.436 26.72 5.184 27.512 5.04 28.088C4.86 28.736 4.752 29.024 4.752 28.808ZM7.164 29.204L6.984 29.852L7.056 29.276C7.128 28.772 7.344 28.124 7.344 28.448C7.344 28.52 7.236 28.88 7.164 29.204ZM6.984 26.576C6.984 26.504 7.056 26.36 7.092 26.288C7.164 26.18 7.2 26.144 7.2 26.216C7.2 26.288 7.164 26.432 7.092 26.504C7.056 26.612 6.984 26.648 6.984 26.576ZM7.416 28.232C7.38 28.268 7.344 28.232 7.344 28.088C7.344 27.944 7.38 27.944 7.416 28.016C7.452 28.088 7.452 28.196 7.416 28.232ZM6.984 25.928C6.84 26.288 6.552 27.116 6.336 27.8C6.084 28.592 5.94 28.916 5.94 28.7C5.94 28.124 6.804 25.712 7.56 24.164C7.956 23.408 8.712 22.004 9.252 21.14C10.224 19.556 10.692 18.8 13.248 14.876C14.364 13.148 15.876 10.664 16.308 9.872C16.416 9.692 16.488 9.584 16.488 9.62C16.524 9.908 14.976 12.572 13.464 14.912C11.844 17.396 11.16 18.44 10.116 20.132C8.964 21.932 7.452 24.74 6.984 25.928ZM13.032 16.136C12.852 16.316 12.852 16.316 12.996 16.1C13.068 15.956 13.176 15.848 13.212 15.884C13.248 15.92 13.176 16.028 13.032 16.136ZM13.716 15.128C13.608 15.236 13.536 15.344 13.5 15.344C13.392 15.344 13.464 15.236 13.644 15.092C13.86 14.948 13.86 14.948 13.716 15.128ZM17.748 9.8C17.604 10.268 16.92 11.6 16.2 12.86C15.84 13.436 15.48 13.976 15.408 14.012C15.372 14.048 15.444 13.832 15.624 13.544C15.804 13.292 16.38 12.248 16.884 11.276C17.388 10.304 17.784 9.656 17.748 9.8ZM16.776 7.532C16.632 8.216 16.128 9.296 15.372 10.628C14.58 11.996 14.184 12.608 11.844 16.208C8.208 21.716 6.696 24.488 5.904 26.9C5.796 27.332 5.58 28.16 5.436 28.7L5.22 29.744L5.256 28.88C5.364 27.296 6.228 25.172 8.136 21.824C8.748 20.744 9.324 19.736 9.468 19.592C9.648 19.268 12.96 14.12 13.644 13.004C13.86 12.644 14.328 11.924 14.652 11.42C14.976 10.88 15.588 9.728 16.056 8.828C16.488 7.892 16.848 7.316 16.776 7.532ZM16.2 7.568C15.984 8.504 14.688 10.808 12.636 13.976C11.988 15.02 11.376 15.92 11.304 15.992C11.232 16.064 11.268 15.956 11.412 15.74C13.968 11.672 15.012 9.944 15.768 8.36C16.056 7.748 16.236 7.424 16.2 7.568ZM7.056 10.052C7.452 9.692 7.452 9.692 6.984 10.232C6.12 11.204 5.148 12.428 4.464 13.508C4.104 14.084 3.528 15.056 3.204 15.74C2.88 16.388 2.664 16.784 2.7 16.64C2.808 16.136 3.636 14.516 4.176 13.616C4.824 12.608 6.444 10.628 7.056 10.052ZM4.824 11.924C5.04 11.78 5.04 11.78 4.896 11.96C4.716 12.14 4.644 12.212 4.644 12.14C4.644 12.104 4.716 11.996 4.824 11.924ZM4.176 12.968C3.924 13.328 3.492 14.084 3.204 14.624C2.952 15.164 2.592 15.956 2.448 16.388C2.304 16.82 2.16 17.036 2.16 16.892C2.16 16.244 3.132 14.264 4.14 12.86C4.716 12.068 4.716 12.14 4.176 12.968ZM2.556 14.984C2.448 15.2 2.268 15.668 2.16 15.992C2.052 16.316 1.944 16.496 1.944 16.424C1.908 16.208 2.376 15.056 2.592 14.804C2.736 14.624 2.736 14.66 2.556 14.984ZM38.2326 15.344C37.5486 14.336 35.9286 13.904 34.6326 14.336C32.9766 14.876 31.1766 16.82 30.6006 18.692C30.0606 20.528 30.6366 22.436 32.2566 24.056C33.4806 25.316 33.6246 25.496 33.5526 26.18C33.4086 27.548 32.0766 29.204 30.4206 30.032C29.6286 30.428 29.4126 30.5 28.6206 30.5C28.1526 30.5 27.6126 30.536 27.4686 30.608C27.0726 30.716 27.0006 31.184 27.3606 31.652C27.7566 32.192 29.7006 34.064 30.0606 34.208C30.2046 34.28 30.7446 34.316 31.2486 34.28C32.0406 34.28 32.2566 34.208 33.3726 33.632C34.3806 33.164 34.7766 32.876 35.3886 32.228C36.8286 30.788 37.5126 28.88 37.1166 27.404C36.9366 26.72 36.1446 25.568 35.1366 24.488C34.0926 23.444 33.8766 22.94 33.9846 22.112C34.1286 20.888 35.3886 19.196 36.6126 18.548C37.7646 17.936 37.7646 17.936 37.7646 18.764C37.7646 19.376 37.8006 19.484 38.0886 19.808C38.2686 19.988 38.4126 20.204 38.4126 20.276C38.4126 20.492 38.7726 20.528 39.0606 20.348C39.4926 20.096 39.9606 19.232 40.0326 18.548C40.1046 17.828 39.8526 17.18 39.0966 16.388C38.8086 16.1 38.4126 15.596 38.2326 15.344ZM36.3606 29.744C36.3606 29.744 36.3606 29.852 36.2886 30.032C36.1446 30.356 35.8206 30.896 35.8206 30.752C35.8206 30.608 36.2886 29.744 36.3606 29.744ZM32.0406 18.98C32.0406 18.8 33.0126 17.432 33.1926 17.288C33.2646 17.252 33.0486 17.648 32.7246 18.152C32.0046 19.232 32.0406 19.196 32.0406 18.98ZM32.3286 19.52C32.4366 19.052 32.8686 18.332 33.4806 17.684C34.0926 16.964 34.2366 17.036 33.6606 17.72C33.4446 18.008 33.0126 18.62 32.7606 19.052C32.4006 19.628 32.2926 19.772 32.3286 19.52ZM35.3526 29.204C35.3526 29.276 35.1726 29.564 34.9926 29.888C34.7766 30.176 34.4886 30.5 34.3446 30.608C34.1286 30.716 34.2366 30.536 34.6686 29.996C35.3886 29.024 35.3526 29.06 35.3526 29.204ZM35.1006 27.944C35.2806 27.944 35.0286 28.628 34.6326 29.24C34.3446 29.708 33.8046 30.284 33.8046 30.14C33.8046 30.14 34.0566 29.744 34.3446 29.312C34.6326 28.88 34.8846 28.412 34.9206 28.232C34.9566 28.088 35.0286 27.944 35.1006 27.944ZM34.6326 28.016C34.6326 28.124 34.4886 28.448 34.3446 28.736C34.0566 29.24 33.9126 29.348 33.9486 29.168C33.9486 28.952 34.6326 27.8 34.6326 28.016ZM34.0926 20.312C33.7326 20.924 33.6966 20.96 33.6966 20.816C33.6966 20.672 34.2726 19.808 34.3446 19.808C34.3806 19.808 34.2726 20.06 34.0926 20.312ZM33.9846 18.764C34.0926 18.62 34.2366 18.512 34.2726 18.512C34.3086 18.512 34.2366 18.62 34.0926 18.764C33.9846 18.908 33.8766 19.016 33.8406 19.016C33.8046 19.016 33.8766 18.908 33.9846 18.764ZM34.5246 17.792C34.1646 18.152 33.6606 18.8 33.4086 19.16C32.8686 19.988 32.7606 20.024 33.1926 19.232C33.5526 18.512 34.2726 17.684 34.8126 17.324C35.0646 17.144 34.9926 17.252 34.5246 17.792ZM41.551 29.564C41.911 30.32 42.739 31.184 43.063 31.184C43.207 31.184 43.567 31.436 43.891 31.724C44.791 32.552 45.367 32.408 46.735 31.004C47.383 30.284 49.255 27.908 50.083 26.72L50.659 25.856L50.731 26.756C50.911 28.376 51.595 29.672 52.567 30.14C52.855 30.284 53.107 30.464 53.143 30.572C53.323 31.04 54.547 31.22 55.087 30.86C56.491 29.924 58.435 27.296 62.035 21.392C62.935 19.88 63.115 19.268 62.287 20.42C62.035 20.78 61.783 21.068 61.783 21.032C61.783 20.96 61.999 20.672 62.215 20.348C62.467 20.024 62.611 19.7 62.575 19.664C62.539 19.628 62.179 20.096 61.783 20.636C59.551 23.696 58.435 25.136 57.211 26.396C56.023 27.62 54.439 28.952 54.331 28.808C54.223 28.736 54.511 27.476 54.871 26.288C55.051 25.64 55.627 24.128 56.095 22.904C57.139 20.276 57.535 18.872 57.535 18.116C57.535 17.612 57.499 17.504 57.139 17.18C56.887 16.964 56.671 16.82 56.599 16.856C56.563 16.892 56.491 16.856 56.455 16.748C56.419 16.64 56.311 16.568 56.203 16.604C56.095 16.64 56.023 16.604 56.023 16.496C56.023 16.316 55.987 16.316 55.771 16.532C55.519 16.748 55.519 16.748 55.663 16.496C55.843 16.1 55.807 15.884 55.555 15.812C55.087 15.668 54.727 15.848 54.367 16.46C54.007 17 53.791 17.216 53.791 16.928C53.791 16.856 53.683 16.784 53.539 16.748C53.395 16.712 52.927 16.352 52.531 15.992C51.955 15.416 51.703 15.272 51.271 15.2C50.263 15.056 48.859 15.524 47.671 16.388C44.683 18.584 40.939 25.46 41.191 28.268C41.227 28.628 41.407 29.204 41.551 29.564ZM60.991 22.256C61.063 22.292 61.135 22.184 61.135 22.076C61.171 21.968 61.207 21.824 61.243 21.788C61.315 21.752 61.315 21.824 61.279 21.968C61.243 22.328 61.027 22.544 60.919 22.364C60.883 22.292 60.883 22.256 60.991 22.256ZM60.487 23.264C60.667 23.12 60.667 23.12 60.523 23.336C60.343 23.516 60.271 23.588 60.271 23.48C60.271 23.444 60.343 23.372 60.487 23.264ZM59.983 23.624C60.019 23.552 60.271 23.588 60.271 23.696C60.271 23.696 60.199 23.732 60.091 23.732C59.983 23.732 59.947 23.696 59.983 23.624ZM58.831 25.244C58.903 25.172 59.047 25.136 59.119 25.136C59.191 25.136 59.263 25.028 59.299 24.956C59.335 24.848 59.299 24.812 59.191 24.884C59.083 24.956 59.083 24.92 59.119 24.884C59.191 24.812 59.263 24.776 59.335 24.776C59.407 24.776 59.515 24.704 59.551 24.596C59.587 24.488 59.551 24.452 59.407 24.524C59.299 24.632 59.299 24.596 59.407 24.452C59.515 24.308 59.623 24.272 59.695 24.308C59.803 24.38 59.479 24.992 59.227 25.208C59.011 25.388 58.651 25.46 58.831 25.244ZM58.579 25.712C58.507 25.784 58.471 25.748 58.543 25.712C58.579 25.64 58.687 25.604 58.795 25.568C58.939 25.568 58.939 25.604 58.831 25.784C58.795 25.892 58.651 26.036 58.579 26.072C58.471 26.144 58.471 26.108 58.579 26C58.651 25.892 58.723 25.784 58.723 25.748C58.723 25.676 58.651 25.676 58.579 25.712ZM58.075 26.252C58.183 26.108 58.327 26 58.363 26C58.399 26 58.327 26.108 58.183 26.252C58.075 26.36 57.967 26.468 57.931 26.468C57.895 26.468 57.967 26.36 58.075 26.252ZM57.535 26.936C57.715 26.792 57.715 26.792 57.571 26.972C57.427 27.188 57.319 27.224 57.319 27.152C57.319 27.116 57.391 27.008 57.535 26.936ZM45.115 28.124C45.043 28.34 44.971 28.736 44.863 28.988L44.719 29.492L44.791 28.952C44.827 28.664 44.935 28.268 45.007 28.052L45.187 27.728L45.115 28.124ZM49.687 26.036C49.507 26.216 49.435 26.288 49.435 26.18C49.435 26.18 49.507 26.072 49.615 26C49.795 25.856 49.831 25.856 49.687 26.036ZM50.011 25.568C49.867 25.748 49.759 25.82 49.759 25.712C49.759 25.712 49.867 25.604 49.975 25.532C50.155 25.352 50.155 25.388 50.011 25.568ZM56.743 19.448C57.103 18.728 56.635 20.132 56.059 21.536C55.699 22.4 55.123 23.912 54.763 24.884C54.115 26.756 53.971 27.008 54.367 25.604C54.583 24.884 56.419 20.132 56.743 19.448ZM55.843 18.944C55.915 18.944 55.591 19.736 54.943 21.212C54.655 21.86 54.223 22.868 54.007 23.408C53.467 24.812 53.431 24.884 53.431 24.812C53.395 24.38 55.627 18.944 55.843 18.944ZM54.223 20.96C54.403 20.744 54.295 21.104 53.827 22.292C53.467 23.192 52.999 24.524 52.819 25.244C52.567 26.18 52.495 26.36 52.531 25.928C52.711 24.524 53.647 21.644 54.223 20.96ZM53.143 22.58C53.071 22.652 52.855 23.264 52.639 23.912C52.423 24.596 52.279 24.92 52.315 24.632C52.423 23.912 52.819 22.724 53.035 22.58C53.215 22.436 53.215 22.436 53.143 22.58ZM51.667 19.232C52.099 18.944 52.531 18.656 52.639 18.62C52.999 18.476 52.927 18.944 52.315 20.168C51.307 22.148 47.707 26.936 46.195 28.304C45.871 28.592 45.583 28.844 45.511 28.844C45.367 28.844 46.087 26.9 46.771 25.46C48.067 22.796 49.975 20.348 51.667 19.232ZM47.779 20.096L48.247 19.592L47.743 20.276C46.483 22.004 45.619 23.444 45.007 24.956C44.755 25.496 44.395 26.468 44.179 27.116C43.963 27.764 43.783 28.196 43.783 28.052C43.747 27.512 44.503 25.46 45.187 24.092C46.015 22.508 47.059 20.888 47.779 20.096ZM46.411 20.924C46.447 20.924 46.339 21.176 46.123 21.464C45.619 22.22 44.539 24.272 44.107 25.352C43.891 25.856 43.567 26.864 43.387 27.584C43.135 28.592 43.063 28.772 43.063 28.412C43.063 27.116 44.215 24.272 45.727 21.932C46.051 21.392 46.375 20.924 46.411 20.924ZM42.631 27.764C42.775 27.08 43.171 25.856 43.423 25.424C43.567 25.172 43.603 25.1 43.567 25.244C43.531 25.352 43.315 26.036 43.099 26.756C42.667 28.088 42.487 28.484 42.631 27.764ZM79.5831 20.708C78.9711 21.608 76.9191 24.812 76.8471 25.028C76.6671 25.424 76.9551 25.1 77.5671 24.092C77.9271 23.48 78.6831 22.364 79.2591 21.536C80.2671 20.06 80.5551 19.376 79.5831 20.708ZM91.3911 21.464L90.8871 21.932L91.2831 21.464C91.8951 20.708 91.5711 20.816 90.8511 21.644C90.4911 22.076 89.7711 22.868 89.2311 23.408C88.7271 23.948 88.0071 24.812 87.6471 25.316C86.3871 26.972 84.3711 29.384 83.3631 30.32C82.3191 31.328 81.3831 32.156 81.2031 32.156C81.0591 32.156 81.2391 31.184 81.6351 30.068C81.8151 29.456 82.6431 27.548 83.4351 25.748C85.0551 22.184 85.5591 20.816 85.7751 19.52C85.9551 18.224 85.8111 17.828 84.8031 16.82C84.3711 16.388 83.9751 15.956 83.9751 15.884C83.9751 15.596 83.4711 15.272 82.9671 15.272C82.5351 15.272 82.3911 15.344 81.8871 15.812C81.0591 16.568 80.4471 17.432 78.7911 20.096C74.7951 26.54 73.1751 28.988 73.4271 28.124C73.5711 27.728 74.3631 25.964 75.5871 23.372C76.8831 20.636 77.2791 19.592 77.3511 18.584C77.4231 17.54 77.1351 16.928 76.1631 16.352C75.9111 16.208 75.5871 15.884 75.4431 15.632C75.1191 15.128 74.7591 14.984 74.2191 15.092C73.3551 15.308 71.1591 18.26 68.3871 23.012C66.8751 25.532 65.3991 27.836 65.0031 28.196C64.7151 28.448 64.7151 28.448 64.9671 27.656C65.3991 26.144 66.9471 22.904 68.0271 21.212C68.7471 20.06 69.6111 18.224 69.6111 17.72C69.6111 17.468 69.5391 17.288 69.5031 17.288C69.4311 17.288 69.3591 17.18 69.3231 17.036C69.2511 16.892 69.1791 16.82 69.0711 16.856C68.9631 16.892 68.8911 16.856 68.8911 16.784C68.8911 16.712 68.8191 16.712 68.7111 16.82C68.5311 16.964 68.5311 16.964 68.6031 16.712C68.6751 16.496 68.6391 16.46 68.4231 16.46C68.2791 16.46 68.2071 16.388 68.2071 16.244C68.2071 15.884 67.7391 15.524 67.3431 15.524C66.0831 15.524 64.5711 17.432 62.5191 21.716C61.1151 24.632 60.4311 26.9 60.5751 28.196C60.6831 29.42 61.6911 31.004 62.4111 31.148C62.5911 31.184 62.8431 31.4 63.0231 31.652C63.2391 31.94 63.4911 32.12 63.6711 32.192C64.4271 32.336 64.8591 31.796 67.3431 27.836C68.9991 25.208 71.2671 21.896 71.4111 21.896C71.4471 21.896 71.3031 22.4 71.0871 23.084C69.9711 26.288 69.7191 28.52 70.2951 29.852C70.5471 30.392 71.0871 31.076 71.3031 31.076C71.4111 31.076 71.5911 31.256 71.7711 31.472C72.4191 32.336 73.0671 32.084 74.2551 30.572C75.1191 29.456 76.5591 27.332 77.6751 25.496C78.4671 24.2 80.0511 21.896 80.1591 21.896C80.1951 21.896 79.8711 22.544 79.5111 23.336C78.0351 26.396 77.4591 29.636 78.1071 31.58C78.3951 32.516 79.0791 33.38 79.6551 33.488C79.8711 33.56 80.1951 33.776 80.4111 33.992C80.9151 34.532 81.4911 34.532 82.2471 33.992C83.4711 33.128 85.2351 31.004 87.7191 27.44C88.1871 26.828 88.7271 26.036 88.9431 25.712C89.1951 25.388 89.5911 24.74 89.8431 24.308C90.1311 23.84 90.6711 22.976 91.1031 22.4C91.5351 21.788 91.8951 21.248 91.8951 21.14C91.8951 21.068 91.6791 21.212 91.3911 21.464ZM68.7831 18.476C68.9991 18.116 69.1071 17.936 69.0711 18.08C68.9991 18.404 68.4231 19.412 68.4231 19.232C68.4231 19.16 68.6031 18.836 68.7831 18.476ZM66.7311 20.6C66.6231 20.78 66.5151 20.924 66.4791 20.924C66.4431 20.924 66.5151 20.78 66.5871 20.6C66.6951 20.384 66.8031 20.24 66.8391 20.24C66.8751 20.24 66.8031 20.384 66.7311 20.6ZM67.7391 18.872C67.6671 19.016 67.5231 19.232 67.4151 19.34L67.2351 19.592L67.3431 19.34C67.4151 19.232 67.5591 19.016 67.6671 18.872L67.8471 18.656L67.7391 18.872ZM68.0631 18.332C67.9911 18.476 67.9191 18.584 67.8831 18.584C67.8471 18.584 67.8831 18.476 67.9551 18.332C68.0271 18.224 68.0991 18.116 68.1351 18.116C68.1711 18.116 68.1351 18.224 68.0631 18.332ZM62.4111 25.748C62.9871 24.092 64.9671 20.06 65.6511 19.232C65.7591 19.088 65.6871 19.304 65.5071 19.628C64.8951 20.708 63.6351 23.192 63.3111 24.02C63.1311 24.416 62.7711 25.316 62.5191 26C61.9791 27.512 61.9071 27.296 62.4111 25.748ZM63.4191 25.1C63.1671 25.748 62.8431 26.72 62.6991 27.296C62.5551 27.836 62.4471 28.16 62.4111 28.016C62.4111 27.26 63.1311 25.028 63.9951 23.192C64.9311 21.14 66.9831 17.756 67.4511 17.396C67.6311 17.252 67.6311 17.288 67.4151 17.576C65.6511 20.312 64.2471 23.012 63.4191 25.1ZM63.5271 26.144C63.9591 24.668 65.3271 21.896 66.7671 19.484C67.7391 17.828 68.0271 17.432 68.1351 17.54C68.1351 17.576 67.8471 18.116 67.4511 18.764C65.9751 21.14 64.5711 23.768 63.8871 25.496C63.5631 26.324 63.3831 26.648 63.5271 26.144ZM64.3911 27.584C64.3551 27.764 64.3191 27.8 64.3191 27.62C64.2831 27.26 64.8951 25.748 65.7591 24.02C66.1911 23.12 66.5871 22.364 66.6231 22.4C66.6591 22.436 66.3711 23.048 66.0111 23.768C65.6511 24.488 65.1471 25.568 64.8951 26.216C64.6431 26.864 64.4271 27.476 64.3911 27.584ZM65.2551 29.708C65.1111 29.888 65.0031 29.96 65.0031 29.852C65.0031 29.816 65.1111 29.744 65.2191 29.636C65.3991 29.492 65.3991 29.492 65.2551 29.708ZM65.6151 29.204C65.4711 29.42 65.3631 29.492 65.3631 29.384C65.3631 29.348 65.4711 29.276 65.5791 29.168C65.7591 29.024 65.7591 29.024 65.6151 29.204ZM66.3351 27.8C66.1551 28.016 66.0831 28.052 66.0831 27.98C66.0831 27.944 66.1551 27.836 66.2631 27.764C66.4791 27.62 66.4791 27.62 66.3351 27.8ZM66.6591 27.296C66.5871 27.44 66.5151 27.548 66.4791 27.548C66.4431 27.548 66.4791 27.44 66.5511 27.296C66.6231 27.188 66.6951 27.08 66.7311 27.08C66.7671 27.08 66.7311 27.188 66.6591 27.296ZM67.2351 26.36C67.1631 26.504 67.0911 26.612 67.0551 26.612C67.0191 26.612 67.0551 26.504 67.1271 26.36C67.1991 26.216 67.2711 26.144 67.3071 26.144C67.3431 26.144 67.3071 26.216 67.2351 26.36ZM68.1351 25.388C68.0991 25.424 68.0271 25.496 67.9911 25.496C67.9191 25.496 67.8111 25.532 67.7391 25.568C67.5951 25.676 67.5951 25.64 67.7391 25.424C67.8111 25.28 67.9191 25.244 67.9191 25.316C67.9551 25.352 68.0271 25.388 68.0991 25.352C68.2071 25.28 68.2071 25.316 68.1351 25.388ZM82.3191 26.828C82.2831 26.936 82.2111 26.972 82.2111 26.9C82.2111 26.828 82.2831 26.684 82.3191 26.612C82.3911 26.504 82.4631 26.468 82.4631 26.54C82.4631 26.612 82.3911 26.72 82.3191 26.828ZM84.2991 22.292C84.3351 22.292 84.2271 22.616 84.1191 22.94C83.8671 23.552 82.4271 26.54 82.4991 26.288C82.5351 26.072 84.2631 22.256 84.2991 22.292ZM75.3351 27.188C75.5511 27.008 75.5511 27.044 75.4071 27.224C75.2271 27.404 75.1551 27.476 75.1551 27.368C75.1551 27.368 75.2271 27.26 75.3351 27.188ZM74.7951 27.908C75.1191 27.476 75.1551 27.44 75.0831 27.764C75.0471 27.8 75.0471 27.836 75.0471 27.836L74.7951 28.088L74.5071 28.304L74.7951 27.908ZM76.0191 20.78C76.1991 20.348 76.3791 20.024 76.4151 20.024C76.4871 20.132 75.8031 21.752 74.8671 23.66C74.3991 24.668 73.8231 25.892 73.6071 26.396C73.3911 26.864 73.2111 27.26 73.1751 27.296C72.9591 27.548 73.7511 25.676 74.8671 23.3C75.3351 22.364 75.8391 21.212 76.0191 20.78ZM75.3351 19.556C75.3711 19.592 74.9031 20.708 74.3271 22.004C73.7151 23.336 73.2111 24.452 73.2111 24.452C73.0671 24.596 73.2111 24.2 73.9671 22.508C74.4351 21.464 74.9391 20.384 75.0471 20.096C75.1911 19.772 75.3351 19.556 75.3351 19.556ZM74.5071 18.728C74.5431 18.764 74.2191 19.592 73.7871 20.564C73.3551 21.5 72.7431 22.976 72.4191 23.768C72.0951 24.596 71.8071 25.28 71.7711 25.28C71.5551 25.532 72.3471 23.444 73.2471 21.32C74.2191 19.088 74.4351 18.656 74.5071 18.728ZM71.2311 20.204C71.4111 20.06 71.4111 20.06 71.2671 20.276C71.1231 20.456 71.0151 20.528 71.0151 20.42C71.0151 20.384 71.1231 20.312 71.2311 20.204ZM70.7631 20.78C70.8711 20.708 70.7991 20.888 70.6191 21.14C70.4391 21.428 70.2591 21.644 70.2231 21.644C70.1511 21.644 70.5831 20.924 70.7631 20.78ZM70.0431 21.86C70.2231 21.716 70.2231 21.716 70.0791 21.896C69.9351 22.112 69.8271 22.184 69.8271 22.076C69.8271 22.04 69.9351 21.968 70.0431 21.86ZM68.4951 24.344C68.4591 24.344 68.4591 24.236 68.5311 24.128C68.6031 23.984 68.7111 23.876 68.7471 23.876C68.7471 23.876 68.7471 23.984 68.6751 24.128C68.6031 24.236 68.4951 24.344 68.4951 24.344ZM68.8911 24.236C68.8191 24.38 68.7471 24.488 68.7111 24.488C68.6751 24.488 68.7111 24.38 68.7831 24.236C68.8551 24.128 68.9271 24.02 68.9631 24.02C68.9991 24.02 68.9631 24.128 68.8911 24.236ZM69.2511 23.66C69.1071 23.948 68.9991 23.948 69.1071 23.696C69.1791 23.516 69.1431 23.48 68.9631 23.624C68.8191 23.768 68.7831 23.768 68.8551 23.624C68.8911 23.516 68.9991 23.444 69.1431 23.444C69.3231 23.444 69.3231 23.516 69.2511 23.66ZM70.1511 22.292C69.8271 22.76 69.6111 22.976 69.6471 22.832C69.7191 22.544 69.7191 22.544 69.5391 22.76C69.4311 22.904 69.3951 23.048 69.4311 23.156C69.4671 23.228 69.4671 23.3 69.4671 23.3C69.1791 23.192 69.1791 23.12 69.4311 22.688C69.7551 22.22 69.8631 22.112 69.7551 22.4C69.6111 22.796 69.8631 22.544 70.3311 21.86C70.8711 21.032 72.5271 18.944 72.6351 18.944C72.6711 18.944 72.5631 19.124 72.3831 19.304C71.6631 20.168 70.6911 21.536 70.1511 22.292ZM72.0591 26.108C71.7351 27.044 71.5191 27.62 71.5551 27.368C71.7711 26.036 73.0311 22.832 74.9391 18.692C75.0831 18.404 75.1911 18.26 75.2271 18.368C75.2631 18.44 74.6871 19.844 73.9671 21.464C73.2471 23.084 72.3831 25.172 72.0591 26.108ZM72.9591 24.812C73.0311 24.668 73.0671 24.596 73.1031 24.632C73.1391 24.704 73.1031 24.776 73.0311 24.848C72.9231 24.992 72.9231 24.956 72.9591 24.812ZM74.4351 29.06C74.3631 29.168 74.0391 29.528 73.7151 29.888L73.1391 30.536L73.7871 29.708C74.4351 28.88 74.6871 28.628 74.4351 29.06ZM74.4711 28.52C74.2911 28.7 74.2191 28.772 74.2191 28.664C74.2191 28.664 74.2911 28.556 74.3991 28.484C74.5791 28.34 74.6151 28.34 74.4711 28.52ZM74.7951 28.52C74.7231 28.628 74.6151 28.736 74.6151 28.736C74.5071 28.736 74.5791 28.628 74.7591 28.484C74.9391 28.34 74.9391 28.34 74.7951 28.52ZM75.6591 27.26C75.3711 27.8 74.8671 28.376 74.9751 28.088L75.0471 27.872C75.0831 27.872 75.1191 27.836 75.2271 27.728C75.3351 27.584 75.5511 27.332 75.6591 27.188C75.8391 26.9 75.8391 26.9 75.6591 27.26ZM76.9191 25.316C76.2351 26.468 75.8031 27.044 75.9471 26.648C76.0191 26.432 75.9831 26.432 75.8031 26.612C75.5871 26.756 75.5871 26.756 75.7311 26.504C75.8751 26.216 76.1271 26.036 76.0191 26.288C75.8751 26.648 76.0551 26.468 76.4511 25.892C76.6671 25.568 76.8111 25.28 76.7751 25.244C76.7391 25.208 76.5951 25.352 76.4511 25.604C76.3071 25.82 76.1631 26 76.1271 26C76.0911 26 76.1271 25.892 76.2351 25.748C76.3431 25.604 76.7751 24.884 77.2071 24.164C77.6751 23.48 78.5031 22.184 79.0791 21.32C79.6191 20.456 80.0511 19.7 80.0151 19.628C79.9791 19.556 79.9791 19.52 80.0511 19.556C80.1231 19.592 80.4471 19.304 80.7711 18.872C81.0591 18.476 81.3831 18.08 81.4911 18.08C81.5631 18.044 81.3111 18.404 80.9151 18.872C80.5191 19.376 80.2311 19.844 80.2311 19.916C80.2311 19.988 80.3751 19.844 80.5911 19.592C80.8071 19.34 81.2031 18.908 81.4551 18.656C81.8871 18.188 81.8871 18.188 81.3831 18.836C80.2671 20.204 78.3951 22.94 76.9191 25.316ZM79.2231 29.168C79.1151 29.672 79.0071 30.104 78.9711 30.104C78.7551 30.32 79.2591 28.124 79.6911 26.828C79.9071 26.18 80.6271 24.524 81.2751 23.12C81.8871 21.752 82.6071 20.204 82.8231 19.7C83.2911 18.584 83.4711 18.296 83.1831 19.16C82.8591 20.132 82.0311 22.04 81.3831 23.336C80.3031 25.46 79.5831 27.476 79.2231 29.168ZM79.5831 29.816C79.3671 31.076 79.2231 31.328 79.3311 30.248C79.5111 28.556 80.1951 26.432 81.4191 23.912C82.4991 21.644 83.4711 19.484 83.6151 18.98C83.7231 18.764 83.7951 18.584 83.8311 18.62C84.0111 18.8 83.0391 21.14 81.5271 24.236C80.5551 26.252 79.8351 28.34 79.5831 29.816ZM79.9431 30.392C79.9071 30.464 79.8711 30.428 79.8711 30.248C79.8711 30.104 79.9071 30.032 79.9431 30.104C79.9791 30.176 79.9791 30.32 79.9431 30.392ZM80.3031 28.952C80.1231 29.492 79.9791 29.888 79.9791 29.78C79.9791 29.492 80.5191 27.692 80.9151 26.648C81.3111 25.604 83.0751 21.968 83.1111 22.04C83.1831 22.112 82.6071 23.444 82.1751 24.344C81.9591 24.776 81.5271 25.748 81.1671 26.54C80.8431 27.332 80.4471 28.412 80.3031 28.952ZM80.8791 30.464C81.0951 29.6 81.7431 27.764 81.8151 27.836C81.8511 27.836 81.7791 28.088 81.6711 28.34C81.5631 28.592 81.3111 29.384 81.0951 30.14C80.6991 31.544 80.5551 31.724 80.8791 30.464ZM84.2271 30.644C84.1551 30.752 84.0471 30.824 84.0471 30.824C83.9391 30.824 84.0111 30.752 84.1911 30.608C84.3711 30.428 84.3711 30.464 84.2271 30.644ZM84.9831 29.78C84.8751 29.924 84.7311 30.032 84.7311 30.032C84.6951 30.032 84.7671 29.924 84.8751 29.78C84.9831 29.636 85.1271 29.528 85.1271 29.528C85.1631 29.528 85.0911 29.636 84.9831 29.78ZM85.4511 29.204C85.3431 29.312 85.2351 29.42 85.1991 29.42C85.1631 29.42 85.2351 29.312 85.3431 29.204C85.4511 29.06 85.5951 28.952 85.6311 28.952C85.6311 28.952 85.5951 29.06 85.4511 29.204ZM86.4591 27.908C86.3151 28.124 86.2431 28.196 86.2431 28.088C86.2431 28.052 86.3151 27.98 86.4231 27.872C86.6031 27.728 86.6391 27.728 86.4591 27.908ZM86.8191 27.44C86.6751 27.656 86.5671 27.728 86.5671 27.62C86.5671 27.584 86.6751 27.512 86.7831 27.404C86.9631 27.26 86.9631 27.26 86.8191 27.44ZM86.9631 27.188C86.9271 27.188 87.0351 27.044 87.1791 26.828C87.3231 26.648 87.4311 26.468 87.4671 26.468C87.5031 26.468 87.4311 26.648 87.2871 26.828C87.1431 27.044 86.9991 27.188 86.9631 27.188ZM87.6471 26.756L87.3591 27.008L87.5751 26.756C87.7911 26.504 87.7911 26.432 87.6471 26.36C87.5391 26.288 87.5031 26.252 87.6111 26.252C87.6831 26.252 87.7911 26.288 87.8271 26.36C87.8631 26.432 87.7911 26.612 87.6471 26.756ZM88.6911 25.316C88.5831 25.532 88.2231 25.856 88.2231 25.712C88.2231 25.676 88.1511 25.712 88.0431 25.784C87.9351 25.892 87.9711 25.748 88.1511 25.532C88.4751 25.1 88.9071 24.92 88.6911 25.316ZM89.1591 24.668C89.0151 24.812 88.8711 24.92 88.7631 24.92C88.6191 24.92 88.6191 24.884 88.7271 24.74C88.7991 24.668 88.8711 24.632 88.9071 24.632C88.9431 24.668 89.0511 24.632 89.1591 24.56C89.3031 24.452 89.3031 24.488 89.1591 24.668ZM89.6271 24.02C89.5191 24.164 89.3751 24.308 89.3391 24.308C89.2671 24.308 89.1591 24.344 89.0871 24.416C88.9791 24.452 88.9791 24.38 89.1231 24.2C89.3391 23.84 89.4111 23.804 89.3391 24.092C89.3031 24.236 89.3391 24.2 89.5191 24.02L89.8071 23.696L89.6271 24.02ZM89.9511 23.372C89.9511 23.552 89.9151 23.588 89.8431 23.408C89.7711 23.372 89.8071 23.3 89.8431 23.264C89.9151 23.228 89.9511 23.264 89.9511 23.372ZM90.4191 22.76C90.4191 22.976 90.3831 22.976 90.3111 22.832C90.2751 22.76 90.2751 22.688 90.3471 22.652C90.3831 22.616 90.4191 22.688 90.4191 22.76ZM90.6249 29.564C90.9849 30.32 91.8129 31.184 92.1369 31.184C92.2809 31.184 92.6409 31.436 92.9649 31.724C93.8649 32.552 94.4409 32.408 95.8089 31.004C96.4569 30.284 98.3289 27.908 99.1569 26.72L99.7329 25.856L99.8049 26.756C99.9849 28.376 100.669 29.672 101.641 30.14C101.929 30.284 102.181 30.464 102.217 30.572C102.397 31.04 103.621 31.22 104.161 30.86C105.565 29.924 107.509 27.296 111.109 21.392C112.009 19.88 112.189 19.268 111.361 20.42C111.109 20.78 110.857 21.068 110.857 21.032C110.857 20.96 111.073 20.672 111.289 20.348C111.541 20.024 111.685 19.7 111.649 19.664C111.613 19.628 111.253 20.096 110.857 20.636C108.625 23.696 107.509 25.136 106.285 26.396C105.097 27.62 103.513 28.952 103.405 28.808C103.297 28.736 103.585 27.476 103.945 26.288C104.125 25.64 104.701 24.128 105.169 22.904C106.213 20.276 106.609 18.872 106.609 18.116C106.609 17.612 106.573 17.504 106.213 17.18C105.961 16.964 105.745 16.82 105.673 16.856C105.637 16.892 105.565 16.856 105.529 16.748C105.493 16.64 105.385 16.568 105.277 16.604C105.169 16.64 105.097 16.604 105.097 16.496C105.097 16.316 105.061 16.316 104.845 16.532C104.593 16.748 104.593 16.748 104.737 16.496C104.917 16.1 104.881 15.884 104.629 15.812C104.161 15.668 103.801 15.848 103.441 16.46C103.081 17 102.865 17.216 102.865 16.928C102.865 16.856 102.757 16.784 102.613 16.748C102.469 16.712 102.001 16.352 101.605 15.992C101.029 15.416 100.777 15.272 100.345 15.2C99.3369 15.056 97.9329 15.524 96.7449 16.388C93.7569 18.584 90.0129 25.46 90.2649 28.268C90.3009 28.628 90.4809 29.204 90.6249 29.564ZM110.065 22.256C110.137 22.292 110.209 22.184 110.209 22.076C110.245 21.968 110.281 21.824 110.317 21.788C110.389 21.752 110.389 21.824 110.353 21.968C110.317 22.328 110.101 22.544 109.993 22.364C109.957 22.292 109.957 22.256 110.065 22.256ZM109.561 23.264C109.741 23.12 109.741 23.12 109.597 23.336C109.417 23.516 109.345 23.588 109.345 23.48C109.345 23.444 109.417 23.372 109.561 23.264ZM109.057 23.624C109.093 23.552 109.345 23.588 109.345 23.696C109.345 23.696 109.273 23.732 109.165 23.732C109.057 23.732 109.021 23.696 109.057 23.624ZM107.905 25.244C107.977 25.172 108.121 25.136 108.193 25.136C108.265 25.136 108.337 25.028 108.373 24.956C108.409 24.848 108.373 24.812 108.265 24.884C108.157 24.956 108.157 24.92 108.193 24.884C108.265 24.812 108.337 24.776 108.409 24.776C108.481 24.776 108.589 24.704 108.625 24.596C108.661 24.488 108.625 24.452 108.481 24.524C108.373 24.632 108.373 24.596 108.481 24.452C108.589 24.308 108.697 24.272 108.769 24.308C108.877 24.38 108.553 24.992 108.301 25.208C108.085 25.388 107.725 25.46 107.905 25.244ZM107.653 25.712C107.581 25.784 107.545 25.748 107.617 25.712C107.653 25.64 107.761 25.604 107.869 25.568C108.013 25.568 108.013 25.604 107.905 25.784C107.869 25.892 107.725 26.036 107.653 26.072C107.545 26.144 107.545 26.108 107.653 26C107.725 25.892 107.797 25.784 107.797 25.748C107.797 25.676 107.725 25.676 107.653 25.712ZM107.149 26.252C107.257 26.108 107.401 26 107.437 26C107.473 26 107.401 26.108 107.257 26.252C107.149 26.36 107.041 26.468 107.005 26.468C106.969 26.468 107.041 26.36 107.149 26.252ZM106.609 26.936C106.789 26.792 106.789 26.792 106.645 26.972C106.501 27.188 106.393 27.224 106.393 27.152C106.393 27.116 106.465 27.008 106.609 26.936ZM94.1889 28.124C94.1169 28.34 94.0449 28.736 93.9369 28.988L93.7929 29.492L93.8649 28.952C93.9009 28.664 94.0089 28.268 94.0809 28.052L94.2609 27.728L94.1889 28.124ZM98.7609 26.036C98.5809 26.216 98.5089 26.288 98.5089 26.18C98.5089 26.18 98.5809 26.072 98.6889 26C98.8689 25.856 98.9049 25.856 98.7609 26.036ZM99.0849 25.568C98.9409 25.748 98.8329 25.82 98.8329 25.712C98.8329 25.712 98.9409 25.604 99.0489 25.532C99.2289 25.352 99.2289 25.388 99.0849 25.568ZM105.817 19.448C106.177 18.728 105.709 20.132 105.133 21.536C104.773 22.4 104.197 23.912 103.837 24.884C103.189 26.756 103.045 27.008 103.441 25.604C103.657 24.884 105.493 20.132 105.817 19.448ZM104.917 18.944C104.989 18.944 104.665 19.736 104.017 21.212C103.729 21.86 103.297 22.868 103.081 23.408C102.541 24.812 102.505 24.884 102.505 24.812C102.469 24.38 104.701 18.944 104.917 18.944ZM103.297 20.96C103.477 20.744 103.369 21.104 102.901 22.292C102.541 23.192 102.073 24.524 101.893 25.244C101.641 26.18 101.569 26.36 101.605 25.928C101.785 24.524 102.721 21.644 103.297 20.96ZM102.217 22.58C102.145 22.652 101.929 23.264 101.713 23.912C101.497 24.596 101.353 24.92 101.389 24.632C101.497 23.912 101.893 22.724 102.109 22.58C102.289 22.436 102.289 22.436 102.217 22.58ZM100.741 19.232C101.173 18.944 101.605 18.656 101.713 18.62C102.073 18.476 102.001 18.944 101.389 20.168C100.381 22.148 96.7809 26.936 95.2689 28.304C94.9449 28.592 94.6569 28.844 94.5849 28.844C94.4409 28.844 95.1609 26.9 95.8449 25.46C97.1409 22.796 99.0489 20.348 100.741 19.232ZM96.8529 20.096L97.3209 19.592L96.8169 20.276C95.5569 22.004 94.6929 23.444 94.0809 24.956C93.8289 25.496 93.4689 26.468 93.2529 27.116C93.0369 27.764 92.8569 28.196 92.8569 28.052C92.8209 27.512 93.5769 25.46 94.2609 24.092C95.0889 22.508 96.1329 20.888 96.8529 20.096ZM95.4849 20.924C95.5209 20.924 95.4129 21.176 95.1969 21.464C94.6929 22.22 93.6129 24.272 93.1809 25.352C92.9649 25.856 92.6409 26.864 92.4609 27.584C92.2089 28.592 92.1369 28.772 92.1369 28.412C92.1369 27.116 93.2889 24.272 94.8009 21.932C95.1249 21.392 95.4489 20.924 95.4849 20.924ZM91.7049 27.764C91.8489 27.08 92.2449 25.856 92.4969 25.424C92.6409 25.172 92.6769 25.1 92.6409 25.244C92.6049 25.352 92.3889 26.036 92.1729 26.756C91.7409 28.088 91.5609 28.484 91.7049 27.764ZM123.59 34.82C124.85 36.044 125.21 36.296 126.074 36.476C126.758 36.584 126.938 36.584 127.766 36.44C130.286 36.044 133.742 34.136 135.902 32.012C137.486 30.428 138.206 29.132 138.35 27.62C138.422 26.612 138.134 25.964 137.126 24.992C136.73 24.596 136.334 24.128 136.226 23.912C135.65 22.832 134.282 22.292 131.15 21.824C127.694 21.32 125.858 20.78 125.714 20.276C125.534 19.52 126.398 17.504 127.586 15.992C128.954 14.264 131.438 12.032 133.598 10.556C138.206 7.46 144.11 5.156 147.026 5.3L147.782 5.372L147.386 6.128C146.882 7.1 145.37 9.548 144.578 10.664C143.714 11.816 142.67 13.076 140.87 15.128C137.702 18.656 137.378 19.268 138.17 20.168C138.674 20.672 138.962 20.708 139.898 20.312C141.842 19.52 145.406 16.388 147.854 13.328C149.69 11.024 151.022 8.36 151.166 6.596C151.238 5.696 150.914 4.688 150.374 4.004C150.194 3.752 149.978 3.356 149.906 3.104C149.402 1.196 147.458 0.511998 144.074 1.016C139.61 1.664 133.274 4.688 128.846 8.18C127.55 9.224 124.814 11.96 124.058 13.004C122.906 14.516 122.15 16.388 122.15 17.648C122.15 18.296 122.546 19.448 123.014 20.24C123.158 20.528 123.59 21.068 123.914 21.428C124.274 21.788 124.85 22.4 125.174 22.796C125.894 23.624 127.154 24.452 128.27 24.812C128.666 24.92 129.962 25.208 131.15 25.388C134.066 25.892 134.498 26 134.498 26.108C134.498 26.432 133.454 27.836 132.59 28.664C130.862 30.32 128.378 31.76 126.218 32.408C125.03 32.732 124.454 32.768 123.698 32.516C122.078 32.012 121.79 32.012 121.79 32.444C121.79 32.876 122.294 33.524 123.59 34.82ZM143.606 14.048C144.146 13.436 145.082 12.212 145.694 11.384C146.306 10.52 146.918 9.728 147.062 9.548C147.458 9.08 145.946 11.348 145.19 12.392C144.794 12.86 144.074 13.724 143.534 14.264L142.598 15.236L143.606 14.048ZM143.678 15.524C142.742 16.46 141.626 17.54 141.194 17.864C140.762 18.224 141.374 17.612 142.49 16.496C143.606 15.416 145.046 13.904 145.658 13.184C146.27 12.464 146.774 11.888 146.81 11.888C146.846 11.888 146.522 12.32 146.126 12.86C145.73 13.4 144.614 14.588 143.678 15.524ZM148.394 11.6L148.178 11.996C148.07 12.176 147.602 12.788 147.17 13.328C146.738 13.868 146.27 14.408 146.126 14.516C145.982 14.66 146.306 14.192 146.846 13.544C147.386 12.86 147.962 12.14 148.106 11.924L148.394 11.6ZM147.962 9.188C147.35 10.448 145.694 12.644 143.93 14.552C143.39 15.128 142.49 16.028 141.914 16.532C141.014 17.36 141.086 17.288 142.562 15.704C144.686 13.472 145.658 12.284 146.882 10.556C148.07 8.828 148.178 8.648 147.962 9.188ZM126.794 14.696C126.686 14.84 126.542 14.948 126.506 14.948C126.47 14.948 126.542 14.84 126.686 14.696C126.794 14.588 126.902 14.48 126.938 14.48C126.974 14.48 126.902 14.588 126.794 14.696ZM128.63 11.132C128.666 11.132 128.774 11.024 128.918 10.952C129.134 10.772 129.134 10.772 128.99 10.988C128.882 11.096 128.774 11.168 128.702 11.168C128.63 11.168 128.594 11.168 128.63 11.132ZM123.914 16.136C123.914 15.884 125.786 13.184 125.966 13.184C126.002 13.184 125.714 13.58 125.39 14.048C125.03 14.552 124.598 15.236 124.382 15.596C124.022 16.208 123.914 16.352 123.914 16.136ZM124.49 16.064C124.958 15.056 126.074 13.652 127.406 12.356C128.018 11.744 128.306 11.492 128.018 11.816C126.758 13.184 126.398 13.58 125.75 14.444C125.39 14.948 124.886 15.74 124.634 16.244C124.094 17.252 123.986 17.108 124.49 16.064ZM125.462 15.992C124.778 17 124.706 17.036 125.246 16.064C125.894 14.876 126.542 14.084 127.946 12.644C129.17 11.42 131.69 9.296 131.942 9.296C132.014 9.296 131.546 9.692 130.934 10.16C128.99 11.636 126.614 14.156 125.462 15.992ZM125.678 17.828C125.678 17.648 126.362 16.496 126.506 16.388C126.578 16.352 126.542 16.496 126.398 16.712C126.29 16.928 126.074 17.288 125.93 17.54C125.786 17.756 125.678 17.9 125.678 17.828ZM136.946 29.636C137.126 29.312 137.27 29.096 137.306 29.168C137.306 29.24 137.198 29.492 137.018 29.78C136.622 30.392 136.586 30.356 136.946 29.636ZM134.858 28.556C135.002 28.304 135.254 27.836 135.47 27.476C135.83 26.828 135.794 27.152 135.434 27.872C135.29 28.088 135.074 28.448 134.894 28.628L134.606 28.988L134.858 28.556ZM134.714 29.42C135.002 29.096 135.47 28.412 135.758 27.908C136.19 27.152 136.262 27.08 136.19 27.404C136.118 27.836 135.758 28.448 135.11 29.276C134.858 29.528 134.57 29.816 134.462 29.888C134.282 29.996 134.39 29.78 134.714 29.42ZM134.75 30.356C135.182 29.924 135.686 29.276 135.902 28.952C136.118 28.628 136.334 28.376 136.334 28.412C136.478 28.52 135.758 29.564 135.002 30.32C134.498 30.788 134.066 31.184 134.03 31.184C133.994 31.184 134.318 30.788 134.75 30.356ZM145.269 29.564C145.629 30.32 146.457 31.184 146.781 31.184C146.925 31.184 147.285 31.436 147.609 31.724C148.509 32.552 149.085 32.408 150.453 31.004C151.101 30.284 152.973 27.908 153.801 26.72L154.377 25.856L154.449 26.756C154.629 28.376 155.313 29.672 156.285 30.14C156.573 30.284 156.825 30.464 156.861 30.572C157.041 31.04 158.265 31.22 158.805 30.86C160.209 29.924 162.153 27.296 165.753 21.392C166.653 19.88 166.833 19.268 166.005 20.42C165.753 20.78 165.501 21.068 165.501 21.032C165.501 20.96 165.717 20.672 165.933 20.348C166.185 20.024 166.329 19.7 166.293 19.664C166.257 19.628 165.897 20.096 165.501 20.636C163.269 23.696 162.153 25.136 160.929 26.396C159.741 27.62 158.157 28.952 158.049 28.808C157.941 28.736 158.229 27.476 158.589 26.288C158.769 25.64 159.345 24.128 159.813 22.904C160.857 20.276 161.253 18.872 161.253 18.116C161.253 17.612 161.217 17.504 160.857 17.18C160.605 16.964 160.389 16.82 160.317 16.856C160.281 16.892 160.209 16.856 160.173 16.748C160.137 16.64 160.029 16.568 159.921 16.604C159.813 16.64 159.741 16.604 159.741 16.496C159.741 16.316 159.705 16.316 159.489 16.532C159.237 16.748 159.237 16.748 159.381 16.496C159.561 16.1 159.525 15.884 159.273 15.812C158.805 15.668 158.445 15.848 158.085 16.46C157.725 17 157.509 17.216 157.509 16.928C157.509 16.856 157.401 16.784 157.257 16.748C157.113 16.712 156.645 16.352 156.249 15.992C155.673 15.416 155.421 15.272 154.989 15.2C153.981 15.056 152.577 15.524 151.389 16.388C148.401 18.584 144.657 25.46 144.909 28.268C144.945 28.628 145.125 29.204 145.269 29.564ZM164.709 22.256C164.781 22.292 164.853 22.184 164.853 22.076C164.889 21.968 164.925 21.824 164.961 21.788C165.033 21.752 165.033 21.824 164.997 21.968C164.961 22.328 164.745 22.544 164.637 22.364C164.601 22.292 164.601 22.256 164.709 22.256ZM164.205 23.264C164.385 23.12 164.385 23.12 164.241 23.336C164.061 23.516 163.989 23.588 163.989 23.48C163.989 23.444 164.061 23.372 164.205 23.264ZM163.701 23.624C163.737 23.552 163.989 23.588 163.989 23.696C163.989 23.696 163.917 23.732 163.809 23.732C163.701 23.732 163.665 23.696 163.701 23.624ZM162.549 25.244C162.621 25.172 162.765 25.136 162.837 25.136C162.909 25.136 162.981 25.028 163.017 24.956C163.053 24.848 163.017 24.812 162.909 24.884C162.801 24.956 162.801 24.92 162.837 24.884C162.909 24.812 162.981 24.776 163.053 24.776C163.125 24.776 163.233 24.704 163.269 24.596C163.305 24.488 163.269 24.452 163.125 24.524C163.017 24.632 163.017 24.596 163.125 24.452C163.233 24.308 163.341 24.272 163.413 24.308C163.521 24.38 163.197 24.992 162.945 25.208C162.729 25.388 162.369 25.46 162.549 25.244ZM162.297 25.712C162.225 25.784 162.189 25.748 162.261 25.712C162.297 25.64 162.405 25.604 162.513 25.568C162.657 25.568 162.657 25.604 162.549 25.784C162.513 25.892 162.369 26.036 162.297 26.072C162.189 26.144 162.189 26.108 162.297 26C162.369 25.892 162.441 25.784 162.441 25.748C162.441 25.676 162.369 25.676 162.297 25.712ZM161.793 26.252C161.901 26.108 162.045 26 162.081 26C162.117 26 162.045 26.108 161.901 26.252C161.793 26.36 161.685 26.468 161.649 26.468C161.613 26.468 161.685 26.36 161.793 26.252ZM161.253 26.936C161.433 26.792 161.433 26.792 161.289 26.972C161.145 27.188 161.037 27.224 161.037 27.152C161.037 27.116 161.109 27.008 161.253 26.936ZM148.833 28.124C148.761 28.34 148.689 28.736 148.581 28.988L148.437 29.492L148.509 28.952C148.545 28.664 148.653 28.268 148.725 28.052L148.905 27.728L148.833 28.124ZM153.405 26.036C153.225 26.216 153.153 26.288 153.153 26.18C153.153 26.18 153.225 26.072 153.333 26C153.513 25.856 153.549 25.856 153.405 26.036ZM153.729 25.568C153.585 25.748 153.477 25.82 153.477 25.712C153.477 25.712 153.585 25.604 153.693 25.532C153.873 25.352 153.873 25.388 153.729 25.568ZM160.461 19.448C160.821 18.728 160.353 20.132 159.777 21.536C159.417 22.4 158.841 23.912 158.481 24.884C157.833 26.756 157.689 27.008 158.085 25.604C158.301 24.884 160.137 20.132 160.461 19.448ZM159.561 18.944C159.633 18.944 159.309 19.736 158.661 21.212C158.373 21.86 157.941 22.868 157.725 23.408C157.185 24.812 157.149 24.884 157.149 24.812C157.113 24.38 159.345 18.944 159.561 18.944ZM157.941 20.96C158.121 20.744 158.013 21.104 157.545 22.292C157.185 23.192 156.717 24.524 156.537 25.244C156.285 26.18 156.213 26.36 156.249 25.928C156.429 24.524 157.365 21.644 157.941 20.96ZM156.861 22.58C156.789 22.652 156.573 23.264 156.357 23.912C156.141 24.596 155.997 24.92 156.033 24.632C156.141 23.912 156.537 22.724 156.753 22.58C156.933 22.436 156.933 22.436 156.861 22.58ZM155.385 19.232C155.817 18.944 156.249 18.656 156.357 18.62C156.717 18.476 156.645 18.944 156.033 20.168C155.025 22.148 151.425 26.936 149.913 28.304C149.589 28.592 149.301 28.844 149.229 28.844C149.085 28.844 149.805 26.9 150.489 25.46C151.785 22.796 153.693 20.348 155.385 19.232ZM151.497 20.096L151.965 19.592L151.461 20.276C150.201 22.004 149.337 23.444 148.725 24.956C148.473 25.496 148.113 26.468 147.897 27.116C147.681 27.764 147.501 28.196 147.501 28.052C147.465 27.512 148.221 25.46 148.905 24.092C149.733 22.508 150.777 20.888 151.497 20.096ZM150.129 20.924C150.165 20.924 150.057 21.176 149.841 21.464C149.337 22.22 148.257 24.272 147.825 25.352C147.609 25.856 147.285 26.864 147.105 27.584C146.853 28.592 146.781 28.772 146.781 28.412C146.781 27.116 147.933 24.272 149.445 21.932C149.769 21.392 150.093 20.924 150.129 20.924ZM146.349 27.764C146.493 27.08 146.889 25.856 147.141 25.424C147.285 25.172 147.321 25.1 147.285 25.244C147.249 25.352 147.033 26.036 146.817 26.756C146.385 28.088 146.205 28.484 146.349 27.764ZM168.253 33.416C168.757 33.416 168.901 33.344 169.549 32.876C170.377 32.264 171.997 30.5 173.293 28.772L174.193 27.62L174.301 28.412C174.553 30.572 175.345 32.012 176.677 32.66C177.037 32.804 177.361 32.984 177.397 33.056C177.433 33.128 177.649 33.272 177.829 33.344C178.405 33.596 179.161 33.56 179.773 33.272C181.213 32.624 183.913 29.204 187.405 23.624C188.341 22.148 188.629 21.464 188.665 20.816C188.701 20.384 188.665 20.276 188.485 20.24C188.161 20.168 187.225 21.248 186.073 23.084C183.589 27.044 182.329 28.772 180.889 30.212C179.917 31.184 179.053 31.76 178.369 31.94C178.081 31.976 178.045 31.976 177.937 31.688C177.793 31.148 177.865 29.06 178.081 27.944C178.729 24.56 180.565 20.096 184.705 11.852C185.929 9.332 187.117 6.956 187.297 6.488L187.621 5.696L187.369 5.372C187.261 5.192 187.045 5.084 186.901 5.084C186.757 5.084 186.649 5.012 186.649 4.94C186.649 4.832 186.577 4.76 186.541 4.76C186.469 4.76 186.325 4.616 186.217 4.4C186.073 4.148 185.965 4.076 185.677 4.076C185.353 4.076 185.173 4.184 184.633 4.76C183.229 6.236 180.205 11.24 177.901 15.848L177.289 17.108L176.749 16.748C176.461 16.568 176.029 16.244 175.813 16.028C175.165 15.452 174.733 15.344 173.761 15.416C172.141 15.524 170.341 16.568 168.865 18.152C167.029 20.132 165.373 23.444 164.761 26.18C164.473 27.476 164.473 29.708 164.761 30.608C164.977 31.4 165.769 32.3 166.309 32.408C166.489 32.48 166.885 32.696 167.173 32.948C167.605 33.344 167.713 33.416 168.253 33.416ZM187.945 21.608C188.017 21.5 188.089 21.392 188.125 21.392C188.161 21.392 188.125 21.5 188.053 21.608C187.981 21.752 187.909 21.86 187.873 21.86C187.837 21.86 187.873 21.752 187.945 21.608ZM167.893 29.024C167.893 28.664 168.901 25.532 169.009 25.64C169.045 25.676 168.793 26.468 168.469 27.404C168.181 28.34 167.929 29.06 167.893 29.024ZM168.793 23.948C168.829 23.84 168.901 23.768 168.937 23.804C168.973 23.84 168.937 23.948 168.865 24.02C168.757 24.128 168.721 24.128 168.793 23.948ZM175.921 25.748C175.885 25.856 175.813 26.288 175.741 26.684L175.561 27.476L175.633 26.72C175.669 26.288 175.741 25.892 175.777 25.784C175.885 25.604 175.921 25.604 175.921 25.748ZM177.397 29.024C177.361 29.06 177.325 28.988 177.325 28.88C177.361 28.736 177.361 28.7 177.397 28.808C177.433 28.88 177.433 28.988 177.397 29.024ZM178.081 25.856C177.973 26.216 177.793 26.936 177.685 27.512C177.577 28.052 177.469 28.376 177.469 28.232C177.433 27.836 177.865 26.072 178.081 25.46C178.333 24.812 178.333 25.028 178.081 25.856ZM178.729 21.464C178.729 21.5 178.693 21.644 178.621 21.752C178.549 21.824 178.513 21.86 178.513 21.788C178.513 21.752 178.549 21.608 178.621 21.5C178.693 21.428 178.729 21.392 178.729 21.464ZM180.385 17.612C180.349 17.72 180.277 17.756 180.277 17.684C180.277 17.612 180.349 17.468 180.385 17.396C180.457 17.288 180.493 17.252 180.493 17.324C180.493 17.396 180.457 17.504 180.385 17.612ZM184.345 11.492C184.093 11.996 184.021 11.924 184.237 11.42C184.345 11.204 184.453 11.024 184.489 11.06C184.525 11.096 184.453 11.276 184.345 11.492ZM184.885 10.412C184.741 10.7 184.597 10.916 184.561 10.916C184.525 10.916 184.633 10.7 184.741 10.412C184.885 10.16 185.029 9.944 185.065 9.944C185.101 9.944 184.993 10.16 184.885 10.412ZM186.289 5.696C186.361 5.696 186.181 6.056 185.929 6.524C184.273 9.188 180.565 16.352 179.413 19.088C178.765 20.564 178.621 20.816 178.621 20.564C178.621 20.276 179.809 17.612 181.033 15.128C183.049 11.096 186.073 5.696 186.289 5.696ZM182.473 10.376C183.013 9.368 183.589 8.432 183.589 8.576C183.589 8.612 183.445 8.864 183.301 9.116C183.157 9.332 182.869 9.8 182.725 10.124C182.545 10.448 182.329 10.844 182.221 10.952C182.113 11.096 182.221 10.808 182.473 10.376ZM179.737 15.488C179.881 15.092 181.825 11.42 181.933 11.312C182.005 11.24 181.573 12.14 180.961 13.328C179.989 15.236 179.521 16.028 179.737 15.488ZM179.521 15.92C179.557 15.812 179.629 15.74 179.665 15.776C179.701 15.812 179.665 15.92 179.593 15.992C179.485 16.1 179.449 16.1 179.521 15.92ZM180.565 14.696C182.077 11.708 185.677 5.48 185.893 5.48C185.965 5.48 185.785 5.768 185.029 7.028C183.229 9.98 180.277 15.596 179.089 18.26C178.405 19.808 178.405 19.88 178.405 19.592C178.405 19.376 179.665 16.46 180.565 14.696ZM176.677 26.504C176.785 25.748 177.325 23.768 177.613 22.976C177.757 22.58 177.937 22.148 177.973 22.004C178.009 21.896 178.117 21.716 178.225 21.608C178.333 21.536 178.297 21.716 178.117 22.256C177.937 22.688 177.685 23.372 177.541 23.768C177.433 24.164 177.145 25.064 176.965 25.748C176.785 26.432 176.641 26.792 176.677 26.504ZM176.497 25.424C176.389 25.892 176.209 26.864 176.101 27.548C175.957 28.664 175.921 28.7 175.921 28.052C175.921 27.224 176.209 25.424 176.461 24.812C176.713 24.164 176.749 24.452 176.497 25.424ZM175.021 18.512C175.885 17.972 176.101 17.972 176.245 18.476C176.461 19.016 176.425 19.124 175.849 20.636C175.417 21.788 175.201 22.148 174.697 22.688C174.337 23.084 173.653 23.876 173.185 24.488C172.681 25.064 171.781 26.144 171.169 26.864C170.557 27.584 169.693 28.52 169.261 28.916C168.541 29.636 168.505 29.672 168.505 29.384C168.505 28.916 169.369 26.36 169.945 25.1C171.385 22.076 173.329 19.52 175.021 18.512ZM165.985 27.404C166.057 26.612 166.741 24.632 167.317 23.516C167.569 23.012 167.821 22.58 167.821 22.58C167.857 22.58 167.713 22.976 167.461 23.444C167.245 23.948 166.849 24.956 166.597 25.712C166.381 26.468 166.093 27.296 166.021 27.512C165.913 27.908 165.913 27.908 165.985 27.404ZM166.453 28.412C166.309 29.096 166.273 29.204 166.273 28.88C166.237 28.232 166.669 26.252 167.065 25.172C167.461 24.128 167.965 23.084 168.613 21.968C169.189 20.996 169.693 20.42 169.189 21.284C168.289 22.832 167.497 24.632 167.065 26C166.813 26.792 166.525 27.872 166.453 28.412ZM167.569 25.856C168.181 23.912 169.729 21.068 170.845 19.844L171.205 19.448L170.881 19.916C169.981 21.14 168.757 23.336 168.145 24.812C167.965 25.28 167.641 26.144 167.425 26.684C166.993 27.944 167.065 27.368 167.569 25.856ZM201.07 21.176C200.89 20.996 200.818 21.032 199.882 22.04C199.342 22.616 198.37 23.696 197.758 24.452C195.346 27.26 193.834 28.844 192.898 29.528C191.962 30.14 191.098 30.572 190.522 30.644L190.054 30.716V30.14C190.054 28.628 190.81 26.576 193.078 21.968C194.59 18.872 194.878 18.08 194.482 18.08C194.374 18.08 194.302 18.008 194.302 17.9C194.302 17.756 194.23 17.72 194.05 17.756C193.906 17.792 193.87 17.792 193.906 17.684C193.942 17.612 193.906 17.612 193.798 17.648C193.654 17.72 193.582 17.684 193.618 17.504C193.654 17.396 193.582 17.324 193.474 17.36C193.33 17.36 193.222 17.252 193.114 17.036C192.466 15.452 190.522 17.252 188.47 21.392C187.138 24.02 186.67 25.784 186.778 27.656C186.886 29.204 187.642 30.716 188.614 31.292C188.866 31.436 189.19 31.688 189.37 31.832C189.55 32.012 189.874 32.192 190.126 32.3C190.702 32.516 191.206 32.444 191.998 32.048C193.762 31.22 197.506 26.972 200.53 22.472C201.214 21.428 201.25 21.356 201.07 21.176ZM190.522 26.216C190.45 26.324 190.414 26.324 190.414 26.288C190.414 26.216 190.45 26.072 190.522 25.964C190.594 25.892 190.63 25.856 190.63 25.928C190.63 26 190.594 26.108 190.522 26.216ZM191.026 25.064C190.81 25.46 190.666 25.784 190.666 25.712C190.63 25.604 191.278 24.2 191.314 24.236C191.35 24.272 191.206 24.632 191.026 25.064ZM191.638 23.66C191.566 23.876 191.458 23.912 191.458 23.732C191.458 23.696 191.53 23.588 191.602 23.552C191.638 23.516 191.674 23.588 191.638 23.66ZM192.358 20.492C192.25 20.708 192.178 20.744 192.178 20.564C192.178 20.492 192.214 20.42 192.286 20.384C192.358 20.348 192.394 20.384 192.358 20.492ZM190.522 20.672C190.666 20.42 190.81 20.204 190.81 20.204C190.846 20.204 190.774 20.42 190.63 20.672C190.522 20.924 190.378 21.14 190.342 21.14C190.306 21.14 190.378 20.924 190.522 20.672ZM188.074 26.504C188.038 26.036 188.65 24.416 189.406 22.832C189.838 21.968 190.198 21.248 190.234 21.248C190.306 21.248 189.982 21.968 189.442 23.084C189.19 23.624 188.758 24.632 188.506 25.388C188.254 26.144 188.074 26.648 188.074 26.504ZM188.29 27.764C188.29 27.26 188.65 25.676 189.046 24.668C189.802 22.76 191.674 19.268 192.43 18.44L192.682 18.152L192.466 18.512C191.206 20.564 189.874 23.192 189.298 24.668C189.118 25.172 188.794 26.108 188.614 26.792C188.47 27.476 188.29 27.908 188.29 27.764ZM189.226 26.612C189.226 26.684 189.19 26.828 189.118 26.936C188.902 27.224 189.118 26.36 189.55 25.172C190.054 23.768 191.854 20.204 192.646 18.98C193.258 18.08 193.582 17.72 193.114 18.512C191.566 21.104 189.226 25.928 189.226 26.612ZM189.694 28.556C189.694 28.304 190.306 26.396 190.342 26.468C190.378 26.504 190.234 27.008 190.054 27.62C189.874 28.232 189.73 28.664 189.694 28.556ZM196.678 26.612C196.534 26.792 196.426 26.864 196.426 26.756C196.426 26.72 196.498 26.648 196.642 26.54C196.822 26.396 196.822 26.396 196.678 26.612ZM197.182 26.324C197.074 26.468 196.966 26.576 196.93 26.576C196.894 26.576 196.966 26.468 197.074 26.324C197.182 26.216 197.326 26.108 197.326 26.108C197.362 26.108 197.29 26.216 197.182 26.324ZM197.254 25.892C197.11 26.072 197.002 26.144 197.002 26.036C197.002 26.036 197.11 25.928 197.218 25.856C197.398 25.712 197.398 25.712 197.254 25.892ZM197.722 25.316C197.578 25.496 197.47 25.568 197.47 25.46C197.47 25.424 197.578 25.352 197.686 25.244C197.866 25.1 197.866 25.1 197.722 25.316ZM198.19 25.064C198.046 25.28 197.938 25.316 197.938 25.244C197.938 25.208 198.046 25.1 198.154 25.028C198.334 24.884 198.334 24.884 198.19 25.064ZM198.73 24.308C198.622 24.272 198.478 24.344 198.442 24.452C198.406 24.56 198.442 24.56 198.55 24.488C198.694 24.416 198.694 24.452 198.55 24.596C198.478 24.704 198.37 24.776 198.334 24.74C198.298 24.704 198.19 24.74 198.082 24.848C197.974 24.92 198.082 24.74 198.298 24.488C198.622 24.02 198.91 23.804 198.73 24.092C198.694 24.128 198.73 24.236 198.802 24.272C198.874 24.308 198.874 24.308 198.73 24.308ZM199.414 23.516C199.306 23.66 199.198 23.732 199.162 23.696C199.126 23.66 199.018 23.696 198.91 23.768C198.802 23.84 198.838 23.768 198.982 23.624C199.126 23.444 199.342 23.3 199.414 23.3C199.594 23.3 199.558 23.336 199.414 23.516ZM199.774 23.012C199.738 23.048 199.63 23.084 199.522 23.12C199.378 23.12 199.378 23.084 199.486 22.976C199.558 22.868 199.666 22.832 199.738 22.868C199.81 22.904 199.81 22.976 199.774 23.012ZM200.134 22.4C200.134 22.508 200.026 22.616 199.918 22.616C199.702 22.652 199.702 22.652 199.918 22.436C200.17 22.148 200.17 22.148 200.134 22.4ZM200.71 21.824C200.674 21.86 200.602 21.896 200.566 21.932C200.53 21.932 200.422 21.968 200.314 22.004C200.17 22.112 200.17 22.112 200.278 21.968C200.35 21.896 200.53 21.788 200.602 21.788C200.71 21.752 200.782 21.788 200.71 21.824ZM201.034 21.428C201.034 21.464 200.926 21.464 200.854 21.464C200.746 21.464 200.71 21.428 200.746 21.356C200.782 21.284 201.034 21.32 201.034 21.428ZM194.014 14.084C194.194 14.156 194.338 14.3 194.41 14.48C194.482 14.624 194.626 14.804 194.734 14.804C194.842 14.84 194.986 14.876 195.022 14.876C195.13 14.912 195.526 14.408 195.886 13.832C196.318 13.184 197.182 12.356 198.01 11.852C198.37 11.6 198.658 11.348 198.658 11.276C198.658 11.168 198.478 10.916 198.226 10.7C197.794 10.304 197.722 10.304 197.254 10.376C196.03 10.556 193.762 11.816 193.438 12.464C193.33 12.68 193.222 12.932 193.222 13.004C193.222 13.292 193.726 13.976 194.014 14.084ZM195.202 12.896C195.31 12.788 195.238 12.932 195.058 13.22C194.878 13.472 194.662 13.724 194.626 13.724C194.482 13.724 194.914 13.112 195.202 12.896ZM194.482 13.112C194.662 12.968 194.662 12.968 194.554 13.22C194.41 13.508 194.302 13.544 194.302 13.364C194.302 13.328 194.374 13.22 194.482 13.112ZM217.169 26.18C219.005 24.704 223.037 21.86 223.685 21.608C223.937 21.5 223.973 21.14 223.721 21.14C223.685 21.14 223.577 21.032 223.541 20.924C223.397 20.456 222.857 20.636 220.733 21.716C217.889 23.156 214.181 25.676 211.193 28.196C210.653 28.664 210.185 29.024 210.185 28.988C210.185 28.664 211.877 25.424 213.713 22.4C215.369 19.592 215.837 18.764 215.837 18.512C215.837 18.404 215.693 18.188 215.549 18.044C215.369 17.9 215.153 17.576 215.081 17.324C214.937 17.036 214.793 16.892 214.541 16.856C214.109 16.748 213.641 17 212.813 17.828C212.525 18.152 212.201 18.44 212.165 18.44C212.129 18.44 212.021 18.296 211.949 18.08C211.733 17.612 211.013 16.928 210.473 16.676C210.221 16.568 209.717 16.28 209.357 16.028C208.817 15.668 208.637 15.596 208.097 15.596C206.477 15.596 204.641 16.964 202.733 19.484C200.933 21.932 199.421 25.316 199.097 27.692C198.953 28.772 199.061 29.96 199.421 30.68C199.781 31.364 200.609 31.976 201.113 31.976C201.401 31.976 201.617 32.084 201.761 32.228C202.049 32.552 202.553 32.804 202.877 32.804C203.057 32.804 203.345 32.696 203.597 32.516C203.849 32.372 204.065 32.228 204.101 32.228C204.137 32.228 204.029 32.516 203.921 32.912C202.841 36.008 202.769 39.572 203.705 41.48C204.029 42.128 204.749 42.92 205.073 42.992C205.253 43.028 205.541 43.28 205.757 43.496C205.937 43.712 206.225 44 206.441 44.072C207.701 44.612 209.213 43.676 210.725 41.408C212.129 39.284 212.597 37.448 212.021 36.368C211.877 36.044 211.553 35.648 211.229 35.432C210.941 35.252 210.509 34.928 210.293 34.712C210.077 34.532 209.753 34.316 209.573 34.244C209.429 34.136 209.285 34.064 209.249 34.028C209.177 33.956 210.293 32.66 211.805 31.112C213.353 29.564 215.513 27.548 217.169 26.18ZM199.529 28.664C199.493 28.7 199.457 28.628 199.457 28.52C199.457 28.376 199.493 28.34 199.529 28.448C199.565 28.52 199.565 28.628 199.529 28.664ZM200.537 28.628C200.501 29.096 200.465 29.492 200.429 29.492C200.357 29.6 200.429 28.52 200.501 28.16C200.573 27.944 200.573 28.124 200.537 28.628ZM201.221 27.476C201.149 27.8 201.041 28.52 201.005 29.096C200.933 30.032 200.897 30.104 200.825 29.708C200.717 29.204 200.789 28.484 201.077 27.476C201.293 26.648 201.401 26.648 201.221 27.476ZM201.977 26.972C201.833 27.62 201.653 28.484 201.581 28.952C201.473 29.816 201.329 30.14 201.329 29.564C201.329 28.736 202.049 25.604 202.229 25.748C202.229 25.784 202.121 26.324 201.977 26.972ZM202.409 25.496C202.337 25.604 202.265 25.64 202.265 25.568C202.265 25.496 202.337 25.352 202.409 25.28C202.445 25.172 202.517 25.136 202.517 25.208C202.517 25.28 202.445 25.424 202.409 25.496ZM214.973 18.116C215.009 18.152 214.757 18.548 214.397 18.98C213.713 19.916 213.605 20.06 213.605 19.916C213.605 19.808 214.901 18.08 214.973 18.116ZM214.325 18.26C214.721 17.864 214.685 17.972 214.073 18.728C213.641 19.232 213.281 19.7 213.209 19.7C212.993 19.808 213.821 18.728 214.325 18.26ZM213.605 18.62C213.749 18.476 213.677 18.62 213.425 18.944C213.173 19.232 212.921 19.484 212.921 19.484C212.813 19.484 213.353 18.836 213.605 18.62ZM211.373 23.372C211.121 23.768 209.465 26.72 208.817 27.98C208.457 28.736 208.133 29.348 208.097 29.384C207.773 29.744 209.681 26 210.509 24.56C210.869 24.02 211.229 23.48 211.337 23.372C211.481 23.228 211.517 23.228 211.373 23.372ZM203.237 29.096C203.201 28.304 204.353 25.352 205.289 23.696C206.801 21.176 209.537 18.08 209.933 18.512C209.969 18.548 210.149 18.98 210.329 19.448L210.653 20.276L209.861 21.428C208.601 23.192 208.205 23.732 206.945 25.244C205.325 27.224 203.237 29.42 203.237 29.096ZM204.893 36.872C204.857 36.62 205.289 34.82 205.361 34.82C205.433 34.82 205.469 34.856 205.469 34.892C205.469 35.072 204.893 37.016 204.893 36.872ZM205.145 34.136C204.857 35.072 204.749 35.36 204.749 35.072C204.749 34.532 206.693 29.384 207.197 28.592C207.521 28.088 207.485 28.412 207.125 29.132C206.657 30.068 205.541 32.876 205.145 34.136ZM205.901 33.236C205.721 33.416 205.865 33.02 206.621 31.112C207.341 29.276 208.349 27.152 208.745 26.684C208.889 26.54 208.673 27.044 208.277 27.836C207.881 28.664 207.233 30.176 206.801 31.22C206.369 32.264 205.973 33.164 205.901 33.236ZM208.025 29.564C208.025 29.636 207.953 29.816 207.881 29.996C207.773 30.14 207.701 30.212 207.701 30.176C207.701 30.104 207.773 29.924 207.881 29.744C207.953 29.6 208.025 29.492 208.025 29.564ZM209.753 40.688C208.961 41.768 208.925 41.696 209.681 40.58C210.041 40.04 210.437 39.356 210.545 39.068C210.689 38.816 210.797 38.6 210.833 38.636C210.941 38.744 210.365 39.788 209.753 40.688ZM210.365 37.664C210.437 37.412 210.509 37.304 210.509 37.412C210.509 37.52 210.437 37.736 210.365 37.952C210.149 38.384 210.149 38.204 210.365 37.664ZM210.005 38.564C210.041 38.456 210.113 38.384 210.149 38.42C210.185 38.456 210.149 38.528 210.077 38.636C209.969 38.744 209.933 38.708 210.005 38.564ZM210.545 37.952C210.725 37.412 210.869 37.124 210.869 37.232C210.869 37.628 210.473 38.708 210.041 39.464C209.861 39.824 209.645 40.148 209.573 40.184C209.537 40.22 209.645 39.932 209.861 39.572C210.041 39.176 210.365 38.456 210.545 37.952ZM209.573 36.692C209.573 37.376 208.529 39.32 207.593 40.4C207.233 40.76 206.873 41.12 206.729 41.192C206.477 41.336 206.477 41.3 206.585 40.292C206.657 39.32 207.161 36.872 207.305 36.728C207.341 36.692 207.593 36.656 207.845 36.656C208.133 36.656 208.637 36.584 208.961 36.548C209.537 36.44 209.573 36.44 209.573 36.692ZM209.105 29.672C209.321 29.168 210.797 26.18 211.409 25.136C212.129 23.876 214.037 20.78 214.217 20.6C214.361 20.492 214.037 21.032 213.209 22.4C212.057 24.2 211.085 25.928 210.113 27.944C209.177 29.816 208.817 30.428 209.105 29.672ZM211.049 30.32C210.725 30.68 210.653 30.752 210.653 30.644C210.653 30.644 210.833 30.464 211.013 30.284L211.409 29.924L211.049 30.32Z" fill="black"/>
<path d="M30.1494 54.08C29.3174 54.08 28.5281 53.9413 27.7814 53.664C27.0454 53.376 26.4748 53.008 26.0694 52.56L26.4374 51.952C26.8214 52.3467 27.3441 52.6827 28.0054 52.96C28.6774 53.2267 29.3868 53.36 30.1334 53.36C30.8801 53.36 31.4881 53.264 31.9574 53.072C32.4374 52.8693 32.7894 52.6027 33.0134 52.272C33.2481 51.9413 33.3654 51.5733 33.3654 51.168C33.3654 50.688 33.2374 50.304 32.9814 50.016C32.7254 49.728 32.3894 49.4987 31.9734 49.328C31.5574 49.1573 31.1041 49.0133 30.6134 48.896C30.1228 48.7787 29.6268 48.656 29.1254 48.528C28.6241 48.3893 28.1654 48.2133 27.7494 48C27.3334 47.7867 26.9974 47.4987 26.7414 47.136C26.4961 46.7627 26.3734 46.2827 26.3734 45.696C26.3734 45.1627 26.5121 44.672 26.7894 44.224C27.0668 43.776 27.4988 43.4133 28.0854 43.136C28.6721 42.8587 29.4241 42.72 30.3414 42.72C30.9601 42.72 31.5681 42.8107 32.1654 42.992C32.7734 43.1733 33.2908 43.4187 33.7174 43.728L33.4134 44.384C32.9441 44.064 32.4374 43.8293 31.8934 43.68C31.3601 43.52 30.8428 43.44 30.3414 43.44C29.6268 43.44 29.0348 43.5413 28.5654 43.744C28.0961 43.9467 27.7494 44.2187 27.5254 44.56C27.3014 44.8907 27.1894 45.264 27.1894 45.68C27.1894 46.16 27.3121 46.544 27.5574 46.832C27.8134 47.12 28.1494 47.3493 28.5654 47.52C28.9814 47.6907 29.4401 47.8347 29.9414 47.952C30.4428 48.0693 30.9388 48.1973 31.4294 48.336C31.9201 48.464 32.3734 48.6347 32.7894 48.848C33.2054 49.0613 33.5414 49.3493 33.7974 49.712C34.0534 50.0747 34.1814 50.544 34.1814 51.12C34.1814 51.6427 34.0374 52.1333 33.7494 52.592C33.4614 53.04 33.0188 53.4027 32.4214 53.68C31.8348 53.9467 31.0774 54.08 30.1494 54.08ZM41.4034 54.064C40.6034 54.064 39.8888 53.8827 39.2594 53.52C38.6408 53.1573 38.1448 52.656 37.7714 52.016C37.4088 51.376 37.2274 50.6453 37.2274 49.824C37.2274 48.992 37.4088 48.2613 37.7714 47.632C38.1448 46.992 38.6408 46.4907 39.2594 46.128C39.8888 45.7653 40.6034 45.584 41.4034 45.584C42.2034 45.584 42.9181 45.7653 43.5474 46.128C44.1768 46.4907 44.6728 46.992 45.0354 47.632C45.3981 48.2613 45.5794 48.992 45.5794 49.824C45.5794 50.6453 45.3981 51.376 45.0354 52.016C44.6728 52.656 44.1768 53.1573 43.5474 53.52C42.9181 53.8827 42.2034 54.064 41.4034 54.064ZM41.4034 53.344C42.0434 53.344 42.6194 53.2 43.1314 52.912C43.6434 52.6133 44.0434 52.1973 44.3314 51.664C44.6194 51.1307 44.7634 50.5173 44.7634 49.824C44.7634 49.12 44.6194 48.5067 44.3314 47.984C44.0434 47.4507 43.6434 47.04 43.1314 46.752C42.6194 46.4533 42.0434 46.304 41.4034 46.304C40.7634 46.304 40.1874 46.4533 39.6754 46.752C39.1741 47.04 38.7741 47.4507 38.4754 47.984C38.1874 48.5067 38.0434 49.12 38.0434 49.824C38.0434 50.5173 38.1874 51.1307 38.4754 51.664C38.7741 52.1973 39.1741 52.6133 39.6754 52.912C40.1874 53.2 40.7634 53.344 41.4034 53.344ZM49.6613 54V44.368C49.6613 43.6747 49.8586 43.12 50.2533 42.704C50.6586 42.2773 51.2346 42.064 51.9813 42.064C52.2906 42.064 52.5946 42.112 52.8933 42.208C53.192 42.2933 53.4373 42.4267 53.6293 42.608L53.3093 43.216C53.1493 43.056 52.9573 42.9387 52.7333 42.864C52.5093 42.7893 52.2693 42.752 52.0133 42.752C51.5013 42.752 51.112 42.896 50.8453 43.184C50.5786 43.4613 50.4453 43.8773 50.4453 44.432V45.84L50.4613 46.224V54H49.6613ZM48.1253 46.336V45.648H53.1173V46.336H48.1253ZM58.6233 54.064C57.8873 54.064 57.322 53.8613 56.9273 53.456C56.5433 53.0507 56.3513 52.496 56.3513 51.792V43.824H57.1513V51.712C57.1513 52.2453 57.2846 52.656 57.5513 52.944C57.818 53.232 58.202 53.376 58.7033 53.376C59.226 53.376 59.658 53.2213 59.9993 52.912L60.3353 53.472C60.122 53.6747 59.8606 53.824 59.5513 53.92C59.2526 54.016 58.9433 54.064 58.6233 54.064ZM54.8153 46.336V45.648H59.8073V46.336H54.8153ZM65.4821 54L62.3141 45.648H63.0821L66.0261 53.552H65.6901L68.7141 45.648H69.4021L72.4101 53.552H72.0581L75.0501 45.648H75.7861L72.6181 54H71.8661L68.9221 46.416H69.1781L66.2181 54H65.4821ZM84.1009 54V52.096L84.0689 51.808V48.672C84.0689 47.8933 83.8556 47.3013 83.4289 46.896C83.0129 46.4907 82.3996 46.288 81.5889 46.288C81.0129 46.288 80.4743 46.3893 79.9729 46.592C79.4823 46.784 79.0609 47.0347 78.7089 47.344L78.3089 46.768C78.7249 46.3947 79.2263 46.1067 79.8129 45.904C80.3996 45.6907 81.0129 45.584 81.6529 45.584C82.6876 45.584 83.4823 45.8453 84.0369 46.368C84.5916 46.8907 84.8689 47.6693 84.8689 48.704V54H84.1009ZM81.0929 54.064C80.4743 54.064 79.9356 53.968 79.4769 53.776C79.0289 53.5733 78.6823 53.2907 78.4369 52.928C78.2023 52.5653 78.0849 52.1493 78.0849 51.68C78.0849 51.2533 78.1809 50.8693 78.3729 50.528C78.5756 50.176 78.9063 49.8933 79.3649 49.68C79.8236 49.456 80.4369 49.344 81.2049 49.344H84.2769V49.968H81.2209C80.3569 49.968 79.7489 50.128 79.3969 50.448C79.0556 50.768 78.8849 51.168 78.8849 51.648C78.8849 52.1813 79.0876 52.608 79.4929 52.928C79.8983 53.248 80.4689 53.408 81.2049 53.408C81.9089 53.408 82.5009 53.248 82.9809 52.928C83.4716 52.608 83.8343 52.144 84.0689 51.536L84.2929 52.08C84.0689 52.688 83.6849 53.1733 83.1409 53.536C82.6076 53.888 81.9249 54.064 81.0929 54.064ZM89.6051 54V45.648H90.3731V47.936L90.2931 47.68C90.5277 47.008 90.9224 46.4907 91.4771 46.128C92.0317 45.7653 92.7251 45.584 93.5571 45.584V46.368C93.5251 46.368 93.4931 46.368 93.4611 46.368C93.4291 46.3573 93.3971 46.352 93.3651 46.352C92.4371 46.352 91.7117 46.6453 91.1891 47.232C90.6664 47.808 90.4051 48.6133 90.4051 49.648V54H89.6051ZM100.515 54.064C99.6725 54.064 98.9259 53.8827 98.2752 53.52C97.6352 53.1573 97.1285 52.656 96.7552 52.016C96.3925 51.376 96.2112 50.6453 96.2112 49.824C96.2112 48.992 96.3819 48.2613 96.7232 47.632C97.0752 46.992 97.5552 46.4907 98.1632 46.128C98.7712 45.7653 99.4539 45.584 100.211 45.584C100.969 45.584 101.646 45.76 102.243 46.112C102.851 46.464 103.326 46.96 103.667 47.6C104.019 48.2293 104.195 48.96 104.195 49.792C104.195 49.824 104.19 49.8613 104.179 49.904C104.179 49.936 104.179 49.9733 104.179 50.016H96.8032V49.392H103.747L103.427 49.696C103.438 49.0453 103.299 48.464 103.011 47.952C102.734 47.4293 102.355 47.024 101.875 46.736C101.395 46.4373 100.841 46.288 100.211 46.288C99.5925 46.288 99.0379 46.4373 98.5472 46.736C98.0672 47.024 97.6885 47.4293 97.4112 47.952C97.1339 48.464 96.9952 49.0507 96.9952 49.712V49.856C96.9952 50.5387 97.1445 51.1467 97.4432 51.68C97.7525 52.2027 98.1739 52.6133 98.7072 52.912C99.2405 53.2 99.8485 53.344 100.531 53.344C101.065 53.344 101.561 53.248 102.019 53.056C102.489 52.864 102.883 52.5707 103.203 52.176L103.667 52.704C103.305 53.152 102.846 53.4933 102.291 53.728C101.747 53.952 101.155 54.064 100.515 54.064ZM114.635 47.952H120.699V48.672H114.635V47.952ZM114.731 53.264H121.643V54H113.915V42.8H121.403V43.536H114.731V53.264ZM129.883 45.584C130.565 45.584 131.157 45.7173 131.659 45.984C132.171 46.24 132.565 46.6347 132.843 47.168C133.131 47.6907 133.275 48.3413 133.275 49.12V54H132.475V49.184C132.475 48.2453 132.235 47.5307 131.755 47.04C131.285 46.5493 130.624 46.304 129.771 46.304C129.12 46.304 128.555 46.4373 128.075 46.704C127.595 46.9707 127.227 47.344 126.971 47.824C126.725 48.304 126.603 48.88 126.603 49.552V54H125.803V45.648H126.571V47.968L126.459 47.712C126.715 47.0507 127.136 46.5333 127.723 46.16C128.309 45.776 129.029 45.584 129.883 45.584ZM141.48 57.168C140.723 57.168 140.003 57.0507 139.32 56.816C138.638 56.5813 138.083 56.256 137.656 55.84L138.088 55.232C138.504 55.616 139 55.9147 139.576 56.128C140.163 56.3413 140.792 56.448 141.464 56.448C142.584 56.448 143.406 56.1867 143.928 55.664C144.462 55.1413 144.728 54.32 144.728 53.2V50.88L144.888 49.632L144.76 48.384V45.648H145.528V53.104C145.528 54.5013 145.187 55.5253 144.504 56.176C143.832 56.8373 142.824 57.168 141.48 57.168ZM141.256 53.696C140.467 53.696 139.758 53.5253 139.128 53.184C138.51 52.832 138.014 52.352 137.64 51.744C137.278 51.1253 137.096 50.4213 137.096 49.632C137.096 48.832 137.278 48.128 137.64 47.52C138.014 46.912 138.51 46.4373 139.128 46.096C139.758 45.7547 140.467 45.584 141.256 45.584C142.014 45.584 142.691 45.7493 143.288 46.08C143.896 46.4 144.376 46.864 144.728 47.472C145.08 48.0693 145.256 48.7893 145.256 49.632C145.256 50.464 145.08 51.184 144.728 51.792C144.376 52.4 143.896 52.8693 143.288 53.2C142.691 53.5307 142.014 53.696 141.256 53.696ZM141.32 52.976C141.992 52.976 142.584 52.8373 143.096 52.56C143.608 52.272 144.008 51.8773 144.296 51.376C144.595 50.864 144.744 50.2827 144.744 49.632C144.744 48.9707 144.595 48.3893 144.296 47.888C144.008 47.3867 143.608 46.9973 143.096 46.72C142.584 46.4427 141.992 46.304 141.32 46.304C140.67 46.304 140.083 46.4427 139.56 46.72C139.048 46.9973 138.643 47.3867 138.344 47.888C138.056 48.3893 137.912 48.9707 137.912 49.632C137.912 50.2827 138.056 50.864 138.344 51.376C138.643 51.8773 139.048 52.272 139.56 52.56C140.083 52.8373 140.67 52.976 141.32 52.976ZM150.354 54V45.648H151.154V54H150.354ZM150.754 43.616C150.573 43.616 150.418 43.552 150.29 43.424C150.162 43.296 150.098 43.1467 150.098 42.976C150.098 42.7947 150.162 42.64 150.29 42.512C150.418 42.384 150.573 42.32 150.754 42.32C150.946 42.32 151.101 42.384 151.218 42.512C151.346 42.6293 151.41 42.7787 151.41 42.96C151.41 43.1413 151.346 43.296 151.218 43.424C151.101 43.552 150.946 43.616 150.754 43.616ZM160.046 45.584C160.729 45.584 161.321 45.7173 161.822 45.984C162.334 46.24 162.729 46.6347 163.006 47.168C163.294 47.6907 163.438 48.3413 163.438 49.12V54H162.638V49.184C162.638 48.2453 162.398 47.5307 161.918 47.04C161.449 46.5493 160.788 46.304 159.934 46.304C159.284 46.304 158.718 46.4373 158.238 46.704C157.758 46.9707 157.39 47.344 157.134 47.824C156.889 48.304 156.766 48.88 156.766 49.552V54H155.966V45.648H156.734V47.968L156.622 47.712C156.878 47.0507 157.3 46.5333 157.886 46.16C158.473 45.776 159.193 45.584 160.046 45.584ZM171.564 54.064C170.721 54.064 169.975 53.8827 169.324 53.52C168.684 53.1573 168.177 52.656 167.804 52.016C167.441 51.376 167.26 50.6453 167.26 49.824C167.26 48.992 167.431 48.2613 167.772 47.632C168.124 46.992 168.604 46.4907 169.212 46.128C169.82 45.7653 170.503 45.584 171.26 45.584C172.017 45.584 172.695 45.76 173.292 46.112C173.9 46.464 174.375 46.96 174.716 47.6C175.068 48.2293 175.244 48.96 175.244 49.792C175.244 49.824 175.239 49.8613 175.228 49.904C175.228 49.936 175.228 49.9733 175.228 50.016H167.852V49.392H174.796L174.476 49.696C174.487 49.0453 174.348 48.464 174.06 47.952C173.783 47.4293 173.404 47.024 172.924 46.736C172.444 46.4373 171.889 46.288 171.26 46.288C170.641 46.288 170.087 46.4373 169.596 46.736C169.116 47.024 168.737 47.4293 168.46 47.952C168.183 48.464 168.044 49.0507 168.044 49.712V49.856C168.044 50.5387 168.193 51.1467 168.492 51.68C168.801 52.2027 169.223 52.6133 169.756 52.912C170.289 53.2 170.897 53.344 171.58 53.344C172.113 53.344 172.609 53.248 173.068 53.056C173.537 52.864 173.932 52.5707 174.252 52.176L174.716 52.704C174.353 53.152 173.895 53.4933 173.34 53.728C172.796 53.952 172.204 54.064 171.564 54.064ZM182.551 54.064C181.708 54.064 180.961 53.8827 180.311 53.52C179.671 53.1573 179.164 52.656 178.791 52.016C178.428 51.376 178.247 50.6453 178.247 49.824C178.247 48.992 178.417 48.2613 178.759 47.632C179.111 46.992 179.591 46.4907 180.199 46.128C180.807 45.7653 181.489 45.584 182.247 45.584C183.004 45.584 183.681 45.76 184.279 46.112C184.887 46.464 185.361 46.96 185.703 47.6C186.055 48.2293 186.231 48.96 186.231 49.792C186.231 49.824 186.225 49.8613 186.215 49.904C186.215 49.936 186.215 49.9733 186.215 50.016H178.839V49.392H185.783L185.463 49.696C185.473 49.0453 185.335 48.464 185.047 47.952C184.769 47.4293 184.391 47.024 183.911 46.736C183.431 46.4373 182.876 46.288 182.247 46.288C181.628 46.288 181.073 46.4373 180.583 46.736C180.103 47.024 179.724 47.4293 179.447 47.952C179.169 48.464 179.031 49.0507 179.031 49.712V49.856C179.031 50.5387 179.18 51.1467 179.479 51.68C179.788 52.2027 180.209 52.6133 180.743 52.912C181.276 53.2 181.884 53.344 182.567 53.344C183.1 53.344 183.596 53.248 184.055 53.056C184.524 52.864 184.919 52.5707 185.239 52.176L185.703 52.704C185.34 53.152 184.881 53.4933 184.327 53.728C183.783 53.952 183.191 54.064 182.551 54.064ZM190.146 54V45.648H190.914V47.936L190.834 47.68C191.068 47.008 191.463 46.4907 192.018 46.128C192.572 45.7653 193.266 45.584 194.098 45.584V46.368C194.066 46.368 194.034 46.368 194.002 46.368C193.97 46.3573 193.938 46.352 193.906 46.352C192.978 46.352 192.252 46.6453 191.73 47.232C191.207 47.808 190.946 48.6133 190.946 49.648V54H190.146Z" fill="black"/>
</svg>
